$MeshFormat
2.2 0 8
$EndMeshFormat
$Nodes
126
1 -0.5 0 0
2 0 -0.5 0
3 0.5 0 0
4 0 0.5 0
5 -0.4903926401522578 -0.09754516125620059 0
6 -0.4619397660417387 -0.1913417166989565 0
7 -0.4157348056854531 -0.2777851172069492 0
8 -0.3535533897888516 -0.3535533913976959 0
9 -0.2777851158152064 -0.415734806615386 0
10 -0.1913417156150936 -0.4619397664906894 0
11 -0.09754516070685475 -0.4903926402615295 0
12 0.09754516125620059 -0.4903926401522578 0
13 0.1913417166989565 -0.4619397660417387 0
14 0.2777851172069492 -0.4157348056854531 0
15 0.3535533913976959 -0.3535533897888516 0
16 0.415734806615386 -0.2777851158152064 0
17 0.4619397664906894 -0.1913417156150936 0
18 0.4903926402615295 -0.09754516070685475 0
19 0.4903926401522578 0.09754516125620059 0
20 0.4619397660417387 0.1913417166989565 0
21 0.4157348056854531 0.2777851172069492 0
22 0.3535533897888516 0.3535533913976959 0
23 0.2777851158152064 0.415734806615386 0
24 0.1913417156150936 0.4619397664906894 0
25 0.09754516070685475 0.4903926402615295 0
26 -0.09754516125620059 0.4903926401522578 0
27 -0.1913417166989565 0.4619397660417387 0
28 -0.2777851172069492 0.4157348056854531 0
29 -0.3535533913976959 0.3535533897888516 0
30 -0.415734806615386 0.2777851158152064 0
31 -0.4619397664906894 0.1913417156150936 0
32 -0.4903926402615295 0.09754516070685475 0
33 -0.2800255868603514 -0.3145081402729277 0
34 0.3205888677752393 -0.2596596026479844 0
35 0.4107197326521735 0.04045236296031153 0
36 -0.04276770622805262 0.4067863167441926 0
37 -0.4107197329423869 0.04045236275661553 0
38 -0.03540497068019798 -0.4083552425207447 0
39 -0.1319564249405988 0.3857817516551075 0
40 0.1198025266650748 0.394936004040725 0
41 -0.08090472569556863 0.3214394651405728 0
42 0.3213021853459778 0.257038810156617 0
43 -0.362184379146584 -0.19547606442086 0
44 0.1962706225673714 -0.3720825413857471 0
45 -0.3213021863822142 0.257038809236101 0
46 0.2570868249695905 0.3202109008542677 0
47 0.2311678011378443 0.2293323075323447 0
48 0.3967371649054416 -0.1146415485099334 0
49 -0.2618185686623682 0.3190268476939482 0
50 -0.2332309035021407 0.2283429536541999 0
51 0.2955998014485511 0.1653997514277031 0
52 0.2083172846142792 0.1339275962944656 0
53 0.1380870089880946 0.1984429026223621 0
54 0.1170903372986209 0.1034394022102392 0
55 0.190671105311325 0.03868684554205114 0
56 0.09762607884937018 0.007868085951671197 0
57 0.02579105012107719 0.07365001884887676 0
58 0.005338983352895885 -0.02440603890298312 0
59 0.07779050099147999 -0.08812101079868599 0
60 -0.0152563090079998 -0.1189374055272941 0
61 -0.0873694637834436 -0.05543215275602641 0
62 0.05795487769311659 -0.1841101124233548 0
63 -0.1083031257419017 -0.1497537910099081 0
64 -0.1806790653836097 -0.08453184980548731 0
65 -0.1522179363205332 0.006716868505295681 0
66 0.1510016906456512 -0.1532937154546719 0
67 -0.2949450464533845 0.1659118863571278 0
68 -0.2545494120919646 -0.01738477709734172 0
69 -0.1978001519735048 -0.1782647299639128 0
70 -0.1264388706535616 -0.2429839215386554 0
71 -0.2123522717781726 0.1385889412918518 0
72 -0.1445110402435598 0.195364879451544 0
73 0.1291652969820932 -0.2427540737050234 0
74 0.03759547105634074 -0.2746035366138318 0
75 0.0244747358704895 0.3374375244090064 0
76 -0.01636341572858312 0.2462194462425543 0
77 0.1640170400269724 0.3021240987372706 0
78 -0.1377727218730736 0.09808899610142303 0
79 0.2283575813478448 -0.2245672621375336 0
80 0.237126149920138 -0.1252759953624744 0
81 0.2741784930801547 0.07344312135562059 0
82 0.047970304416735 0.1715647831845444 0
83 0.2669806470281355 -0.03015099555688636 0
84 0.1692675631493068 -0.05819640003199632 0
85 -0.03469947479242101 -0.2123381169423649 0
86 -0.0573075433432873 -0.3190309403517376 0
87 -0.1449087014531324 -0.3247719580784423 0
88 -0.2863917822065892 -0.1211357395510958 0
89 -0.3500245749911265 -0.04525119207574163 0
90 -0.2833422613127189 0.0721487943119301 0
91 -0.1666446253441425 0.2969155440578412 0
92 0.07115419035698765 0.2608602450458266 0
93 -0.3981000526056386 -0.1159719625130749 0
94 0.1092862010715245 -0.3401210104065928 0
95 -0.05141550134961725 0.1527426930182271 0
96 -0.06534802942403432 0.03230925628435527 0
97 0.2025319765179477 0.3796311793441591 0
98 0.03632786564072033 0.4259236952480186 0
99 0.4269816446645258 -0.03767704975867024 0
100 0.3529156131894316 -0.04638040859274405 0
101 -0.3366312149422515 -0.267961540293054 0
102 0.2603787270197724 -0.3163558297256008 0
103 0.3686852293967849 -0.1917620870223767 0
104 0.4160019323256306 0.1261928069140845 0
105 -0.4340114694862739 -0.04326416816899347 0
106 0.04743635707967195 -0.4324613658498245 0
107 -0.4111427822733477 0.1287498489952368 0
108 -0.1212653492147104 -0.4060164406763751 0
109 0.3739082154958145 0.185566991858763 0
110 -0.3749230549471366 0.1916361852171515 0
111 -0.280020634506144 -0.2189932779202353 0
112 -0.2088014116560953 -0.2741680370587342 0
113 0.2970860187252891 -0.1824266181534541 0
114 0.02023677505471777 -0.3519100867143709 0
115 0.1282728630671688 -0.4203695048714615 0
116 0.09214481404760221 0.3221959220849276 0
117 -0.2086217652984993 0.3744789521374065 0
118 0.1843415096787347 -0.2976368182715265 0
119 -0.2048606834621475 -0.3716574318175861 0
120 -0.3378197745930821 0.02634028860800058 0
121 0.3332348585209383 0.02660461094020944 0
122 0.3490696488603127 0.1030022446802749 0
123 -0.2097921939212685 0.06125053471317872 0
124 0.3172459296622178 -0.1140831475977283 0
125 -0.3439261323140225 0.1088877283733573 0
126 -0.09302027573721232 0.2544766409526136 0
$EndNodes
$Elements
250
1 1 2 20 11 1 5
2 1 2 20 11 5 6
3 1 2 20 11 6 7
4 1 2 20 11 7 8
5 1 2 20 11 8 9
6 1 2 20 11 9 10
7 1 2 20 11 10 11
8 1 2 20 11 11 2
9 1 2 20 12 2 12
10 1 2 20 12 12 13
11 1 2 20 12 13 14
12 1 2 20 12 14 15
13 1 2 20 12 15 16
14 1 2 20 12 16 17
15 1 2 20 12 17 18
16 1 2 20 12 18 3
17 1 2 20 13 3 19
18 1 2 20 13 19 20
19 1 2 20 13 20 21
20 1 2 20 13 21 22
21 1 2 20 13 22 23
22 1 2 20 13 23 24
23 1 2 20 13 24 25
24 1 2 20 13 25 4
25 1 2 20 14 4 26
26 1 2 20 14 26 27
27 1 2 20 14 27 28
28 1 2 20 14 28 29
29 1 2 20 14 29 30
30 1 2 20 14 30 31
31 1 2 20 14 31 32
32 1 2 20 14 32 1
33 2 2 2 2 88 93 43
34 2 2 2 2 89 93 88
35 2 2 2 2 75 116 40
36 2 2 2 2 95 96 57
37 2 2 2 2 79 102 34
38 2 2 2 2 79 118 102
39 2 2 2 2 78 96 95
40 2 2 2 2 40 98 75
41 2 2 2 2 86 108 38
42 2 2 2 2 87 108 86
43 2 2 2 2 106 115 94
44 2 2 2 2 94 114 106
45 2 2 2 2 77 92 53
46 2 2 2 2 43 111 88
47 2 2 2 2 33 119 112
48 2 2 2 2 112 119 87
49 2 2 2 2 47 77 53
50 2 2 2 2 39 91 41
51 2 2 2 2 72 91 50
52 2 2 2 2 33 111 101
53 2 2 2 2 95 126 72
54 2 2 2 2 33 112 111
55 2 2 2 2 82 95 57
56 2 2 2 2 37 105 89
57 2 2 2 2 52 81 51
58 2 2 2 2 83 84 80
59 2 2 2 2 55 84 83
60 2 2 2 2 66 84 59
61 2 2 2 2 80 84 66
62 2 2 2 2 59 84 56
63 2 2 2 2 70 87 86
64 2 2 2 2 70 86 85
65 2 2 2 2 62 85 74
66 2 2 2 2 85 86 74
67 2 2 2 2 60 85 62
68 2 2 2 2 29 49 28
69 2 2 2 2 22 42 21
70 2 2 2 2 26 36 4
71 2 2 2 2 70 85 63
72 2 2 2 2 7 43 6
73 2 2 2 2 19 35 3
74 2 2 2 2 14 44 13
75 2 2 2 2 41 75 36
76 2 2 2 2 41 76 75
77 2 2 2 2 79 80 66
78 2 2 2 2 39 41 36
79 2 2 2 2 64 88 69
80 2 2 2 2 69 70 63
81 2 2 2 2 73 79 66
82 2 2 2 2 9 33 8
83 2 2 2 2 16 34 15
84 2 2 2 2 68 88 64
85 2 2 2 2 68 89 88
86 2 2 2 2 25 40 24
87 2 2 2 2 64 69 63
88 2 2 2 2 65 68 64
89 2 2 2 2 23 46 22
90 2 2 2 2 30 45 29
91 2 2 2 2 62 74 73
92 2 2 2 2 18 48 17
93 2 2 2 2 61 65 64
94 2 2 2 2 26 39 36
95 2 2 2 2 1 37 32
96 2 2 2 2 2 38 11
97 2 2 2 2 63 85 60
98 2 2 2 2 62 73 66
99 2 2 2 2 61 64 63
100 2 2 2 2 61 63 60
101 2 2 2 2 62 66 59
102 2 2 2 2 58 61 60
103 2 2 2 2 60 62 59
104 2 2 2 2 58 60 59
105 2 2 2 2 58 59 56
106 2 2 2 2 57 58 56
107 2 2 2 2 55 83 81
108 2 2 2 2 56 84 55
109 2 2 2 2 54 57 56
110 2 2 2 2 54 56 55
111 2 2 2 2 55 81 52
112 2 2 2 2 54 55 52
113 2 2 2 2 71 78 72
114 2 2 2 2 53 54 52
115 2 2 2 2 54 82 57
116 2 2 2 2 71 72 50
117 2 2 2 2 47 53 52
118 2 2 2 2 53 82 54
119 2 2 2 2 78 95 72
120 2 2 2 2 47 52 51
121 2 2 2 2 67 71 50
122 2 2 2 2 65 96 78
123 2 2 2 2 67 90 71
124 2 2 2 2 89 120 37
125 2 2 2 2 76 126 95
126 2 2 2 2 70 112 87
127 2 2 2 2 35 121 100
128 2 2 2 2 46 77 47
129 2 2 2 2 47 51 42
130 2 2 2 2 45 67 50
131 2 2 2 2 57 96 58
132 2 2 2 2 61 96 65
133 2 2 2 2 35 100 99
134 2 2 2 2 48 124 103
135 2 2 2 2 78 123 65
136 2 2 2 2 82 92 76
137 2 2 2 2 77 116 92
138 2 2 2 2 69 112 70
139 2 2 2 2 103 124 113
140 2 2 2 2 53 92 82
141 2 2 2 2 74 94 73
142 2 2 2 2 75 98 36
143 2 2 2 2 72 126 91
144 2 2 2 2 71 123 78
145 2 2 2 2 76 95 82
146 2 2 2 2 43 93 6
147 2 2 2 2 22 46 42
148 2 2 2 2 45 49 29
149 2 2 2 2 27 39 26
150 2 2 2 2 39 117 91
151 2 2 2 2 86 114 74
152 2 2 2 2 76 92 75
153 2 2 2 2 25 98 40
154 2 2 2 2 18 99 48
155 2 2 2 2 58 96 61
156 2 2 2 2 88 111 69
157 2 2 2 2 50 91 49
158 2 2 2 2 80 124 83
159 2 2 2 2 77 97 40
160 2 2 2 2 34 113 79
161 2 2 2 2 38 114 86
162 2 2 2 2 68 120 89
163 2 2 2 2 51 122 109
164 2 2 2 2 6 93 5
165 2 2 2 2 90 120 68
166 2 2 2 2 45 110 67
167 2 2 2 2 51 109 42
168 2 2 2 2 94 118 73
169 2 2 2 2 107 125 110
170 2 2 2 2 111 112 69
171 2 2 2 2 110 125 67
172 2 2 2 2 34 102 15
173 2 2 2 2 33 101 8
174 2 2 2 2 46 47 42
175 2 2 2 2 45 50 49
176 2 2 2 2 109 122 104
177 2 2 2 2 83 121 81
178 2 2 2 2 17 103 16
179 2 2 2 2 44 118 94
180 2 2 2 2 74 114 94
181 2 2 2 2 16 103 34
182 2 2 2 2 48 103 17
183 2 2 2 2 23 97 46
184 2 2 2 2 46 97 77
185 2 2 2 2 65 123 68
186 2 2 2 2 83 124 100
187 2 2 2 2 8 101 7
188 2 2 2 2 15 102 14
189 2 2 2 2 40 97 24
190 2 2 2 2 24 97 23
191 2 2 2 2 32 107 31
192 2 2 2 2 11 108 10
193 2 2 2 2 42 109 21
194 2 2 2 2 30 110 45
195 2 2 2 2 40 116 77
196 2 2 2 2 9 119 33
197 2 2 2 2 19 104 35
198 2 2 2 2 3 99 18
199 2 2 2 2 4 98 25
200 2 2 2 2 7 101 43
201 2 2 2 2 14 102 44
202 2 2 2 2 94 115 44
203 2 2 2 2 28 117 27
204 2 2 2 2 1 105 37
205 2 2 2 2 2 106 38
206 2 2 2 2 44 115 13
207 2 2 2 2 79 113 80
208 2 2 2 2 68 123 90
209 2 2 2 2 37 107 32
210 2 2 2 2 38 108 11
211 2 2 2 2 21 109 20
212 2 2 2 2 31 110 30
213 2 2 2 2 89 105 93
214 2 2 2 2 20 104 19
215 2 2 2 2 35 99 3
216 2 2 2 2 36 98 4
217 2 2 2 2 100 121 83
218 2 2 2 2 81 122 51
219 2 2 2 2 91 126 41
220 2 2 2 2 49 117 28
221 2 2 2 2 10 119 9
222 2 2 2 2 73 118 79
223 2 2 2 2 5 105 1
224 2 2 2 2 12 106 2
225 2 2 2 2 99 100 48
226 2 2 2 2 120 125 37
227 2 2 2 2 13 115 12
228 2 2 2 2 91 117 49
229 2 2 2 2 107 110 31
230 2 2 2 2 41 126 76
231 2 2 2 2 37 125 107
232 2 2 2 2 108 119 10
233 2 2 2 2 90 123 71
234 2 2 2 2 67 125 90
235 2 2 2 2 104 122 35
236 2 2 2 2 27 117 39
237 2 2 2 2 103 113 34
238 2 2 2 2 35 122 121
239 2 2 2 2 102 118 44
240 2 2 2 2 101 111 43
241 2 2 2 2 20 109 104
242 2 2 2 2 92 116 75
243 2 2 2 2 106 114 38
244 2 2 2 2 87 119 108
245 2 2 2 2 12 115 106
246 2 2 2 2 93 105 5
247 2 2 2 2 121 122 81
248 2 2 2 2 100 124 48
249 2 2 2 2 90 125 120
250 2 2 2 2 113 124 80
$EndElements
