$MeshFormat
2.2 0 8
$EndMeshFormat
$Nodes
116
1 0.75 0.5 0
2 0.5 0.625 0
3 0.5 0.375 0
4 0.85 0.5 0
5 0.5 0.7 0
6 0.5 0.3 0
7 0.7430776431520629 0.5292115533635168 0
8 0.7256456995618559 0.5538145386239646 0
9 0.7025281824920887 0.5732842672346037 0
10 0.676420906346086 0.5885658848033846 0
11 0.6486179744463727 0.6005145482896099 0
12 0.6197842932049799 0.609717504416323 0
13 0.5902988266702307 0.6165612734809247 0
14 0.5604008753906635 0.6212968819179223 0
15 0.5302577795947366 0.6240810891856575 0
16 0.5302577795947365 0.3759189108143425 0
17 0.5604008753906636 0.3787031180820777 0
18 0.5902988266702305 0.3834387265190753 0
19 0.6197842932049801 0.3902824955836771 0
20 0.6486179744463729 0.3994854517103902 0
21 0.6764209063460862 0.4114341151966155 0
22 0.702528182492089 0.4267157327653966 0
23 0.7256456995618561 0.4461854613760357 0
24 0.743077643152063 0.4707884466364834 0
25 0.8462951657865713 0.5290230487032809 0
26 0.8358165111197711 0.5563582443762558 0
27 0.8199990971270699 0.5810151466571079 0
28 0.8003071655054855 0.6027230973308553 0
29 0.7778760150993311 0.6216014503572425 0
30 0.7534993486164716 0.6379003843371531 0
31 0.7277185521936638 0.6518799321556841 0
32 0.7009067965913446 0.6637683372087899 0
33 0.673328022677151 0.6737531878948344 0
34 0.6451749282028226 0.6819838433925837 0
35 0.6165932468196922 0.6885766361151444 0
36 0.5876974520989905 0.6936199997220267 0
37 0.5585812210014036 0.6971786638670705 0
38 0.5293247223594101 0.6992967723781314 0
39 0.5293247223594097 0.3007032276218685 0
40 0.5585812210014034 0.3028213361329295 0
41 0.5876974520989905 0.3063800002779732 0
42 0.6165932468196921 0.3114233638848555 0
43 0.645174928202823 0.3180161566074164 0
44 0.673328022677151 0.3262468121051655 0
45 0.7009067965913442 0.3362316627912099 0
46 0.7277185521936635 0.3481200678443157 0
47 0.7534993486164717 0.3620996156628469 0
48 0.7778760150993314 0.3783985496427577 0
49 0.8003071655054856 0.3972769026691448 0
50 0.8199990971270701 0.4189848533428925 0
51 0.8358165111197713 0.4436417556237447 0
52 0.8462951657865714 0.4709769512967195 0
53 0.5 0.6749999999999999 0
54 0.5 0.65 0
55 0.5 0.325 0
56 0.5 0.35 0
57 0.8171745392475609 0.4653153447449556 0
58 0.8171757676208318 0.5346923820043195 0
59 0.7913581675750925 0.5748196479840204 0
60 0.7913581675750924 0.4251803520159799 0
61 0.7534321642437377 0.3919498191484467 0
62 0.7534321642437375 0.6080501808515535 0
63 0.5216506350946108 0.6625 0
64 0.521650635094611 0.3375 0
65 0.7021080389376007 0.6028705543013457 0
66 0.7021080389376009 0.3971294456986543 0
67 0.6784704803435049 0.3551225898847661 0
68 0.678470480343505 0.6448774101152337 0
69 0.626030066100161 0.3396571984232155 0
70 0.6260300661001609 0.6603428015767846 0
71 0.5700574578034368 0.3298159428557388 0
72 0.570057457803437 0.6701840571442612 0
73 0.7701770963641468 0.4773792846211842 0
74 0.7701770963641469 0.5226207153788159 0
75 0.8050423531741087 0.5000356196960167 0
76 0.7563349249621498 0.5565268238309871 0
77 0.7563349249621498 0.4434731761690133 0
78 0.6421704707188384 0.6300846686586405 0
79 0.6421704707188387 0.3699153313413595 0
80 0.7329014580294845 0.4147805590784278 0
81 0.7329014580294844 0.5852194409215724 0
82 0.5464505248557139 0.6482936511646802 0
83 0.5464505248557139 0.3517063488353198 0
84 0.786582921609829 0.5461198622641601 0
85 0.7865828171563196 0.4538807947723431 0
86 0.6721352587056553 0.3830850683294907 0
87 0.6721352587056549 0.6169149316705093 0
88 0.764427106120162 0.5834512853976492 0
89 0.764427106120162 0.416548714602351 0
90 0.5791606971564678 0.3570113968297735 0
91 0.5791606971564678 0.6429886031702265 0
92 0.5982463593881336 0.6659835910130841 0
93 0.5982463593881336 0.3340164089869159 0
94 0.6104404879451943 0.6363999504299679 0
95 0.6104404879451943 0.3636000495700322 0
96 0.7011955361100941 0.6331416002770777 0
97 0.7011955361100942 0.3668583997229223 0
98 0.6530347936084957 0.3417916176723846 0
99 0.6530347936084956 0.6582083823276154 0
100 0.7271819265213025 0.3807956219881641 0
101 0.7271819265213024 0.6192043780118357 0
102 0.5407876203365094 0.6766292038948204 0
103 0.5407876203365093 0.3233707961051797 0
104 0.8101864930105188 0.5586010566571727 0
105 0.8101862264451629 0.4414006200999832 0
106 0.8252297686894876 0.4875969020418787 0
107 0.8259531791271337 0.5123771383920169 0
108 0.7960006931754807 0.4778164816619206 0
109 0.7960447130530576 0.5221867777897136 0
110 0.5193104267807289 0.6418260284328096 0
111 0.5193104267807288 0.3581739715671904 0
112 0.7787326495797546 0.4001461598987412 0
113 0.7787326495797546 0.5998538401012591 0
114 0.5186611609044809 0.682322078814779 0
115 0.5186611609044811 0.3176779211852211 0
116 0.7765333567197146 0.5000000000000001 0
$EndNodes
$Elements
174
1 2 2 300 300 65 96 87
2 2 2 300 300 86 97 66
3 2 2 300 300 76 84 59
4 2 2 300 300 60 85 77
5 2 2 300 300 59 88 76
6 2 2 300 300 77 89 60
7 2 2 300 300 78 87 68
8 2 2 300 300 67 86 79
9 2 2 300 300 74 76 7
10 2 2 300 300 24 77 73
11 2 2 300 300 74 84 76
12 2 2 300 300 77 85 73
13 2 2 300 300 68 99 78
14 2 2 300 300 79 98 67
15 2 2 300 300 76 88 81
16 2 2 300 300 80 89 77
17 2 2 300 300 87 96 68
18 2 2 300 300 67 97 86
19 2 2 300 300 66 100 80
20 2 2 300 300 81 101 65
21 2 2 300 300 31 101 30
22 2 2 300 300 47 100 46
23 2 2 300 300 23 80 77
24 2 2 300 300 76 81 8
25 2 2 300 300 85 105 57
26 2 2 300 300 58 104 84
27 2 2 300 300 57 108 85
28 2 2 300 300 84 109 58
29 2 2 300 300 80 100 61
30 2 2 300 300 62 101 81
31 2 2 300 300 91 94 92
32 2 2 300 300 93 95 90
33 2 2 300 300 70 94 78
34 2 2 300 300 79 95 69
35 2 2 300 300 107 109 75
36 2 2 300 300 75 108 106
37 2 2 300 300 81 88 62
38 2 2 300 300 61 89 80
39 2 2 300 300 9 81 65
40 2 2 300 300 66 80 22
41 2 2 300 300 106 107 75
42 2 2 300 300 78 99 70
43 2 2 300 300 69 98 79
44 2 2 300 300 30 101 62
45 2 2 300 300 61 100 47
46 2 2 300 300 106 108 57
47 2 2 300 300 58 109 107
48 2 2 300 300 82 91 72
49 2 2 300 300 71 90 83
50 2 2 300 300 65 87 10
51 2 2 300 300 21 86 66
52 2 2 300 300 79 86 20
53 2 2 300 300 11 87 78
54 2 2 300 300 92 94 70
55 2 2 300 300 69 95 93
56 2 2 300 300 96 101 31
57 2 2 300 300 46 100 97
58 2 2 300 300 19 95 79
59 2 2 300 300 78 94 12
60 2 2 300 300 83 90 17
61 2 2 300 300 14 91 82
62 2 2 300 300 11 78 12
63 2 2 300 300 19 79 20
64 2 2 300 300 8 81 9
65 2 2 300 300 22 80 23
66 2 2 300 300 23 77 24
67 2 2 300 300 7 76 8
68 2 2 300 300 9 65 10
69 2 2 300 300 21 66 22
70 2 2 300 300 1 74 7
71 2 2 300 300 24 73 1
72 2 2 300 300 97 100 66
73 2 2 300 300 65 101 96
74 2 2 300 300 52 57 51
75 2 2 300 300 26 58 25
76 2 2 300 300 50 60 49
77 2 2 300 300 28 59 27
78 2 2 300 300 48 61 47
79 2 2 300 300 30 62 29
80 2 2 300 300 16 83 17
81 2 2 300 300 14 82 15
82 2 2 300 300 45 67 44
83 2 2 300 300 33 68 32
84 2 2 300 300 43 69 42
85 2 2 300 300 35 70 34
86 2 2 300 300 37 72 36
87 2 2 300 300 41 71 40
88 2 2 300 300 13 94 91
89 2 2 300 300 90 95 18
90 2 2 300 300 91 92 72
91 2 2 300 300 71 93 90
92 2 2 300 300 72 102 82
93 2 2 300 300 83 103 71
94 2 2 300 300 20 86 21
95 2 2 300 300 10 87 11
96 2 2 300 300 13 91 14
97 2 2 300 300 17 90 18
98 2 2 300 300 36 92 35
99 2 2 300 300 42 93 41
100 2 2 300 300 41 93 71
101 2 2 300 300 72 92 36
102 2 2 300 300 35 92 70
103 2 2 300 300 69 93 42
104 2 2 300 300 82 102 63
105 2 2 300 300 64 103 83
106 2 2 300 300 18 95 19
107 2 2 300 300 12 94 13
108 2 2 300 300 32 96 31
109 2 2 300 300 46 97 45
110 2 2 300 300 40 103 39
111 2 2 300 300 38 102 37
112 2 2 300 300 43 98 69
113 2 2 300 300 70 99 34
114 2 2 300 300 67 98 44
115 2 2 300 300 33 99 68
116 2 2 300 300 68 96 32
117 2 2 300 300 45 97 67
118 2 2 300 300 44 98 43
119 2 2 300 300 34 99 33
120 2 2 300 300 54 63 53
121 2 2 300 300 55 64 56
122 2 2 300 300 15 110 2
123 2 2 300 300 3 111 16
124 2 2 300 300 83 111 64
125 2 2 300 300 63 110 82
126 2 2 300 300 5 114 38
127 2 2 300 300 39 115 6
128 2 2 300 300 60 105 85
129 2 2 300 300 84 104 59
130 2 2 300 300 37 102 72
131 2 2 300 300 71 103 40
132 2 2 300 300 82 110 15
133 2 2 300 300 16 111 83
134 2 2 300 300 6 115 55
135 2 2 300 300 53 114 5
136 2 2 300 300 51 105 50
137 2 2 300 300 27 104 26
138 2 2 300 300 56 111 3
139 2 2 300 300 2 110 54
140 2 2 300 300 48 112 61
141 2 2 300 300 62 113 29
142 2 2 300 300 57 105 51
143 2 2 300 300 26 104 58
144 2 2 300 300 59 104 27
145 2 2 300 300 50 105 60
146 2 2 300 300 60 112 49
147 2 2 300 300 28 113 59
148 2 2 300 300 88 113 62
149 2 2 300 300 61 112 89
150 2 2 300 300 4 106 52
151 2 2 300 300 25 107 4
152 2 2 300 300 52 106 57
153 2 2 300 300 85 108 73
154 2 2 300 300 74 109 84
155 2 2 300 300 58 107 25
156 2 2 300 300 59 113 88
157 2 2 300 300 89 112 60
158 2 2 300 300 103 115 39
159 2 2 300 300 38 114 102
160 2 2 300 300 75 116 108
161 2 2 300 300 109 116 75
162 2 2 300 300 1 116 74
163 2 2 300 300 73 116 1
164 2 2 300 300 108 116 73
165 2 2 300 300 74 116 109
166 2 2 300 300 102 114 63
167 2 2 300 300 64 115 103
168 2 2 300 300 29 113 28
169 2 2 300 300 49 112 48
170 2 2 300 300 4 107 106
171 2 2 300 300 54 110 63
172 2 2 300 300 64 111 56
173 2 2 300 300 63 114 53
174 2 2 300 300 55 115 64
$EndElements
