$MeshFormat
2.2 0 8
$EndMeshFormat
$Nodes
30
1 -0.5 0 0
2 0 -0.5 0
3 0.5 0 0
4 0 0.5 0
5 -0.375000000000234 -0.124999999999766 0
6 -0.2500000000008424 -0.2499999999991576 0
7 -0.1250000000004254 -0.3749999999995746 0
8 0.124999999999766 -0.375000000000234 0
9 0.2499999999991576 -0.2500000000008424 0
10 0.3749999999995746 -0.1250000000004254 0
11 0.375000000000234 0.124999999999766 0
12 0.2500000000008424 0.2499999999991576 0
13 0.1250000000004254 0.3749999999995746 0
14 -0.124999999999766 0.375000000000234 0
15 -0.2499999999991576 0.2500000000008424 0
16 -0.3749999999995746 0.1250000000004254 0
17 -0.08214570997647028 -0.2068119675516338 0
18 0.09184100398337396 0.2162099578931095 0
19 0.1800566881541564 -0.06545631410786334 0
20 -0.2113377849271266 0.07543099885674021 0
21 -0.2118230859029977 -0.09025590902389657 0
22 -0.03742062014235117 -0.03177034741958226 0
23 -0.06694455032568702 0.1809369528339913 0
24 0.2128650900795678 0.09840906706939379 0
25 0.07724854960919265 -0.2059524436643316 0
26 0.07607952259091683 0.07966586307607221 0
27 -0.3169872971879638 -8.033210208147068e-11 0
28 -1.156285275860647e-09 -0.3169872973600166 0
29 0.3285843556393771 0.006590550691670305 0
30 5.637383337919744e-10 0.3169872989837394 0
$EndNodes
$Elements
58
1 1 2 20 11 1 5
2 1 2 20 11 5 6
3 1 2 20 11 6 7
4 1 2 20 11 7 2
5 1 2 20 12 2 8
6 1 2 20 12 8 9
7 1 2 20 12 9 10
8 1 2 20 12 10 3
9 1 2 20 13 3 11
10 1 2 20 13 11 12
11 1 2 20 13 12 13
12 1 2 20 13 13 4
13 1 2 20 14 4 14
14 1 2 20 14 14 15
15 1 2 20 14 15 16
16 1 2 20 14 16 1
17 2 2 2 2 22 25 19
18 2 2 2 2 22 23 20
19 2 2 2 2 19 26 22
20 2 2 2 2 22 26 23
21 2 2 2 2 17 25 22
22 2 2 2 2 21 22 20
23 2 2 2 2 23 26 18
24 2 2 2 2 7 17 6
25 2 2 2 2 10 19 9
26 2 2 2 2 16 20 15
27 2 2 2 2 13 18 12
28 2 2 2 2 24 26 19
29 2 2 2 2 12 24 11
30 2 2 2 2 6 21 5
31 2 2 2 2 15 23 14
32 2 2 2 2 9 25 8
33 2 2 2 2 17 22 21
34 2 2 2 2 17 21 6
35 2 2 2 2 19 25 9
36 2 2 2 2 20 23 15
37 2 2 2 2 18 24 12
38 2 2 2 2 8 28 2
39 2 2 2 2 1 27 16
40 2 2 2 2 5 27 1
41 2 2 2 2 2 28 7
42 2 2 2 2 11 29 3
43 2 2 2 2 3 29 10
44 2 2 2 2 14 30 4
45 2 2 2 2 4 30 13
46 2 2 2 2 24 29 11
47 2 2 2 2 21 27 5
48 2 2 2 2 23 30 14
49 2 2 2 2 25 28 8
50 2 2 2 2 16 27 20
51 2 2 2 2 7 28 17
52 2 2 2 2 10 29 19
53 2 2 2 2 13 30 18
54 2 2 2 2 18 30 23
55 2 2 2 2 19 29 24
56 2 2 2 2 20 27 21
57 2 2 2 2 17 28 25
58 2 2 2 2 18 26 24
$EndElements
