$MeshFormat
2.2 0 8
$EndMeshFormat
$Nodes
216
1 0.75 0.5 0
2 0.5 0.625 0
3 0.25 0.5 0
4 0.5 0.375 0
5 0.85 0.5 0
6 0.5 0.7 0
7 0.15 0.5 0
8 0.5 0.3 0
9 0.7430776431520629 0.5292115533635168 0
10 0.7256456995618559 0.5538145386239646 0
11 0.7025281824920887 0.5732842672346037 0
12 0.676420906346086 0.5885658848033846 0
13 0.6486179744463727 0.6005145482896099 0
14 0.6197842932049799 0.609717504416323 0
15 0.5902988266702307 0.6165612734809247 0
16 0.5604008753906635 0.6212968819179223 0
17 0.5302577795947366 0.6240810891856575 0
18 0.4697422204052634 0.6240810891856575 0
19 0.4395991246093365 0.6212968819179223 0
20 0.4097011733297694 0.6165612734809247 0
21 0.3802157067950202 0.609717504416323 0
22 0.3513820255536273 0.6005145482896099 0
23 0.323579093653914 0.5885658848033846 0
24 0.2974718175079114 0.5732842672346037 0
25 0.2743543004381441 0.5538145386239645 0
26 0.2569223568479371 0.5292115533635168 0
27 0.256922356847937 0.4707884466364833 0
28 0.274354300438144 0.4461854613760356 0
29 0.2974718175079111 0.4267157327653965 0
30 0.3235790936539139 0.4114341151966155 0
31 0.351382025553627 0.3994854517103902 0
32 0.38021570679502 0.390282495583677 0
33 0.4097011733297692 0.3834387265190753 0
34 0.4395991246093363 0.3787031180820777 0
35 0.4697422204052634 0.3759189108143425 0
36 0.5302577795947365 0.3759189108143425 0
37 0.5604008753906636 0.3787031180820777 0
38 0.5902988266702305 0.3834387265190753 0
39 0.6197842932049801 0.3902824955836771 0
40 0.6486179744463729 0.3994854517103902 0
41 0.6764209063460862 0.4114341151966155 0
42 0.702528182492089 0.4267157327653966 0
43 0.7256456995618561 0.4461854613760357 0
44 0.743077643152063 0.4707884466364834 0
45 0.8462951657865713 0.5290230487032809 0
46 0.8358165111197711 0.5563582443762558 0
47 0.8199990971270699 0.5810151466571079 0
48 0.8003071655054855 0.6027230973308553 0
49 0.7778760150993311 0.6216014503572425 0
50 0.7534993486164716 0.6379003843371531 0
51 0.7277185521936638 0.6518799321556841 0
52 0.7009067965913446 0.6637683372087899 0
53 0.673328022677151 0.6737531878948344 0
54 0.6451749282028226 0.6819838433925837 0
55 0.6165932468196922 0.6885766361151444 0
56 0.5876974520989905 0.6936199997220267 0
57 0.5585812210014036 0.6971786638670705 0
58 0.5293247223594101 0.6992967723781314 0
59 0.4706752776405903 0.6992967723781314 0
60 0.4414187789985966 0.6971786638670705 0
61 0.4123025479010096 0.6936199997220267 0
62 0.3834067531803079 0.6885766361151444 0
63 0.3548250717971771 0.6819838433925836 0
64 0.3266719773228493 0.6737531878948345 0
65 0.2990932034086558 0.6637683372087901 0
66 0.2722814478063365 0.6518799321556843 0
67 0.2465006513835286 0.6379003843371532 0
68 0.2221239849006687 0.6216014503572423 0
69 0.1996928344945143 0.6027230973308552 0
70 0.18000090287293 0.5810151466571076 0
71 0.1641834888802288 0.5563582443762555 0
72 0.1537048342134288 0.5290230487032811 0
73 0.1537048342134287 0.4709769512967192 0
74 0.1641834888802289 0.4436417556237443 0
75 0.1800009028729301 0.4189848533428922 0
76 0.1996928344945144 0.3972769026691448 0
77 0.2221239849006689 0.3783985496427575 0
78 0.2465006513835283 0.3620996156628469 0
79 0.2722814478063361 0.3481200678443159 0
80 0.2990932034086556 0.33623166279121 0
81 0.326671977322849 0.3262468121051656 0
82 0.3548250717971769 0.3180161566074164 0
83 0.3834067531803081 0.3114233638848554 0
84 0.4123025479010097 0.3063800002779732 0
85 0.4414187789985965 0.3028213361329295 0
86 0.4706752776405904 0.3007032276218685 0
87 0.5293247223594097 0.3007032276218685 0
88 0.5585812210014034 0.3028213361329295 0
89 0.5876974520989905 0.3063800002779732 0
90 0.6165932468196921 0.3114233638848555 0
91 0.645174928202823 0.3180161566074164 0
92 0.673328022677151 0.3262468121051655 0
93 0.7009067965913442 0.3362316627912099 0
94 0.7277185521936635 0.3481200678443157 0
95 0.7534993486164717 0.3620996156628469 0
96 0.7778760150993314 0.3783985496427577 0
97 0.8003071655054856 0.3972769026691448 0
98 0.8199990971270701 0.4189848533428925 0
99 0.8358165111197713 0.4436417556237447 0
100 0.8462951657865714 0.4709769512967195 0
101 0.8171745392475609 0.4653153447449556 0
102 0.1828242323791681 0.5346923820043195 0
103 0.8171757676208318 0.5346923820043193 0
104 0.1828254607524393 0.4653153447449555 0
105 0.2086418324249075 0.4251803520159796 0
106 0.7913581675750925 0.5748196479840204 0
107 0.2086418324249075 0.5748196479840202 0
108 0.7913581675750925 0.4251803520159799 0
109 0.7534321642437376 0.3919498191484466 0
110 0.2465678357562625 0.3919498191484466 0
111 0.7534321642437374 0.6080501808515535 0
112 0.2465678357562625 0.6080501808515534 0
113 0.2978919610623992 0.3971294456986544 0
114 0.7021080389376007 0.6028705543013457 0
115 0.2978919610623993 0.6028705543013457 0
116 0.7021080389376009 0.3971294456986543 0
117 0.6784704803435049 0.3551225898847661 0
118 0.3215295196564953 0.6448774101152338 0
119 0.321529519656495 0.3551225898847663 0
120 0.678470480343505 0.6448774101152337 0
121 0.5117631680804924 0.3253708396572019 0
122 0.5117631680804926 0.6746291603427981 0
123 0.3739699338998391 0.6603428015767847 0
124 0.626030066100161 0.3396571984232155 0
125 0.6260300661001609 0.6603428015767846 0
126 0.3739699338998391 0.3396571984232156 0
127 0.4593326943480154 0.6732831120690077 0
128 0.4593326943480155 0.3267168879309922 0
129 0.5692447884628503 0.3292852288995861 0
130 0.5692447884628504 0.670714771100414 0
131 0.4205227996877711 0.3568107848758066 0
132 0.4205227996877712 0.6431892151241935 0
133 0.7701770963641468 0.4773792846211842 0
134 0.2298229036358531 0.5226207153788159 0
135 0.7701770963641468 0.5226207153788159 0
136 0.2298229036358531 0.4773792846211841 0
137 0.1949576468258912 0.5000356196960167 0
138 0.8050423531741087 0.5000356196960167 0
139 0.7563349249621498 0.4434731761690133 0
140 0.2436650750378502 0.4434731761690131 0
141 0.7563349249621498 0.5565268238309871 0
142 0.2436650750378502 0.5565268238309871 0
143 0.6421704707188384 0.6300846686586405 0
144 0.6421704707188387 0.3699153313413595 0
145 0.3578295292811616 0.6300846686586405 0
146 0.3578295292811613 0.3699153313413595 0
147 0.4844156843052077 0.651370162523917 0
148 0.4844156843052076 0.3486298374760829 0
149 0.2670985419705156 0.4147805590784277 0
150 0.7329014580294845 0.4147805590784277 0
151 0.7329014580294843 0.5852194409215724 0
152 0.2670985419705156 0.5852194409215724 0
153 0.5495299457372215 0.3530634548050197 0
154 0.5495299457372216 0.6469365451949803 0
155 0.2134171828436804 0.4538807947723429 0
156 0.786582921609829 0.54611986226416 0
157 0.7865828171563196 0.4538807947723431 0
158 0.213417078390171 0.5461198622641601 0
159 0.4313466146373032 0.3299023109598151 0
160 0.4313466146373032 0.6700976890401849 0
161 0.6721352587056553 0.3830850683294907 0
162 0.3278647412943451 0.6169149316705093 0
163 0.3278647412943448 0.3830850683294908 0
164 0.6721352587056549 0.6169149316705093 0
165 0.235572893879838 0.4165487146023508 0
166 0.7644271061201621 0.416548714602351 0
167 0.764427106120162 0.5834512853976492 0
168 0.2355728938798379 0.5834512853976492 0
169 0.5796587381271642 0.3567546715660003 0
170 0.5796587381271643 0.6432453284339997 0
171 0.5981599324661023 0.6665016808351978 0
172 0.4019057938021876 0.333555563669057 0
173 0.4019057938021875 0.6664444363309431 0
174 0.5981599324661023 0.3334983191648023 0
175 0.3895595120548057 0.636399950429968 0
176 0.6104404879451943 0.6363999504299679 0
177 0.6104404879451943 0.3636000495700322 0
178 0.3895595120548055 0.3636000495700322 0
179 0.7011955361100941 0.6331416002770777 0
180 0.298804463889906 0.6331416002770778 0
181 0.2988044638899058 0.3668583997229224 0
182 0.7011955361100941 0.3668583997229223 0
183 0.3469652063915042 0.3417916176723847 0
184 0.6530347936084957 0.3417916176723846 0
185 0.3469652063915045 0.6582083823276155 0
186 0.6530347936084956 0.6582083823276154 0
187 0.7271819265213025 0.3807956219881641 0
188 0.2728180734786976 0.6192043780118358 0
189 0.2728180734786975 0.3807956219881644 0
190 0.7271819265213023 0.6192043780118357 0
191 0.4525403714452509 0.3542474050209785 0
192 0.4525403714452511 0.6457525949790215 0
193 0.5390430703865953 0.6726457781255467 0
194 0.539043070386595 0.3273542218744533 0
195 0.5158145766781931 0.6471187558698861 0
196 0.515814576678193 0.3528812441301138 0
197 0.4852373648748612 0.3202841585372291 0
198 0.4852373648748612 0.6797158414627709 0
199 0.8101864930105188 0.5586010566571726 0
200 0.1898137735548373 0.4414006200999829 0
201 0.8101862264451629 0.4414006200999832 0
202 0.1898135069894811 0.5586010566571725 0
203 0.8252297686894876 0.4875969020418786 0
204 0.1747702313105123 0.4875969020418786 0
205 0.8259531791271338 0.5123771383920169 0
206 0.174046820872866 0.5123771383920169 0
207 0.7960006931754807 0.4778164816619208 0
208 0.2039552869469423 0.5221867777897136 0
209 0.7960447130530575 0.5221867777897138 0
210 0.2039993068245193 0.4778164816619208 0
211 0.7787326495797547 0.599853840101259 0
212 0.2212673504202453 0.4001461598987411 0
213 0.7787326495797546 0.4001461598987411 0
214 0.2212673504202454 0.599853840101259 0
215 0.7765333567197145 0.5000000000000002 0
216 0.2234666432802851 0.5 0
$EndNodes
$Elements
332
1 2 2 30 30 114 179 164
2 2 2 30 30 161 182 116
3 2 2 30 30 113 181 163
4 2 2 30 30 162 180 115
5 2 2 30 30 140 155 105
6 2 2 30 30 107 158 142
7 2 2 30 30 108 157 139
8 2 2 30 30 141 156 106
9 2 2 30 30 105 165 140
10 2 2 30 30 139 166 108
11 2 2 30 30 142 168 107
12 2 2 30 30 106 167 141
13 2 2 30 30 143 164 120
14 2 2 30 30 146 163 119
15 2 2 30 30 118 162 145
16 2 2 30 30 117 161 144
17 2 2 30 30 136 140 27
18 2 2 30 30 26 142 134
19 2 2 30 30 44 139 133
20 2 2 30 30 135 141 9
21 2 2 30 30 136 155 140
22 2 2 30 30 142 158 134
23 2 2 30 30 139 157 133
24 2 2 30 30 135 156 141
25 2 2 30 30 120 186 143
26 2 2 30 30 119 183 146
27 2 2 30 30 144 184 117
28 2 2 30 30 145 185 118
29 2 2 30 30 153 196 194
30 2 2 30 30 193 195 154
31 2 2 30 30 122 195 193
32 2 2 30 30 194 196 121
33 2 2 30 30 147 195 122
34 2 2 30 30 121 196 148
35 2 2 30 30 140 165 149
36 2 2 30 30 152 168 142
37 2 2 30 30 150 166 139
38 2 2 30 30 141 167 151
39 2 2 30 30 164 179 120
40 2 2 30 30 163 181 119
41 2 2 30 30 117 182 161
42 2 2 30 30 118 180 162
43 2 2 30 30 122 198 147
44 2 2 30 30 148 197 121
45 2 2 30 30 116 187 150
46 2 2 30 30 115 188 152
47 2 2 30 30 151 190 114
48 2 2 30 30 149 189 113
49 2 2 30 30 79 189 78
50 2 2 30 30 51 190 50
51 2 2 30 30 67 188 66
52 2 2 30 30 95 187 94
53 2 2 30 30 141 151 10
54 2 2 30 30 43 150 139
55 2 2 30 30 25 152 142
56 2 2 30 30 140 149 28
57 2 2 30 30 158 202 102
58 2 2 30 30 157 201 101
59 2 2 30 30 103 199 156
60 2 2 30 30 104 200 155
61 2 2 30 30 102 208 158
62 2 2 30 30 101 207 157
63 2 2 30 30 155 210 104
64 2 2 30 30 156 209 103
65 2 2 30 30 150 187 109
66 2 2 30 30 110 189 149
67 2 2 30 30 111 190 151
68 2 2 30 30 152 188 112
69 2 2 30 30 170 176 171
70 2 2 30 30 174 177 169
71 2 2 30 30 145 175 123
72 2 2 30 30 125 176 143
73 2 2 30 30 144 177 124
74 2 2 30 30 126 178 146
75 2 2 30 30 205 209 138
76 2 2 30 30 137 208 206
77 2 2 30 30 138 207 203
78 2 2 30 30 204 210 137
79 2 2 30 30 159 191 131
80 2 2 30 30 132 192 160
81 2 2 30 30 131 178 172
82 2 2 30 30 173 175 132
83 2 2 30 30 149 165 110
84 2 2 30 30 109 166 150
85 2 2 30 30 151 167 111
86 2 2 30 30 112 168 152
87 2 2 30 30 29 149 113
88 2 2 30 30 116 150 42
89 2 2 30 30 115 152 24
90 2 2 30 30 11 151 114
91 2 2 30 30 127 192 147
92 2 2 30 30 148 191 128
93 2 2 30 30 203 205 138
94 2 2 30 30 137 206 204
95 2 2 30 30 123 185 145
96 2 2 30 30 143 186 125
97 2 2 30 30 124 184 144
98 2 2 30 30 146 183 126
99 2 2 30 30 78 189 110
100 2 2 30 30 50 190 111
101 2 2 30 30 109 187 95
102 2 2 30 30 112 188 67
103 2 2 30 30 203 207 101
104 2 2 30 30 104 210 204
105 2 2 30 30 103 209 205
106 2 2 30 30 206 208 102
107 2 2 30 30 160 192 127
108 2 2 30 30 128 191 159
109 2 2 30 30 113 163 30
110 2 2 30 30 41 161 116
111 2 2 30 30 23 162 115
112 2 2 30 30 114 164 12
113 2 2 30 30 128 197 148
114 2 2 30 30 147 198 127
115 2 2 30 30 129 169 153
116 2 2 30 30 154 170 130
117 2 2 30 30 144 161 40
118 2 2 30 30 31 163 146
119 2 2 30 30 13 164 143
120 2 2 30 30 145 162 22
121 2 2 30 30 123 175 173
122 2 2 30 30 172 178 126
123 2 2 30 30 171 176 125
124 2 2 30 30 124 177 174
125 2 2 30 30 181 189 79
126 2 2 30 30 179 190 51
127 2 2 30 30 66 188 180
128 2 2 30 30 94 187 182
129 2 2 30 30 39 177 144
130 2 2 30 30 21 175 145
131 2 2 30 30 143 176 14
132 2 2 30 30 146 178 32
133 2 2 30 30 153 169 37
134 2 2 30 30 16 170 154
135 2 2 30 30 132 175 20
136 2 2 30 30 33 178 131
137 2 2 30 30 35 148 4
138 2 2 30 30 2 147 18
139 2 2 30 30 31 146 32
140 2 2 30 30 21 145 22
141 2 2 30 30 13 143 14
142 2 2 30 30 39 144 40
143 2 2 30 30 10 151 11
144 2 2 30 30 28 149 29
145 2 2 30 30 24 152 25
146 2 2 30 30 42 150 43
147 2 2 30 30 36 153 37
148 2 2 30 30 16 154 17
149 2 2 30 30 19 132 20
150 2 2 30 30 33 131 34
151 2 2 30 30 43 139 44
152 2 2 30 30 25 142 26
153 2 2 30 30 27 140 28
154 2 2 30 30 9 141 10
155 2 2 30 30 41 116 42
156 2 2 30 30 29 113 30
157 2 2 30 30 11 114 12
158 2 2 30 30 23 115 24
159 2 2 30 30 131 191 34
160 2 2 30 30 19 192 132
161 2 2 30 30 44 133 1
162 2 2 30 30 1 135 9
163 2 2 30 30 26 134 3
164 2 2 30 30 3 136 27
165 2 2 30 30 182 187 116
166 2 2 30 30 113 189 181
167 2 2 30 30 114 190 179
168 2 2 30 30 180 188 115
169 2 2 30 30 147 192 18
170 2 2 30 30 35 191 148
171 2 2 30 30 74 104 73
172 2 2 30 30 100 101 99
173 2 2 30 30 46 103 45
174 2 2 30 30 72 102 71
175 2 2 30 30 70 107 69
176 2 2 30 30 98 108 97
177 2 2 30 30 76 105 75
178 2 2 30 30 48 106 47
179 2 2 30 30 36 196 153
180 2 2 30 30 154 195 17
181 2 2 30 30 2 195 147
182 2 2 30 30 148 196 4
183 2 2 30 30 96 109 95
184 2 2 30 30 68 112 67
185 2 2 30 30 50 111 49
186 2 2 30 30 78 110 77
187 2 2 30 30 65 118 64
188 2 2 30 30 93 117 92
189 2 2 30 30 53 120 52
190 2 2 30 30 81 119 80
191 2 2 30 30 91 124 90
192 2 2 30 30 83 126 82
193 2 2 30 30 63 123 62
194 2 2 30 30 55 125 54
195 2 2 30 30 89 129 88
196 2 2 30 30 57 130 56
197 2 2 30 30 86 128 85
198 2 2 30 30 60 127 59
199 2 2 30 30 6 122 58
200 2 2 30 30 87 121 8
201 2 2 30 30 15 176 170
202 2 2 30 30 169 177 38
203 2 2 30 30 129 174 169
204 2 2 30 30 170 171 130
205 2 2 30 30 130 193 154
206 2 2 30 30 153 194 129
207 2 2 30 30 61 160 60
208 2 2 30 30 85 159 84
209 2 2 30 30 40 161 41
210 2 2 30 30 22 162 23
211 2 2 30 30 12 164 13
212 2 2 30 30 30 163 31
213 2 2 30 30 15 170 16
214 2 2 30 30 37 169 38
215 2 2 30 30 84 172 83
216 2 2 30 30 62 173 61
217 2 2 30 30 56 171 55
218 2 2 30 30 90 174 89
219 2 2 30 30 60 160 127
220 2 2 30 30 128 159 85
221 2 2 30 30 89 174 129
222 2 2 30 30 130 171 56
223 2 2 30 30 123 173 62
224 2 2 30 30 83 172 126
225 2 2 30 30 55 171 125
226 2 2 30 30 124 174 90
227 2 2 30 30 160 173 132
228 2 2 30 30 131 172 159
229 2 2 30 30 20 175 21
230 2 2 30 30 38 177 39
231 2 2 30 30 14 176 15
232 2 2 30 30 32 178 33
233 2 2 30 30 66 180 65
234 2 2 30 30 80 181 79
235 2 2 30 30 52 179 51
236 2 2 30 30 94 182 93
237 2 2 30 30 126 183 82
238 2 2 30 30 91 184 124
239 2 2 30 30 125 186 54
240 2 2 30 30 63 185 123
241 2 2 30 30 122 193 58
242 2 2 30 30 87 194 121
243 2 2 30 30 57 193 130
244 2 2 30 30 129 194 88
245 2 2 30 30 81 183 119
246 2 2 30 30 117 184 92
247 2 2 30 30 118 185 64
248 2 2 30 30 53 186 120
249 2 2 30 30 65 180 118
250 2 2 30 30 120 179 52
251 2 2 30 30 119 181 80
252 2 2 30 30 93 182 117
253 2 2 30 30 92 184 91
254 2 2 30 30 82 183 81
255 2 2 30 30 64 185 63
256 2 2 30 30 54 186 53
257 2 2 30 30 6 198 122
258 2 2 30 30 121 197 8
259 2 2 30 30 86 197 128
260 2 2 30 30 127 198 59
261 2 2 30 30 159 172 84
262 2 2 30 30 61 173 160
263 2 2 30 30 58 193 57
264 2 2 30 30 88 194 87
265 2 2 30 30 34 191 35
266 2 2 30 30 18 192 19
267 2 2 30 30 155 200 105
268 2 2 30 30 107 202 158
269 2 2 30 30 156 199 106
270 2 2 30 30 108 201 157
271 2 2 30 30 59 198 6
272 2 2 30 30 8 197 86
273 2 2 30 30 17 195 2
274 2 2 30 30 4 196 36
275 2 2 30 30 71 202 70
276 2 2 30 30 99 201 98
277 2 2 30 30 75 200 74
278 2 2 30 30 47 199 46
279 2 2 30 30 111 211 49
280 2 2 30 30 68 214 112
281 2 2 30 30 110 212 77
282 2 2 30 30 96 213 109
283 2 2 30 30 101 201 99
284 2 2 30 30 102 202 71
285 2 2 30 30 74 200 104
286 2 2 30 30 46 199 103
287 2 2 30 30 105 200 75
288 2 2 30 30 106 199 47
289 2 2 30 30 98 201 108
290 2 2 30 30 70 202 107
291 2 2 30 30 107 214 69
292 2 2 30 30 76 212 105
293 2 2 30 30 108 213 97
294 2 2 30 30 48 211 106
295 2 2 30 30 165 212 110
296 2 2 30 30 167 211 111
297 2 2 30 30 112 214 168
298 2 2 30 30 109 213 166
299 2 2 30 30 5 203 100
300 2 2 30 30 73 204 7
301 2 2 30 30 45 205 5
302 2 2 30 30 7 206 72
303 2 2 30 30 100 203 101
304 2 2 30 30 104 204 73
305 2 2 30 30 157 207 133
306 2 2 30 30 136 210 155
307 2 2 30 30 158 208 134
308 2 2 30 30 135 209 156
309 2 2 30 30 103 205 45
310 2 2 30 30 72 206 102
311 2 2 30 30 105 212 165
312 2 2 30 30 168 214 107
313 2 2 30 30 106 211 167
314 2 2 30 30 166 213 108
315 2 2 30 30 138 215 207
316 2 2 30 30 137 216 208
317 2 2 30 30 209 215 138
318 2 2 30 30 210 216 137
319 2 2 30 30 134 216 3
320 2 2 30 30 3 216 136
321 2 2 30 30 1 215 135
322 2 2 30 30 133 215 1
323 2 2 30 30 207 215 133
324 2 2 30 30 135 215 209
325 2 2 30 30 208 216 134
326 2 2 30 30 136 216 210
327 2 2 30 30 49 211 48
328 2 2 30 30 77 212 76
329 2 2 30 30 69 214 68
330 2 2 30 30 97 213 96
331 2 2 30 30 5 205 203
332 2 2 30 30 204 206 7
$EndElements
