$MeshFormat
2.2 0 8
$EndMeshFormat
$Nodes
424
1 -1 0 0
2 0 -1 0
3 1 0 0
4 0 1 0
5 -0.9951847266505028 -0.0980171405498242 0
6 -0.9807852803042799 -0.1950903225135865 0
7 -0.9569403355030602 -0.290284678009864 0
8 -0.9238795320825525 -0.3826834334001459 0
9 -0.8819212636912651 -0.4713967380553263 0
10 -0.8314696113688922 -0.5555702344169128 0
11 -0.773010452085146 -0.6343932857203947 0
12 -0.7071067795742851 -0.7071067827988099 0
13 -0.6343932826478577 -0.7730104546067119 0
14 -0.5555702316253888 -0.8314696132341288 0
15 -0.4713967355228378 -0.8819212650449085 0
16 -0.3826834312324201 -0.9238795329804539 0
17 -0.2902846763687689 -0.956940336000881 0
18 -0.1950903214148947 -0.9807852805228232 0
19 -0.09801714003039919 -0.9951847267016617 0
20 0.0980171405498242 -0.9951847266505028 0
21 0.1950903225135865 -0.9807852803042799 0
22 0.290284678009864 -0.9569403355030602 0
23 0.3826834334001459 -0.9238795320825525 0
24 0.4713967380553263 -0.8819212636912651 0
25 0.5555702344169128 -0.8314696113688922 0
26 0.6343932857203947 -0.773010452085146 0
27 0.7071067827988099 -0.7071067795742851 0
28 0.7730104546067119 -0.6343932826478577 0
29 0.8314696132341288 -0.5555702316253888 0
30 0.8819212650449085 -0.4713967355228378 0
31 0.9238795329804539 -0.3826834312324201 0
32 0.956940336000881 -0.2902846763687689 0
33 0.9807852805228232 -0.1950903214148947 0
34 0.9951847267016617 -0.09801714003039919 0
35 0.9951847266505028 0.0980171405498242 0
36 0.9807852803042799 0.1950903225135865 0
37 0.9569403355030602 0.290284678009864 0
38 0.9238795320825525 0.3826834334001459 0
39 0.8819212636912651 0.4713967380553263 0
40 0.8314696113688922 0.5555702344169128 0
41 0.773010452085146 0.6343932857203947 0
42 0.7071067795742851 0.7071067827988099 0
43 0.6343932826478577 0.7730104546067119 0
44 0.5555702316253888 0.8314696132341288 0
45 0.4713967355228378 0.8819212650449085 0
46 0.3826834312324201 0.9238795329804539 0
47 0.2902846763687689 0.956940336000881 0
48 0.1950903214148947 0.9807852805228232 0
49 0.09801714003039919 0.9951847267016617 0
50 -0.0980171405498242 0.9951847266505028 0
51 -0.1950903225135865 0.9807852803042799 0
52 -0.290284678009864 0.9569403355030602 0
53 -0.3826834334001459 0.9238795320825525 0
54 -0.4713967380553263 0.8819212636912651 0
55 -0.5555702344169128 0.8314696113688922 0
56 -0.6343932857203947 0.773010452085146 0
57 -0.7071067827988099 0.7071067795742851 0
58 -0.7730104546067119 0.6343932826478577 0
59 -0.8314696132341288 0.5555702316253888 0
60 -0.8819212650449085 0.4713967355228378 0
61 -0.9238795329804539 0.3826834312324201 0
62 -0.956940336000881 0.2902846763687689 0
63 -0.9807852805228232 0.1950903214148947 0
64 -0.9951847267016617 0.09801714003039919 0
65 0.6773660027149442 -0.6129453659524944 0
66 -0.1222616806483714 -0.9023642839297031 0
67 -0.8988816099231405 0.1444136683927973 0
68 0.9051516924193428 -0.1258409085386185 0
69 0.134083444531354 0.9039171625071453 0
70 -0.6774552275456847 0.6192638665896203 0
71 0.6183183666843084 0.6747607567273518 0
72 -0.6772123401464422 -0.6127806992991969 0
73 0.7768483396819149 0.4534630828504577 0
74 -0.4713146009608431 0.786516335256866 0
75 0.4574479350943546 -0.7899704143290738 0
76 -0.8360066122379547 -0.3981394665453297 0
77 -0.4839026482474585 -0.781021488293973 0
78 0.8782092867911175 0.2350874796551768 0
79 -0.2220371723141028 0.8864220777539438 0
80 0.2245784887014906 -0.8765204636323914 0
81 0.8252235141854382 -0.4026496679742034 0
82 -0.8314677684479012 0.3907919319015899 0
83 0.397652770961208 0.8248277114193997 0
84 -0.8975125486822271 -0.1338005010534131 0
85 -0.319808793698578 -0.8775570496725427 0
86 0.9141090158472203 0.05937297070778866 0
87 -0.04483842123915566 0.9127070298282419 0
88 0.03619297584410713 -0.8983835824448066 0
89 -0.6112797210883087 -0.6824761974473454 0
90 -0.582599929286395 -0.5950550070424395 0
91 -0.6462760753540895 -0.5209814783721405 0
92 -0.5499899326022668 -0.5026164713213369 0
93 -0.614055972661377 -0.4283162279345143 0
94 -0.5176584620049755 -0.4099675000021512 0
95 -0.5817488293414174 -0.3356531423763452 0
96 -0.4848382807512212 -0.3169284601617591 0
97 -0.4210260927983884 -0.3914431936086167 0
98 -0.3889392454179548 -0.2989589175955599 0
99 -0.3248481885430846 -0.3732750107224282 0
100 -0.2924520254179415 -0.2805274045066316 0
101 -0.3564405238861738 -0.206120220659664 0
102 -0.2602199914673764 -0.1879499397400961 0
103 -0.196128928490338 -0.2622660366988731 0
104 -0.1638148320799225 -0.1696034995063235 0
105 -0.2279058950835849 -0.09528740253797247 0
106 -0.1314644892217833 -0.07691307624889371 0
107 -0.06740967270341186 -0.1512570592705808 0
108 -0.0350955763340341 -0.05859452208535787 0
109 -0.09918663932078439 0.01572157486487749 0
110 -0.002781479957942784 0.03406801509223281 0
111 0.06130958301952175 -0.04024808185538584 0
112 -0.06687254294544523 0.1083841120418237 0
113 0.09362367939086008 0.05241445530662325 0
114 0.1577147423567822 -0.02190164162887165 0
115 0.190028838726641 0.07076089551995815 0
116 0.2541199016993938 -0.003555201413770248 0
117 0.2218058053234426 -0.0962177385665321 0
118 0.2864339980728405 0.08910733574745097 0
119 0.2223429350922082 0.163423432696781 0
120 0.3505250610557699 0.01479123880398686 0
121 0.3187480944585243 0.1817698729255955 0
122 0.2546570314660894 0.2560859698893979 0
123 0.3510621908498468 0.2744324101193611 0
124 0.2869711278528773 0.3487485070704684 0
125 0.1905659684853412 0.3304020668517024 0
126 0.2228800648701697 0.4230646040317588 0
127 0.1264749054978863 0.4047181638135585 0
128 -0.5494362499666756 -0.2429901934301824 0
129 0.4151532538406323 0.2001163131506536 0
130 -0.1632140565584875 0.0900115998422833 0
131 -0.1309636059334447 0.1827002089982414 0
132 -0.2273687652948929 0.1643537687710486 0
133 -0.1949892331861128 0.2569487151016129 0
134 -0.2914598282719009 0.2386698657112737 0
135 -0.2591457319087197 0.331332402888077 0
136 -0.3555508912492715 0.3129859626356297 0
137 -0.3878649875856651 0.2203234254780448 0
138 -0.3232367949083778 0.4056484998158483 0
139 -0.2267533481207358 0.4238587618761096 0
140 0.15878900188523 0.4973807009992736 0
141 0.3833762872211636 0.3670949473058178 0
142 -0.4519560505708862 0.294639522383037 0
143 -0.4842701469012458 0.2019769852257988 0
144 -0.3571623061812246 -0.4659375386966781 0
145 -0.2607571427483741 -0.4475911219777116 0
146 -0.2930712614474051 -0.5402536512957237 0
147 -0.1966660976376066 -0.5219072343630565 0
148 0.2551941612650568 0.5157271412189383 0
149 -0.2909226985575956 0.498311037034713 0
150 -0.1945175391552404 0.5166574773001775 0
151 -0.2586086021981187 0.5909735742804597 0
152 -0.1622034427687453 0.6093200145521636 0
153 -0.3871293502264765 0.4795470851833368 0
154 0.1911030982761036 0.5900432381868613 0
155 -0.4201790839118188 0.1276608883155021 0
156 -0.5165842432447761 0.1093144480596962 0
157 -0.5806753062430483 0.1836305449783517 0
158 -0.6129894025893011 0.0909680078037152 0
159 -0.6458410979688967 -0.2613381217313843 0
160 -0.2289802164036493 -0.6145697637801277 0
161 -0.1325750525474268 -0.5962233468305537 0
162 -0.100260933767252 -0.5035608173781696 0
163 -0.0361698886666052 -0.5778769298710088 0
164 -0.003855769887025129 -0.4852144004118152 0
165 0.06017266398888119 -0.5592740613601505 0
166 0.09250910522113592 -0.4666878192474765 0
167 0.1566404390869653 -0.5411840959388179 0
168 0.1889545578637491 -0.4485215664871476 0
169 0.252936178515239 -0.5226235923683529 0
170 0.2853597217250147 -0.4301751495325709 0
171 0.3494507668001774 -0.5044912620050694 0
172 0.3817648855524098 -0.4118287325974976 0
173 0.1248635127728333 -0.3742054540193817 0
174 0.2207314841829263 -0.6155002084277412 0
175 0.4458559306084703 -0.4861448450368445 0
176 0.4775882565566461 -0.3932360568755622 0
177 0.4138577394877248 -0.3190223180301831 0
178 0.5102670525216899 -0.3007156422713327 0
179 0.02792115643578691 -0.6521930423730349 0
180 -0.6135284504657954 -0.1686750865902052 0
181 0.4462237319459855 -0.2264284190658631 0
182 0.5427982868696707 -0.2081572569171555 0
183 -0.4524931802441409 0.03499835113871308 0
184 -0.0345584465615765 0.2010466492263458 0
185 0.06238384249812273 0.4790342607874605 0
186 0.5745752131430307 -0.3751358987173392 0
187 0.2875082576559173 0.6083896784077504 0
188 0.2234171946660078 0.6827057753745411 0
189 0.1270120352732744 0.6643593351605371 0
190 -0.6770804656041884 0.1652841047326901 0
191 -0.709394561960944 0.0726215675299591 0
192 -0.6447663692454637 0.2579466419186289 0
193 -0.1648891713256933 -0.6888858762771061 0
194 0.4133758398050742 -0.5785661703359499 0
195 -0.3253853802489808 -0.6329161807021686 0
196 -0.5171235752629134 -0.1503271622783702 0
197 0.4787072418439781 -0.1338411444792501 0
198 0.57511240564681 -0.1154947275437227 0
199 0.6392034506890946 -0.1898108399974215 0
200 0.6715175694679014 -0.09714831060494561 0
201 0.6074265244159945 -0.0228321981284797 0
202 0.7038316882659076 -0.004485781189007776 0
203 0.6397406431997439 0.06983033130807217 0
204 0.3499879592882892 -0.2448500907875944 0
205 -0.06794681498757571 -0.410898287932963 0
206 0.5433354793392571 0.05148391435660427 0
207 0.5756495981212859 0.1441464437905732 0
208 0.6720547619856712 0.1624928607465331 0
209 0.6079637168984277 0.2368089732456282 0
210 0.7043688807834738 0.2551553902025154 0
211 0.6402778357003853 0.3294715027219809 0
212 0.3515993206312332 0.534073581443362 0
213 0.3839134170295397 0.6267361186353069 0
214 0.4477186589386684 0.5520584104576343 0
215 0.03006974610456409 0.3863717235906562 0
216 -0.259408573815796 0.07132692528273851 0
217 -0.2262945058306101 0.6836361115531069 0
218 -0.1297551263940929 0.7015286101217099 0
219 -0.06574444069528462 0.6273450321146389 0
220 -0.03348418691341332 0.7203289921068512 0
221 -0.7099333223133928 -0.1870230285816607 0
222 -0.32269966529292 0.6652896712788197 0
223 -0.7373916615958982 0.239035305659114 0
224 0.7356086145235518 -0.1714644230688187 0
225 0.7027016005492199 -0.2638632456024952 0
226 0.5094725476555378 -0.5600252028569218 0
227 0.7984485477650229 -0.2437370295236152 0
228 -0.4868360211810906 -0.5770919041090716 0
229 -0.6776206705230745 -0.0943599880271517 0
230 0.5438726718146508 0.3111250857599904 0
231 0.5767054527636223 0.4061726444049349 0
232 -0.03402131689869284 0.4606878205702513 0
233 -0.06630305550064533 0.3679126915962608 0
234 -0.09350804803975621 0.7944445853700201 0
235 -0.2958161780167701 0.7672524134969646 0
236 0.1573632011918518 0.7527722094115392 0
237 0.2473556817562515 0.7820273957883043 0
238 -0.706332623475538 0.3315611781121433 0
239 -0.6113109585442233 0.3501748633157508 0
240 -0.6720374580890306 0.4230163984200798 0
241 -0.5786123331611174 0.4423085261311668 0
242 0.4754484114717981 0.6401740737524323 0
243 0.5381983776029381 0.5654194379803331 0
244 -0.7422459698467425 -0.2796860706185865 0
245 -0.7740255438884287 -0.112707930865468 0
246 0.7464897226512288 0.3546976153539578 0
247 0.4758081521348726 -0.6476754268596615 0
248 0.3804193836815962 -0.6655266695169608 0
249 0.7857397866199739 0.1855799742471556 0
250 -0.7051336170408665 -0.4446000593943981 0
251 -0.3871216895957478 0.8264801327649398 0
252 -0.02096212122836363 0.8069342470653066 0
253 0.4143881361121172 0.7245518711707151 0
254 0.833298253499612 0.3868096765796823 0
255 0.6796113341665015 0.436521541641106 0
256 0.708315699413078 0.535992408182232 0
257 -0.5091663360228231 -0.6782691567995109 0
258 0.5722835521405775 -0.6292607066625157 0
259 0.3134816555235115 0.8585107327587976 0
260 -0.4185828375837665 -0.6509700205062787 0
261 0.5314502301932318 0.7247043918216145 0
262 0.6062550753646057 -0.5392243662112575 0
263 0.70004649646234 -0.5112353736540503 0
264 -0.6485609870355669 0.5274252081299571 0
265 -0.5448927044334364 0.5352971376951556 0
266 -0.7406343988334179 0.4992413729208514 0
267 -0.7360944505802185 -0.5399642383704308 0
268 -0.4534609324309362 -0.4843259282264646 0
269 -0.3896838534679798 -0.5584193231174958 0
270 -0.3523575357687209 -0.7224838106050052 0
271 -0.6733675075515388 -0.3516516640760062 0
272 -0.7411979869120028 -0.0202049795182265 0
273 -0.8386642235394141 -0.03473513677128534 0
274 -0.9344558318399931 -0.02387463790541798 0
275 -0.8127251826267711 -0.2102162060417188 0
276 -0.8437698421420941 -0.3057398448035605 0
277 -0.8054749671260545 0.05253553458599802 0
278 -0.7679233343171817 0.1440405636547904 0
279 -0.8293170939949465 0.2120678218163389 0
280 -0.8816013213988116 0.06189072683669419 0
281 -0.6453063874431214 -0.001698702658597562 0
282 -0.5499720779938209 0.01706543613652217 0
283 -0.4855355415936574 -0.05751765521754798 0
284 -0.3888381394231857 -0.03999293459397824 0
285 -0.581676224598028 -0.07573848596859792 0
286 -0.3556896713943237 0.05313648591421741 0
287 -0.452853546735713 -0.22435808422638 0
288 0.5103179799062363 0.4769866540552271 0
289 0.4797816267624018 0.385441198250533 0
290 0.4148473795600097 0.4589075145474416 0
291 0.4474675079959786 0.2927786688607941 0
292 0.479540328591938 0.1256168878947143 0
293 0.3828391574586864 0.107453775953304 0
294 0.4468547063142346 0.03356617557107883 0
295 0.4145337896918206 -0.05931916190492162 0
296 0.3182109646760883 -0.07787129836166642 0
297 0.3823020780475932 -0.1521875614130525 0
298 0.5111296899029327 -0.04123149428042444 0
299 0.2859970272973821 -0.1705320795664526 0
300 0.189698890897678 -0.1889804711727039 0
301 0.125400645989713 -0.1145641787757259 0
302 0.09334081371525321 -0.2074273515713124 0
303 0.02903579932420711 -0.13326114959899 0
304 -0.003070082379613537 -0.2258931860083846 0
305 -0.09961853995233674 -0.2440095842747409 0
306 -0.1319986862946473 -0.3363756597130639 0
307 -0.03572401291916313 -0.3183770959392701 0
308 -0.1642822061359849 -0.4291196623012791 0
309 -0.2284808152960226 -0.3547594790698313 0
310 0.0284183436574596 -0.3924327563106709 0
311 0.06109731839919555 -0.2999886313373404 0
312 -0.3243110544644126 -0.1136338427728512 0
313 0.5115584325910663 0.2184624919508071 0
314 0.2213287049291289 -0.356174468490676 0
315 0.2536752891677428 -0.2631155208943313 0
316 0.541916510219369 -0.4677996620529656 0
317 0.3154379754003017 0.6989263625443093 0
318 0.3187967952584483 0.4406672404189261 0
319 -0.5155509907283348 0.3685180705996816 0
320 -0.4194744087517827 0.3871181674763512 0
321 -0.483609364977815 0.4609125955464616 0
322 0.6064719039051533 -0.2822568682632012 0
323 0.6690417057042968 -0.3559014668983904 0
324 -0.2602928995078996 -0.7048946340217571 0
325 -0.1972032901586809 -0.7815484056979015 0
326 -0.1020404343244817 -0.7586859219057198 0
327 -0.06881860426524461 -0.6685347882860921 0
328 0.1582784946329856 0.2377624892579516 0
329 0.1259312075304188 0.1451115316309858 0
330 0.06184584839115917 0.2193769936197234 0
331 0.02951445974717193 0.1267463253015729 0
332 -0.1953161417571706 -0.0026829177238471 0
333 0.3176738405280701 -0.3375126201470651 0
334 -0.5475999790475172 0.2759768353565289 0
335 0.09416080910246208 0.3120556266160955 0
336 0.3167691778830103 -0.595467879615643 0
337 -0.3549143901192656 0.5723565902484596 0
338 -0.4181811418279926 0.6427592203295904 0
339 -0.4519659353833592 0.5538097438639404 0
340 0.05747243477032205 0.7532974222708505 0
341 -0.3236445652928048 0.1459397272502752 0
342 0.1238179901014877 -0.633385920066188 0
343 0.09198343783637547 -0.7263494024252986 0
344 -0.004725640460842367 -0.7435884815791952 0
345 -0.04628166525513649 -0.8373993263409044 0
346 0.05853698585189748 -0.8167192834139746 0
347 0.1574795967835277 -0.7995560051319694 0
348 0.1884525805166216 -0.7085413116798552 0
349 0.2518317728230347 -0.7841980461004164 0
350 0.2842417249810533 -0.6876322165386468 0
351 0.3623941258178793 -0.761518439792882 0
352 0.3175524387248976 -0.8520256175996962 0
353 0.09474359438925473 0.5717361717931749 0
354 -0.001675797424355641 0.5533946801509706 0
355 0.02987699761590726 0.6463168760134 0
356 -0.09807651875109413 0.5348376125484207 0
357 -0.1304264761223147 0.4423413803276256 0
358 -0.1625206455115182 0.3496964075412017 0
359 -0.09864950954670421 0.2753627461851713 0
360 -0.002233089462545468 0.2936331309882788 0
361 -0.1937693819915283 0.7863535624136386 0
362 0.7400574019819303 0.09046943511697575 0
363 0.7995593614247193 0.01491366651629056 0
364 0.7673419653932134 -0.07862983138033972 0
365 0.8267879474677871 -0.1494289882707685 0
366 0.7958168066498128 0.2816125702342569 0
367 0.8376451385359224 0.07324254111315286 0
368 0.8497159878334122 -0.06049049834562462 0
369 0.1220186962333033 0.8294451990607153 0
370 -0.2915667638421453 -0.02116971485231203 0
371 -0.5218542004024758 0.6363432317753686 0
372 -0.4209326774457559 -0.1321704204525777 0
373 0.6082138368276752 0.4965470683133978 0
374 0.6362780397778847 -0.4456421435692625 0
375 0.157524452095052 -0.2818051036817367 0
376 -0.3955546636457008 0.7314190238063233 0
377 0.7296051104366632 -0.4203600944236187 0
378 0.763523439985201 -0.3320398534909221 0
379 0.5367940956222843 -0.7246278495606606 0
380 -0.8677635609100756 0.2965946214612968 0
381 0.8615119846111083 -0.3113026127057767 0
382 -0.02934185548143495 -0.9311316367630487 0
383 -0.143272733501575 0.8745295866782209 0
384 0.9170609997299434 -0.03538484550218646 0
385 0.04947509533155973 0.8753259419583085 0
386 0.1290439038735653 -0.8982611333388645 0
387 -0.6170110571422284 0.6827916602428868 0
388 0.6848113487976244 0.6223471280949027 0
389 -0.548761139172495 0.7391413188492713 0
390 0.8638724583674526 0.3183048998399924 0
391 -0.7927396225126473 -0.4751498458062088 0
392 -0.3067128980909836 0.8665282694952303 0
393 -0.8974657272075419 -0.2239407843665704 0
394 0.9193113649380928 0.1363669595152676 0
395 -0.5601322260977373 -0.7479481923066473 0
396 -0.3890608011884651 -0.8148978028737411 0
397 0.7882689348725102 -0.485016225900408 0
398 0.4743819275761652 0.7957779539560256 0
399 -0.8048750781720745 0.4617061028843509 0
400 0.8833303778349832 -0.2146271260303267 0
401 -0.2198719398366655 -0.8727613174585132 0
402 -0.2902091745644006 -0.7943210029705137 0
403 -0.8995087558376056 0.2243678049027053 0
404 0.2214879469583516 0.8971913256479186 0
405 0.3969774477598286 -0.8397416778489383 0
406 -0.6011995778484116 0.5998787615361828 0
407 -0.4728120353692336 0.7051382063671416 0
408 -0.7870496107533557 0.3124132733889849 0
409 0.6259581534636576 -0.6901959131309676 0
410 0.1747753862789562 0.8301639919553387 0
411 -0.7616160464314037 -0.3721358244797276 0
412 -0.7557727141119203 0.4032632253157545 0
413 0.6199937155048052 0.5814280290687466 0
414 0.3330583982183453 0.7771764775670756 0
415 -0.1351950901739485 -0.8301256088545867 0
416 0.442922858366036 -0.7171574109863658 0
417 -0.2538561965505509 0.8234340553320731 0
418 0.8665310907308565 0.008995911623475045 0
419 0.7570309463423113 -0.5622089817039526 0
420 -0.7361628119099751 0.5725752318046392 0
421 0.8091732914211667 0.3338426446031166 0
422 0.5521603360340834 0.6422452386051967 0
423 -0.4272452891592877 -0.7275377759750464 0
424 -0.8345251433148666 0.125776480113001 0
$EndNodes
$Elements
846
1 1 2 20 11 1 5
2 1 2 20 11 5 6
3 1 2 20 11 6 7
4 1 2 20 11 7 8
5 1 2 20 11 8 9
6 1 2 20 11 9 10
7 1 2 20 11 10 11
8 1 2 20 11 11 12
9 1 2 20 11 12 13
10 1 2 20 11 13 14
11 1 2 20 11 14 15
12 1 2 20 11 15 16
13 1 2 20 11 16 17
14 1 2 20 11 17 18
15 1 2 20 11 18 19
16 1 2 20 11 19 2
17 1 2 20 12 2 20
18 1 2 20 12 20 21
19 1 2 20 12 21 22
20 1 2 20 12 22 23
21 1 2 20 12 23 24
22 1 2 20 12 24 25
23 1 2 20 12 25 26
24 1 2 20 12 26 27
25 1 2 20 12 27 28
26 1 2 20 12 28 29
27 1 2 20 12 29 30
28 1 2 20 12 30 31
29 1 2 20 12 31 32
30 1 2 20 12 32 33
31 1 2 20 12 33 34
32 1 2 20 12 34 3
33 1 2 20 13 3 35
34 1 2 20 13 35 36
35 1 2 20 13 36 37
36 1 2 20 13 37 38
37 1 2 20 13 38 39
38 1 2 20 13 39 40
39 1 2 20 13 40 41
40 1 2 20 13 41 42
41 1 2 20 13 42 43
42 1 2 20 13 43 44
43 1 2 20 13 44 45
44 1 2 20 13 45 46
45 1 2 20 13 46 47
46 1 2 20 13 47 48
47 1 2 20 13 48 49
48 1 2 20 13 49 4
49 1 2 20 14 4 50
50 1 2 20 14 50 51
51 1 2 20 14 51 52
52 1 2 20 14 52 53
53 1 2 20 14 53 54
54 1 2 20 14 54 55
55 1 2 20 14 55 56
56 1 2 20 14 56 57
57 1 2 20 14 57 58
58 1 2 20 14 58 59
59 1 2 20 14 59 60
60 1 2 20 14 60 61
61 1 2 20 14 61 62
62 1 2 20 14 62 63
63 1 2 20 14 63 64
64 1 2 20 14 64 1
65 2 2 2 2 245 273 84
66 2 2 2 2 84 275 245
67 2 2 2 2 73 255 246
68 2 2 2 2 363 367 362
69 2 2 2 2 43 261 71
70 2 2 2 2 41 256 40
71 2 2 2 2 246 254 73
72 2 2 2 2 234 252 87
73 2 2 2 2 325 402 401
74 2 2 2 2 275 276 244
75 2 2 2 2 346 386 347
76 2 2 2 2 44 261 43
77 2 2 2 2 87 383 234
78 2 2 2 2 361 383 79
79 2 2 2 2 371 389 387
80 2 2 2 2 78 366 249
81 2 2 2 2 40 256 73
82 2 2 2 2 259 404 237
83 2 2 2 2 363 418 367
84 2 2 2 2 362 367 249
85 2 2 2 2 235 392 251
86 2 2 2 2 404 410 237
87 2 2 2 2 211 255 231
88 2 2 2 2 221 275 244
89 2 2 2 2 276 411 244
90 2 2 2 2 245 275 221
91 2 2 2 2 246 255 211
92 2 2 2 2 273 274 84
93 2 2 2 2 77 423 257
94 2 2 2 2 257 395 77
95 2 2 2 2 251 376 235
96 2 2 2 2 250 411 391
97 2 2 2 2 234 383 361
98 2 2 2 2 88 386 346
99 2 2 2 2 252 385 87
100 2 2 2 2 391 411 76
101 2 2 2 2 401 402 85
102 2 2 2 2 396 402 270
103 2 2 2 2 79 383 51
104 2 2 2 2 347 386 80
105 2 2 2 2 401 415 325
106 2 2 2 2 80 349 347
107 2 2 2 2 75 416 351
108 2 2 2 2 26 379 25
109 2 2 2 2 351 405 75
110 2 2 2 2 66 382 345
111 2 2 2 2 64 280 67
112 2 2 2 2 371 407 389
113 2 2 2 2 261 422 71
114 2 2 2 2 73 256 255
115 2 2 2 2 246 421 254
116 2 2 2 2 41 388 256
117 2 2 2 2 345 415 66
118 2 2 2 2 367 418 86
119 2 2 2 2 88 346 345
120 2 2 2 2 79 417 361
121 2 2 2 2 270 423 396
122 2 2 2 2 255 373 231
123 2 2 2 2 387 406 371
124 2 2 2 2 65 262 258
125 2 2 2 2 235 417 392
126 2 2 2 2 80 352 349
127 2 2 2 2 195 269 260
128 2 2 2 2 256 373 255
129 2 2 2 2 25 379 75
130 2 2 2 2 345 382 88
131 2 2 2 2 260 270 195
132 2 2 2 2 257 260 228
133 2 2 2 2 260 269 228
134 2 2 2 2 349 352 351
135 2 2 2 2 378 381 227
136 2 2 2 2 22 352 80
137 2 2 2 2 65 263 262
138 2 2 2 2 90 257 228
139 2 2 2 2 286 341 155
140 2 2 2 2 76 411 276
141 2 2 2 2 174 350 336
142 2 2 2 2 349 351 350
143 2 2 2 2 342 348 174
144 2 2 2 2 348 350 174
145 2 2 2 2 336 350 248
146 2 2 2 2 253 398 83
147 2 2 2 2 216 341 286
148 2 2 2 2 176 316 186
149 2 2 2 2 101 287 98
150 2 2 2 2 142 320 319
151 2 2 2 2 282 283 183
152 2 2 2 2 288 289 231
153 2 2 2 2 316 374 186
154 2 2 2 2 191 278 277
155 2 2 2 2 129 293 292
156 2 2 2 2 156 282 183
157 2 2 2 2 196 285 180
158 2 2 2 2 312 370 284
159 2 2 2 2 186 374 323
160 2 2 2 2 283 285 196
161 2 2 2 2 144 269 146
162 2 2 2 2 343 348 342
163 2 2 2 2 338 339 337
164 2 2 2 2 194 336 248
165 2 2 2 2 146 269 195
166 2 2 2 2 175 316 176
167 2 2 2 2 217 361 235
168 2 2 2 2 98 287 96
169 2 2 2 2 319 334 142
170 2 2 2 2 183 286 155
171 2 2 2 2 196 372 283
172 2 2 2 2 188 317 237
173 2 2 2 2 288 290 289
174 2 2 2 2 250 267 91
175 2 2 2 2 107 305 304
176 2 2 2 2 292 313 129
177 2 2 2 2 295 298 294
178 2 2 2 2 296 297 295
179 2 2 2 2 101 372 287
180 2 2 2 2 294 298 206
181 2 2 2 2 222 376 338
182 2 2 2 2 307 311 304
183 2 2 2 2 117 300 299
184 2 2 2 2 301 302 300
185 2 2 2 2 337 339 153
186 2 2 2 2 241 321 265
187 2 2 2 2 108 303 111
188 2 2 2 2 171 336 194
189 2 2 2 2 310 311 307
190 2 2 2 2 231 373 288
191 2 2 2 2 167 342 174
192 2 2 2 2 117 301 300
193 2 2 2 2 107 304 303
194 2 2 2 2 72 267 11
195 2 2 2 2 133 358 135
196 2 2 2 2 83 414 253
197 2 2 2 2 94 268 97
198 2 2 2 2 187 317 188
199 2 2 2 2 356 357 232
200 2 2 2 2 117 299 296
201 2 2 2 2 314 333 315
202 2 2 2 2 270 324 195
203 2 2 2 2 120 296 295
204 2 2 2 2 295 297 197
205 2 2 2 2 111 303 301
206 2 2 2 2 104 305 107
207 2 2 2 2 354 356 232
208 2 2 2 2 308 309 145
209 2 2 2 2 306 309 308
210 2 2 2 2 103 305 104
211 2 2 2 2 97 268 144
212 2 2 2 2 107 303 108
213 2 2 2 2 106 332 105
214 2 2 2 2 133 359 358
215 2 2 2 2 135 358 139
216 2 2 2 2 312 372 101
217 2 2 2 2 302 375 300
218 2 2 2 2 283 372 284
219 2 2 2 2 150 357 356
220 2 2 2 2 92 268 94
221 2 2 2 2 283 284 183
222 2 2 2 2 282 285 283
223 2 2 2 2 332 370 105
224 2 2 2 2 346 347 343
225 2 2 2 2 301 303 302
226 2 2 2 2 109 332 106
227 2 2 2 2 113 331 110
228 2 2 2 2 103 306 305
229 2 2 2 2 329 331 113
230 2 2 2 2 353 354 185
231 2 2 2 2 163 327 179
232 2 2 2 2 185 354 232
233 2 2 2 2 173 310 166
234 2 2 2 2 110 331 112
235 2 2 2 2 115 329 113
236 2 2 2 2 315 375 314
237 2 2 2 2 326 345 344
238 2 2 2 2 140 353 185
239 2 2 2 2 93 271 250
240 2 2 2 2 219 355 220
241 2 2 2 2 305 307 304
242 2 2 2 2 293 294 292
243 2 2 2 2 330 360 184
244 2 2 2 2 184 360 359
245 2 2 2 2 347 348 343
246 2 2 2 2 354 355 219
247 2 2 2 2 350 351 248
248 2 2 2 2 303 304 302
249 2 2 2 2 161 327 163
250 2 2 2 2 105 370 312
251 2 2 2 2 119 329 115
252 2 2 2 2 103 309 306
253 2 2 2 2 268 269 144
254 2 2 2 2 353 355 354
255 2 2 2 2 153 339 321
256 2 2 2 2 347 349 348
257 2 2 2 2 120 295 294
258 2 2 2 2 304 311 302
259 2 2 2 2 272 281 191
260 2 2 2 2 244 271 159
261 2 2 2 2 191 281 158
262 2 2 2 2 321 339 265
263 2 2 2 2 327 344 179
264 2 2 2 2 159 271 95
265 2 2 2 2 349 350 348
266 2 2 2 2 326 344 327
267 2 2 2 2 197 298 295
268 2 2 2 2 289 290 141
269 2 2 2 2 141 291 289
270 2 2 2 2 123 291 141
271 2 2 2 2 230 313 209
272 2 2 2 2 209 313 207
273 2 2 2 2 229 281 272
274 2 2 2 2 291 313 230
275 2 2 2 2 359 360 233
276 2 2 2 2 328 329 119
277 2 2 2 2 328 330 329
278 2 2 2 2 129 291 123
279 2 2 2 2 12 72 11
280 2 2 2 2 330 331 329
281 2 2 2 2 35 86 3
282 2 2 2 2 50 87 4
283 2 2 2 2 6 84 5
284 2 2 2 2 9 76 8
285 2 2 2 2 40 73 39
286 2 2 2 2 25 75 24
287 2 2 2 2 55 74 54
288 2 2 2 2 8 276 7
289 2 2 2 2 258 262 226
290 2 2 2 2 73 254 39
291 2 2 2 2 22 80 21
292 2 2 2 2 74 251 54
293 2 2 2 2 52 79 51
294 2 2 2 2 37 78 36
295 2 2 2 2 290 318 141
296 2 2 2 2 102 312 101
297 2 2 2 2 247 258 226
298 2 2 2 2 214 242 213
299 2 2 2 2 212 318 290
300 2 2 2 2 178 322 182
301 2 2 2 2 212 213 187
302 2 2 2 2 212 214 213
303 2 2 2 2 182 322 199
304 2 2 2 2 214 243 242
305 2 2 2 2 211 230 209
306 2 2 2 2 231 289 230
307 2 2 2 2 148 318 212
308 2 2 2 2 192 334 239
309 2 2 2 2 171 175 172
310 2 2 2 2 241 264 240
311 2 2 2 2 171 172 170
312 2 2 2 2 239 240 238
313 2 2 2 2 169 171 170
314 2 2 2 2 264 266 240
315 2 2 2 2 211 231 230
316 2 2 2 2 15 77 14
317 2 2 2 2 153 320 138
318 2 2 2 2 242 253 213
319 2 2 2 2 169 170 168
320 2 2 2 2 242 261 253
321 2 2 2 2 148 212 187
322 2 2 2 2 324 402 325
323 2 2 2 2 123 141 124
324 2 2 2 2 168 173 166
325 2 2 2 2 199 225 224
326 2 2 2 2 157 334 192
327 2 2 2 2 239 241 240
328 2 2 2 2 192 238 223
329 2 2 2 2 107 108 106
330 2 2 2 2 117 296 116
331 2 2 2 2 192 239 238
332 2 2 2 2 194 226 175
333 2 2 2 2 108 111 110
334 2 2 2 2 167 168 166
335 2 2 2 2 164 205 162
336 2 2 2 2 241 265 264
337 2 2 2 2 123 124 122
338 2 2 2 2 141 318 124
339 2 2 2 2 111 113 110
340 2 2 2 2 175 176 172
341 2 2 2 2 181 297 204
342 2 2 2 2 134 341 132
343 2 2 2 2 138 320 136
344 2 2 2 2 146 195 160
345 2 2 2 2 104 106 105
346 2 2 2 2 105 312 102
347 2 2 2 2 121 123 122
348 2 2 2 2 104 107 106
349 2 2 2 2 172 333 170
350 2 2 2 2 165 166 164
351 2 2 2 2 157 192 190
352 2 2 2 2 203 206 201
353 2 2 2 2 114 117 116
354 2 2 2 2 111 114 113
355 2 2 2 2 104 105 102
356 2 2 2 2 148 187 154
357 2 2 2 2 152 219 218
358 2 2 2 2 126 318 148
359 2 2 2 2 199 322 225
360 2 2 2 2 225 227 224
361 2 2 2 2 186 322 178
362 2 2 2 2 215 335 127
363 2 2 2 2 163 164 162
364 2 2 2 2 149 153 138
365 2 2 2 2 116 296 120
366 2 2 2 2 219 220 218
367 2 2 2 2 108 110 109
368 2 2 2 2 212 290 214
369 2 2 2 2 289 291 230
370 2 2 2 2 197 297 181
371 2 2 2 2 181 204 177
372 2 2 2 2 132 341 216
373 2 2 2 2 176 178 177
374 2 2 2 2 131 132 130
375 2 2 2 2 127 335 125
376 2 2 2 2 126 148 140
377 2 2 2 2 167 169 168
378 2 2 2 2 121 129 123
379 2 2 2 2 176 177 172
380 2 2 2 2 136 142 137
381 2 2 2 2 324 325 193
382 2 2 2 2 188 237 236
383 2 2 2 2 176 186 178
384 2 2 2 2 178 181 177
385 2 2 2 2 195 324 160
386 2 2 2 2 114 301 117
387 2 2 2 2 203 207 206
388 2 2 2 2 132 216 130
389 2 2 2 2 136 320 142
390 2 2 2 2 58 70 57
391 2 2 2 2 28 65 27
392 2 2 2 2 43 71 42
393 2 2 2 2 136 137 134
394 2 2 2 2 133 134 132
395 2 2 2 2 112 131 130
396 2 2 2 2 108 109 106
397 2 2 2 2 232 233 215
398 2 2 2 2 143 334 157
399 2 2 2 2 160 324 193
400 2 2 2 2 124 125 122
401 2 2 2 2 210 211 209
402 2 2 2 2 124 126 125
403 2 2 2 2 112 130 109
404 2 2 2 2 135 136 134
405 2 2 2 2 124 318 126
406 2 2 2 2 165 167 166
407 2 2 2 2 192 223 190
408 2 2 2 2 121 293 129
409 2 2 2 2 149 337 153
410 2 2 2 2 163 165 164
411 2 2 2 2 185 215 127
412 2 2 2 2 121 122 119
413 2 2 2 2 112 184 131
414 2 2 2 2 110 112 109
415 2 2 2 2 177 333 172
416 2 2 2 2 139 357 150
417 2 2 2 2 118 293 121
418 2 2 2 2 143 157 156
419 2 2 2 2 204 333 177
420 2 2 2 2 114 115 113
421 2 2 2 2 126 127 125
422 2 2 2 2 148 154 140
423 2 2 2 2 208 209 207
424 2 2 2 2 114 116 115
425 2 2 2 2 187 188 154
426 2 2 2 2 184 359 131
427 2 2 2 2 111 301 114
428 2 2 2 2 178 182 181
429 2 2 2 2 182 197 181
430 2 2 2 2 171 194 175
431 2 2 2 2 116 120 118
432 2 2 2 2 199 224 200
433 2 2 2 2 182 199 198
434 2 2 2 2 161 163 162
435 2 2 2 2 126 140 127
436 2 2 2 2 142 143 137
437 2 2 2 2 185 232 215
438 2 2 2 2 156 183 155
439 2 2 2 2 131 133 132
440 2 2 2 2 142 334 143
441 2 2 2 2 140 185 127
442 2 2 2 2 222 338 337
443 2 2 2 2 118 119 115
444 2 2 2 2 161 162 147
445 2 2 2 2 143 156 155
446 2 2 2 2 220 252 234
447 2 2 2 2 137 341 134
448 2 2 2 2 31 81 30
449 2 2 2 2 223 278 190
450 2 2 2 2 143 155 137
451 2 2 2 2 116 118 115
452 2 2 2 2 120 293 118
453 2 2 2 2 131 359 133
454 2 2 2 2 325 326 193
455 2 2 2 2 202 203 201
456 2 2 2 2 160 193 161
457 2 2 2 2 163 179 165
458 2 2 2 2 200 201 198
459 2 2 2 2 61 82 60
460 2 2 2 2 118 121 119
461 2 2 2 2 103 104 102
462 2 2 2 2 150 152 151
463 2 2 2 2 223 279 278
464 2 2 2 2 188 236 189
465 2 2 2 2 157 190 158
466 2 2 2 2 188 189 154
467 2 2 2 2 152 218 217
468 2 2 2 2 133 135 134
469 2 2 2 2 46 83 45
470 2 2 2 2 227 365 224
471 2 2 2 2 167 174 169
472 2 2 2 2 139 149 138
473 2 2 2 2 139 150 149
474 2 2 2 2 182 198 197
475 2 2 2 2 199 200 198
476 2 2 2 2 157 158 156
477 2 2 2 2 203 208 207
478 2 2 2 2 194 247 226
479 2 2 2 2 208 210 209
480 2 2 2 2 190 278 191
481 2 2 2 2 46 259 83
482 2 2 2 2 217 222 151
483 2 2 2 2 135 138 136
484 2 2 2 2 224 364 200
485 2 2 2 2 150 151 149
486 2 2 2 2 236 340 189
487 2 2 2 2 222 337 151
488 2 2 2 2 220 234 218
489 2 2 2 2 200 202 201
490 2 2 2 2 210 246 211
491 2 2 2 2 202 363 362
492 2 2 2 2 224 365 364
493 2 2 2 2 152 217 151
494 2 2 2 2 146 160 147
495 2 2 2 2 135 139 138
496 2 2 2 2 202 362 203
497 2 2 2 2 160 161 147
498 2 2 2 2 190 191 158
499 2 2 2 2 151 337 149
500 2 2 2 2 365 368 364
501 2 2 2 2 217 235 222
502 2 2 2 2 203 362 208
503 2 2 2 2 208 249 210
504 2 2 2 2 249 366 210
505 2 2 2 2 272 273 245
506 2 2 2 2 200 364 202
507 2 2 2 2 155 341 137
508 2 2 2 2 194 248 247
509 2 2 2 2 208 362 249
510 2 2 2 2 202 364 363
511 2 2 2 2 210 366 246
512 2 2 2 2 17 85 16
513 2 2 2 2 100 103 102
514 2 2 2 2 229 272 245
515 2 2 2 2 146 147 145
516 2 2 2 2 364 368 363
517 2 2 2 2 34 68 33
518 2 2 2 2 19 66 18
519 2 2 2 2 49 69 48
520 2 2 2 2 64 67 63
521 2 2 2 2 232 357 233
522 2 2 2 2 220 340 252
523 2 2 2 2 236 369 340
524 2 2 2 2 100 102 101
525 2 2 2 2 144 146 145
526 2 2 2 2 229 245 221
527 2 2 2 2 100 101 98
528 2 2 2 2 144 145 99
529 2 2 2 2 180 229 221
530 2 2 2 2 221 244 159
531 2 2 2 2 128 196 180
532 2 2 2 2 99 100 98
533 2 2 2 2 97 144 99
534 2 2 2 2 180 221 159
535 2 2 2 2 97 99 98
536 2 2 2 2 128 180 159
537 2 2 2 2 97 98 96
538 2 2 2 2 128 159 95
539 2 2 2 2 129 313 291
540 2 2 2 2 96 128 95
541 2 2 2 2 94 97 96
542 2 2 2 2 94 96 95
543 2 2 2 2 95 271 93
544 2 2 2 2 94 95 93
545 2 2 2 2 311 375 302
546 2 2 2 2 306 308 205
547 2 2 2 2 184 331 330
548 2 2 2 2 122 328 119
549 2 2 2 2 125 335 328
550 2 2 2 2 193 327 161
551 2 2 2 2 92 94 93
552 2 2 2 2 228 268 92
553 2 2 2 2 93 250 91
554 2 2 2 2 233 360 215
555 2 2 2 2 215 360 335
556 2 2 2 2 154 353 140
557 2 2 2 2 220 355 340
558 2 2 2 2 112 331 184
559 2 2 2 2 328 335 330
560 2 2 2 2 125 328 122
561 2 2 2 2 326 327 193
562 2 2 2 2 335 360 330
563 2 2 2 2 216 370 332
564 2 2 2 2 189 355 353
565 2 2 2 2 189 353 154
566 2 2 2 2 315 333 204
567 2 2 2 2 340 355 189
568 2 2 2 2 166 310 164
569 2 2 2 2 100 309 103
570 2 2 2 2 130 332 109
571 2 2 2 2 147 308 145
572 2 2 2 2 145 309 99
573 2 2 2 2 205 308 162
574 2 2 2 2 338 371 339
575 2 2 2 2 90 228 92
576 2 2 2 2 92 93 91
577 2 2 2 2 306 307 305
578 2 2 2 2 219 356 354
579 2 2 2 2 164 310 205
580 2 2 2 2 179 344 343
581 2 2 2 2 150 356 152
582 2 2 2 2 320 321 319
583 2 2 2 2 358 359 233
584 2 2 2 2 139 358 357
585 2 2 2 2 216 332 130
586 2 2 2 2 99 309 100
587 2 2 2 2 170 333 314
588 2 2 2 2 168 314 173
589 2 2 2 2 314 375 173
590 2 2 2 2 162 308 147
591 2 2 2 2 235 376 222
592 2 2 2 2 120 294 293
593 2 2 2 2 206 298 201
594 2 2 2 2 198 298 197
595 2 2 2 2 23 352 22
596 2 2 2 2 296 299 297
597 2 2 2 2 300 315 299
598 2 2 2 2 213 317 187
599 2 2 2 2 152 356 219
600 2 2 2 2 173 311 310
601 2 2 2 2 284 370 286
602 2 2 2 2 205 307 306
603 2 2 2 2 205 310 307
604 2 2 2 2 357 358 233
605 2 2 2 2 165 342 167
606 2 2 2 2 170 314 168
607 2 2 2 2 300 375 315
608 2 2 2 2 169 336 171
609 2 2 2 2 153 321 320
610 2 2 2 2 299 315 204
611 2 2 2 2 90 92 91
612 2 2 2 2 91 267 72
613 2 2 2 2 201 298 198
614 2 2 2 2 207 313 292
615 2 2 2 2 262 374 316
616 2 2 2 2 173 375 311
617 2 2 2 2 214 290 288
618 2 2 2 2 179 343 342
619 2 2 2 2 297 299 204
620 2 2 2 2 284 286 183
621 2 2 2 2 253 317 213
622 2 2 2 2 284 372 312
623 2 2 2 2 286 370 216
624 2 2 2 2 344 346 343
625 2 2 2 2 239 334 319
626 2 2 2 2 96 287 128
627 2 2 2 2 218 361 217
628 2 2 2 2 186 323 322
629 2 2 2 2 228 269 268
630 2 2 2 2 226 316 175
631 2 2 2 2 227 400 365
632 2 2 2 2 179 342 165
633 2 2 2 2 292 294 206
634 2 2 2 2 67 424 279
635 2 2 2 2 174 336 169
636 2 2 2 2 288 373 243
637 2 2 2 2 158 282 156
638 2 2 2 2 180 285 229
639 2 2 2 2 287 372 196
640 2 2 2 2 191 277 272
641 2 2 2 2 207 292 206
642 2 2 2 2 319 321 241
643 2 2 2 2 214 288 243
644 2 2 2 2 257 423 260
645 2 2 2 2 225 378 227
646 2 2 2 2 69 385 369
647 2 2 2 2 239 319 241
648 2 2 2 2 128 287 196
649 2 2 2 2 345 346 344
650 2 2 2 2 234 361 218
651 2 2 2 2 322 323 225
652 2 2 2 2 262 316 226
653 2 2 2 2 339 371 265
654 2 2 2 2 277 280 273
655 2 2 2 2 270 402 324
656 2 2 2 2 89 257 90
657 2 2 2 2 90 91 72
658 2 2 2 2 281 285 282
659 2 2 2 2 281 282 158
660 2 2 2 2 229 285 281
661 2 2 2 2 323 378 225
662 2 2 2 2 272 277 273
663 2 2 2 2 263 374 262
664 2 2 2 2 377 378 323
665 2 2 2 2 374 377 323
666 2 2 2 2 70 420 264
667 2 2 2 2 247 379 258
668 2 2 2 2 11 267 10
669 2 2 2 2 396 423 77
670 2 2 2 2 264 420 266
671 2 2 2 2 273 280 274
672 2 2 2 2 256 413 373
673 2 2 2 2 76 276 8
674 2 2 2 2 47 259 46
675 2 2 2 2 39 254 38
676 2 2 2 2 54 251 53
677 2 2 2 2 74 376 251
678 2 2 2 2 34 384 68
679 2 2 2 2 49 385 69
680 2 2 2 2 381 400 227
681 2 2 2 2 266 420 59
682 2 2 2 2 264 406 70
683 2 2 2 2 84 274 5
684 2 2 2 2 279 403 67
685 2 2 2 2 258 409 65
686 2 2 2 2 223 408 279
687 2 2 2 2 81 381 378
688 2 2 2 2 84 393 275
689 2 2 2 2 237 410 236
690 2 2 2 2 265 406 264
691 2 2 2 2 26 409 379
692 2 2 2 2 17 401 85
693 2 2 2 2 89 90 72
694 2 2 2 2 31 381 81
695 2 2 2 2 263 377 374
696 2 2 2 2 279 424 278
697 2 2 2 2 376 407 338
698 2 2 2 2 275 393 276
699 2 2 2 2 81 378 377
700 2 2 2 2 71 388 42
701 2 2 2 2 70 387 57
702 2 2 2 2 237 414 259
703 2 2 2 2 271 411 250
704 2 2 2 2 16 396 15
705 2 2 2 2 266 412 240
706 2 2 2 2 326 415 345
707 2 2 2 2 71 422 413
708 2 2 2 2 32 381 31
709 2 2 2 2 42 388 41
710 2 2 2 2 57 387 56
711 2 2 2 2 20 386 88
712 2 2 2 2 15 396 77
713 2 2 2 2 85 396 16
714 2 2 2 2 253 414 317
715 2 2 2 2 242 422 261
716 2 2 2 2 77 395 14
717 2 2 2 2 14 395 13
718 2 2 2 2 12 89 72
719 2 2 2 2 13 89 12
720 2 2 2 2 60 399 59
721 2 2 2 2 45 398 44
722 2 2 2 2 30 397 29
723 2 2 2 2 21 386 20
724 2 2 2 2 55 389 74
725 2 2 2 2 61 380 82
726 2 2 2 2 71 413 388
727 2 2 2 2 277 424 280
728 2 2 2 2 9 391 76
729 2 2 2 2 351 416 248
730 2 2 2 2 82 399 60
731 2 2 2 2 83 398 45
732 2 2 2 2 81 397 30
733 2 2 2 2 80 386 21
734 2 2 2 2 56 389 55
735 2 2 2 2 52 392 79
736 2 2 2 2 37 390 78
737 2 2 2 2 62 380 61
738 2 2 2 2 74 407 376
739 2 2 2 2 18 401 17
740 2 2 2 2 63 403 62
741 2 2 2 2 48 404 47
742 2 2 2 2 33 400 32
743 2 2 2 2 59 399 266
744 2 2 2 2 10 391 9
745 2 2 2 2 6 393 84
746 2 2 2 2 276 393 7
747 2 2 2 2 279 408 380
748 2 2 2 2 4 385 49
749 2 2 2 2 3 384 34
750 2 2 2 2 66 415 401
751 2 2 2 2 247 416 379
752 2 2 2 2 78 394 36
753 2 2 2 2 35 394 86
754 2 2 2 2 280 424 67
755 2 2 2 2 53 392 52
756 2 2 2 2 38 390 37
757 2 2 2 2 85 402 396
758 2 2 2 2 352 405 351
759 2 2 2 2 66 401 18
760 2 2 2 2 67 403 63
761 2 2 2 2 69 404 48
762 2 2 2 2 68 400 33
763 2 2 2 2 78 390 366
764 2 2 2 2 62 403 380
765 2 2 2 2 263 397 377
766 2 2 2 2 24 405 23
767 2 2 2 2 259 414 83
768 2 2 2 2 263 419 397
769 2 2 2 2 65 409 27
770 2 2 2 2 19 382 66
771 2 2 2 2 7 393 6
772 2 2 2 2 65 419 263
773 2 2 2 2 32 400 381
774 2 2 2 2 379 416 75
775 2 2 2 2 75 405 24
776 2 2 2 2 377 397 81
777 2 2 2 2 59 420 58
778 2 2 2 2 28 419 65
779 2 2 2 2 44 398 261
780 2 2 2 2 250 391 267
781 2 2 2 2 238 408 223
782 2 2 2 2 13 395 89
783 2 2 2 2 87 385 4
784 2 2 2 2 86 384 3
785 2 2 2 2 379 409 258
786 2 2 2 2 36 394 35
787 2 2 2 2 23 405 352
788 2 2 2 2 387 389 56
789 2 2 2 2 371 406 265
790 2 2 2 2 2 382 19
791 2 2 2 2 86 394 367
792 2 2 2 2 238 412 408
793 2 2 2 2 408 412 82
794 2 2 2 2 47 404 259
795 2 2 2 2 89 395 257
796 2 2 2 2 338 407 371
797 2 2 2 2 261 398 253
798 2 2 2 2 267 391 10
799 2 2 2 2 397 419 29
800 2 2 2 2 236 410 369
801 2 2 2 2 240 412 238
802 2 2 2 2 244 411 271
803 2 2 2 2 68 368 365
804 2 2 2 2 27 409 26
805 2 2 2 2 325 415 326
806 2 2 2 2 399 412 266
807 2 2 2 2 251 392 53
808 2 2 2 2 254 390 38
809 2 2 2 2 317 414 237
810 2 2 2 2 373 413 243
811 2 2 2 2 361 417 235
812 2 2 2 2 365 400 68
813 2 2 2 2 380 408 82
814 2 2 2 2 278 424 277
815 2 2 2 2 380 403 279
816 2 2 2 2 388 413 256
817 2 2 2 2 5 274 1
818 2 2 2 2 413 422 243
819 2 2 2 2 260 423 270
820 2 2 2 2 248 416 247
821 2 2 2 2 70 406 387
822 2 2 2 2 29 419 28
823 2 2 2 2 368 418 363
824 2 2 2 2 58 420 70
825 2 2 2 2 243 422 242
826 2 2 2 2 366 421 246
827 2 2 2 2 389 407 74
828 2 2 2 2 68 384 368
829 2 2 2 2 82 412 399
830 2 2 2 2 69 410 404
831 2 2 2 2 392 417 79
832 2 2 2 2 369 410 69
833 2 2 2 2 390 421 366
834 2 2 2 2 86 418 384
835 2 2 2 2 254 421 390
836 2 2 2 2 384 418 368
837 2 2 2 2 1 274 64
838 2 2 2 2 20 382 2
839 2 2 2 2 88 382 20
840 2 2 2 2 51 87 50
841 2 2 2 2 51 383 87
842 2 2 2 2 274 280 64
843 2 2 2 2 249 394 78
844 2 2 2 2 367 394 249
845 2 2 2 2 340 385 252
846 2 2 2 2 369 385 340
$EndElements
