$MeshFormat
2.2 0 8
$EndMeshFormat
$Nodes
156
1 0.75 0.5 0
2 0.5 0.625 0
3 0.25 0.5 0
4 0.5 0.375 0
5 0.7430776431520629 0.5292115533635168 0
6 0.7256456995618559 0.5538145386239646 0
7 0.7025281824920887 0.5732842672346037 0
8 0.676420906346086 0.5885658848033846 0
9 0.6486179744463727 0.6005145482896099 0
10 0.6197842932049799 0.609717504416323 0
11 0.5902988266702307 0.6165612734809247 0
12 0.5604008753906635 0.6212968819179223 0
13 0.5302577795947366 0.6240810891856575 0
14 0.4697422204052634 0.6240810891856575 0
15 0.4395991246093365 0.6212968819179223 0
16 0.4097011733297694 0.6165612734809247 0
17 0.3802157067950202 0.609717504416323 0
18 0.3513820255536273 0.6005145482896099 0
19 0.323579093653914 0.5885658848033846 0
20 0.2974718175079114 0.5732842672346037 0
21 0.2743543004381441 0.5538145386239645 0
22 0.2569223568479371 0.5292115533635168 0
23 0.256922356847937 0.4707884466364833 0
24 0.274354300438144 0.4461854613760356 0
25 0.2974718175079111 0.4267157327653965 0
26 0.3235790936539139 0.4114341151966155 0
27 0.351382025553627 0.3994854517103902 0
28 0.38021570679502 0.390282495583677 0
29 0.4097011733297692 0.3834387265190753 0
30 0.4395991246093363 0.3787031180820777 0
31 0.4697422204052634 0.3759189108143425 0
32 0.5302577795947365 0.3759189108143425 0
33 0.5604008753906636 0.3787031180820777 0
34 0.5902988266702305 0.3834387265190753 0
35 0.6197842932049801 0.3902824955836771 0
36 0.6486179744463729 0.3994854517103902 0
37 0.6764209063460862 0.4114341151966155 0
38 0.702528182492089 0.4267157327653966 0
39 0.7256456995618561 0.4461854613760357 0
40 0.743077643152063 0.4707884466364834 0
41 0.4855712727477441 0.4015247157579566 0
42 0.5713003940564564 0.5912498532586092 0
43 0.3968812520813365 0.4100101796108371 0
44 0.4623983214753126 0.5942167825563871 0
45 0.571750711733593 0.4057074838347517 0
46 0.6530996169279939 0.4287242650967729 0
47 0.3737682030674859 0.5801473840472923 0
48 0.654582973304771 0.5760061852477358 0
49 0.3232747398664393 0.4418101572683776 0
50 0.7132892526199058 0.4707399646176015 0
51 0.302373210223306 0.5439226152953538 0
52 0.5154635943259488 0.6007575463621372 0
53 0.6976091464959466 0.5465245136922277 0
54 0.2802190969994183 0.4933371581529101 0
55 0.7212408742792213 0.5086108397973838 0
56 0.5153992295793105 0.4006573078021139 0
57 0.5016319747857649 0.4269041954081942 0
58 0.4716332921085358 0.4283367142077165 0
59 0.4877259586435979 0.4538130478347129 0
60 0.4574988899377442 0.4551338980134502 0
61 0.4737284632701329 0.4806608021948753 0
62 0.5039660330902395 0.4793485661421067 0
63 0.4434848745637688 0.4819699884658536 0
64 0.4899574035969551 0.5062163088944094 0
65 0.5202029321095691 0.5049114778143431 0
66 0.5342009358812025 0.478041637285409 0
67 0.5504575495368356 0.5035813298481878 0
68 0.5644443530092964 0.4767251326230981 0
69 0.5807004845862123 0.5022646238164987 0
70 0.5946835143890687 0.475415816667252 0
71 0.6109425629897052 0.5009430710554702 0
72 0.5359732552593346 0.5324067506529985 0
73 0.5969675611099166 0.5277895426534257 0
74 0.6242824974803645 0.4745099155093832 0
75 0.6410681052942214 0.499689135660948 0
76 0.6059981640606773 0.4434949718083718 0
77 0.4272666657872102 0.4573080009997724 0
78 0.4132443771039725 0.4834236716088446 0
79 0.4294920235108521 0.5088357092869774 0
80 0.3992520031302994 0.510145312240789 0
81 0.3830007647915126 0.4846167974077107 0
82 0.3690166432095704 0.5114303315377093 0
83 0.4155012018558658 0.5356521149288476 0
84 0.4457357244580601 0.5343472224492157 0
85 0.3534152943720645 0.4862384602288146 0
86 0.367724812334487 0.4597861359055551 0
87 0.5472395782480342 0.4515487283073482 0
88 0.6525088958897768 0.4742115227451345 0
89 0.670020320219152 0.497585755265083 0
90 0.3394047358101144 0.5122352799805493 0
91 0.3516492909847415 0.5411344443596524 0
92 0.6573209448627649 0.5214468248080629 0
93 0.3267087662961666 0.4871459941423427 0
94 0.4303548488459957 0.5603947856099969 0
95 0.4604217095958499 0.5628392310741813 0
96 0.3983006244877854 0.5640304957241444 0
97 0.5303614786995331 0.4265053715594259 0
98 0.6271294313133039 0.5249369305794662 0
99 0.6127867158729182 0.552786126447917 0
100 0.5830723119968695 0.5558246102490667 0
101 0.5996626419138826 0.5813693616023329 0
102 0.5520629021379981 0.5661656666574411 0
103 0.4419893871643747 0.4307756509466647 0
104 0.3841107101967848 0.5364436496536619 0
105 0.3972011449117864 0.4591285319808882 0
106 0.5665390107711944 0.5313387539796031 0
107 0.5198561940131022 0.5575653363562167 0
108 0.505504026268824 0.5320106829410958 0
109 0.5773157055202467 0.4500299061765697 0
110 0.5178343564679361 0.4525518474946332 0
111 0.4597238355131383 0.5075086773615959 0
112 0.4754054247312914 0.5334773856284769 0
113 0.3085846214991156 0.5114241888562441 0
114 0.4186866176326348 0.5892830695576841 0
115 0.4561114394539253 0.4033243533380033 0
116 0.4908842069473104 0.5573151230595457 0
117 0.38267455361897 0.4352140564323546 0
118 0.6814529217713233 0.4684415907727087 0
119 0.3514702930052958 0.4317335183147711 0
120 0.4884229208862469 0.5997402681390627 0
121 0.5430413258989613 0.5983761269762949 0
122 0.5995723386308774 0.4104240218398502 0
123 0.4259118948656739 0.4070633586149213 0
124 0.6270252174390628 0.4203515070748863 0
125 0.3489524924775931 0.57140381721752 0
126 0.6270915120836563 0.5827330187626815 0
127 0.678710901266424 0.4396799367141063 0
128 0.544146940334963 0.4025002750903223 0
129 0.6749029876334061 0.5616880140281353 0
130 0.3238748597264159 0.5604204482597561 0
131 0.3403897827882381 0.4623884523105418 0
132 0.7004852170463058 0.4921308621977371 0
133 0.299267723849213 0.4551658618541842 0
134 0.6360600221263244 0.4491788343898402 0
135 0.6913240111945297 0.5196255999550177 0
136 0.3264449746244722 0.535045683090543 0
137 0.2836016722103609 0.5243552537706362 0
138 0.4119874830715586 0.433249963097573 0
139 0.646979311499483 0.551270091885863 0
140 0.7003253915423197 0.4503525372491697 0
141 0.5589973787910514 0.427220104154364 0
142 0.3710945582742655 0.5571302629317127 0
143 0.4796594512374415 0.5779135428814546 0
144 0.7157794749367232 0.531557409086422 0
145 0.3721654167852915 0.4129654600587365 0
146 0.2821272332199047 0.4686051300034577 0
147 0.3945252542682839 0.591109463079865 0
148 0.5038330743210848 0.578925032205334 0
149 0.5827268597472892 0.4273752975627815 0
150 0.527383035390002 0.5803294944892283 0
151 0.3025460962901564 0.480176393477118 0
152 0.6750406154255608 0.5392935433270419 0
153 0.4415339975240578 0.5846631122546676 0
154 0.6603664715963684 0.4520472299437125 0
155 0.3184374218180427 0.4653373718105128 0
156 0.7295668838365716 0.4882029348826617 0
$EndNodes
$Elements
270
1 2 2 1 1 72 106 102
2 2 2 1 1 54 137 3
3 2 2 1 1 3 137 22
4 2 2 1 1 42 102 100
5 2 2 1 1 114 153 15
6 2 2 1 1 125 130 91
7 2 2 1 1 102 106 100
8 2 2 1 1 122 124 76
9 2 2 1 1 102 107 72
10 2 2 1 1 99 139 126
11 2 2 1 1 130 136 91
12 2 2 1 1 100 101 42
13 2 2 1 1 16 114 15
14 2 2 1 1 11 101 10
15 2 2 1 1 126 139 48
16 2 2 1 1 76 149 122
17 2 2 1 1 27 119 26
18 2 2 1 1 15 153 44
19 2 2 1 1 113 137 54
20 2 2 1 1 42 101 11
21 2 2 1 1 54 151 113
22 2 2 1 1 139 152 129
23 2 2 1 1 48 139 129
24 2 2 1 1 124 134 76
25 2 2 1 1 26 119 49
26 2 2 1 1 44 153 95
27 2 2 1 1 103 138 123
28 2 2 1 1 95 143 44
29 2 2 1 1 42 121 102
30 2 2 1 1 55 144 135
31 2 2 1 1 101 126 10
32 2 2 1 1 123 138 43
33 2 2 1 1 107 108 72
34 2 2 1 1 91 142 125
35 2 2 1 1 55 135 132
36 2 2 1 1 87 110 97
37 2 2 1 1 118 154 127
38 2 2 1 1 97 110 57
39 2 2 1 1 27 145 119
40 2 2 1 1 99 126 101
41 2 2 1 1 72 108 65
42 2 2 1 1 65 108 64
43 2 2 1 1 88 89 75
44 2 2 1 1 90 93 85
45 2 2 1 1 69 106 67
46 2 2 1 1 108 112 64
47 2 2 1 1 7 53 6
48 2 2 1 1 98 99 73
49 2 2 1 1 71 98 73
50 2 2 1 1 67 106 72
51 2 2 1 1 74 88 75
52 2 2 1 1 73 106 69
53 2 2 1 1 89 92 75
54 2 2 1 1 57 110 59
55 2 2 1 1 74 75 71
56 2 2 1 1 82 90 85
57 2 2 1 1 82 85 81
58 2 2 1 1 21 51 20
59 2 2 1 1 40 50 39
60 2 2 1 1 80 82 81
61 2 2 1 1 96 104 83
62 2 2 1 1 26 49 25
63 2 2 1 1 78 105 77
64 2 2 1 1 80 81 78
65 2 2 1 1 60 103 58
66 2 2 1 1 80 104 82
67 2 2 1 1 70 71 69
68 2 2 1 1 70 74 71
69 2 2 1 1 82 104 91
70 2 2 1 1 75 98 71
71 2 2 1 1 68 70 69
72 2 2 1 1 9 48 8
73 2 2 1 1 37 46 36
74 2 2 1 1 82 91 90
75 2 2 1 1 79 80 78
76 2 2 1 1 68 69 67
77 2 2 1 1 85 86 81
78 2 2 1 1 63 78 77
79 2 2 1 1 18 47 17
80 2 2 1 1 71 73 69
81 2 2 1 1 66 68 67
82 2 2 1 1 83 104 80
83 2 2 1 1 64 111 61
84 2 2 1 1 66 110 87
85 2 2 1 1 29 43 28
86 2 2 1 1 63 77 60
87 2 2 1 1 63 79 78
88 2 2 1 1 66 67 65
89 2 2 1 1 2 52 13
90 2 2 1 1 62 110 66
91 2 2 1 1 12 42 11
92 2 2 1 1 94 96 83
93 2 2 1 1 63 111 79
94 2 2 1 1 34 45 33
95 2 2 1 1 67 72 65
96 2 2 1 1 79 83 80
97 2 2 1 1 15 44 14
98 2 2 1 1 70 76 74
99 2 2 1 1 79 111 84
100 2 2 1 1 62 66 65
101 2 2 1 1 68 109 70
102 2 2 1 1 4 41 31
103 2 2 1 1 77 103 60
104 2 2 1 1 62 65 64
105 2 2 1 1 66 87 68
106 2 2 1 1 70 109 76
107 2 2 1 1 87 109 68
108 2 2 1 1 81 105 78
109 2 2 1 1 59 110 62
110 2 2 1 1 62 64 61
111 2 2 1 1 61 63 60
112 2 2 1 1 61 111 63
113 2 2 1 1 99 100 73
114 2 2 1 1 84 94 83
115 2 2 1 1 84 95 94
116 2 2 1 1 99 101 100
117 2 2 1 1 59 62 61
118 2 2 1 1 79 84 83
119 2 2 1 1 100 106 73
120 2 2 1 1 86 105 81
121 2 2 1 1 59 61 60
122 2 2 1 1 92 98 75
123 2 2 1 1 64 112 111
124 2 2 1 1 59 60 58
125 2 2 1 1 84 112 95
126 2 2 1 1 90 113 93
127 2 2 1 1 111 112 84
128 2 2 1 1 23 54 3
129 2 2 1 1 5 55 1
130 2 2 1 1 57 59 58
131 2 2 1 1 103 115 58
132 2 2 1 1 57 58 41
133 2 2 1 1 56 97 57
134 2 2 1 1 94 114 96
135 2 2 1 1 31 115 30
136 2 2 1 1 41 115 31
137 2 2 1 1 47 142 96
138 2 2 1 1 107 116 108
139 2 2 1 1 108 116 112
140 2 2 1 1 109 149 76
141 2 2 1 1 46 134 124
142 2 2 1 1 127 140 118
143 2 2 1 1 58 115 41
144 2 2 1 1 22 137 21
145 2 2 1 1 21 137 51
146 2 2 1 1 86 117 105
147 2 2 1 1 112 116 95
148 2 2 1 1 56 57 41
149 2 2 1 1 88 118 89
150 2 2 1 1 96 147 47
151 2 2 1 1 113 151 93
152 2 2 1 1 93 131 85
153 2 2 1 1 32 56 4
154 2 2 1 1 4 56 41
155 2 2 1 1 14 120 2
156 2 2 1 1 44 120 14
157 2 2 1 1 2 120 52
158 2 2 1 1 74 134 88
159 2 2 1 1 12 121 42
160 2 2 1 1 13 121 12
161 2 2 1 1 52 121 13
162 2 2 1 1 89 135 92
163 2 2 1 1 121 150 102
164 2 2 1 1 87 141 109
165 2 2 1 1 77 138 103
166 2 2 1 1 88 154 118
167 2 2 1 1 35 122 34
168 2 2 1 1 34 122 45
169 2 2 1 1 98 139 99
170 2 2 1 1 86 119 117
171 2 2 1 1 30 123 29
172 2 2 1 1 103 123 115
173 2 2 1 1 29 123 43
174 2 2 1 1 36 124 35
175 2 2 1 1 46 124 36
176 2 2 1 1 96 142 104
177 2 2 1 1 45 128 33
178 2 2 1 1 56 128 97
179 2 2 1 1 95 153 94
180 2 2 1 1 19 125 18
181 2 2 1 1 18 125 47
182 2 2 1 1 119 131 49
183 2 2 1 1 86 131 119
184 2 2 1 1 10 126 9
185 2 2 1 1 9 126 48
186 2 2 1 1 113 136 51
187 2 2 1 1 90 136 113
188 2 2 1 1 117 138 105
189 2 2 1 1 135 144 53
190 2 2 1 1 43 138 117
191 2 2 1 1 102 150 107
192 2 2 1 1 115 123 30
193 2 2 1 1 132 156 55
194 2 2 1 1 50 156 132
195 2 2 1 1 45 141 128
196 2 2 1 1 38 127 37
197 2 2 1 1 37 127 46
198 2 2 1 1 33 128 32
199 2 2 1 1 92 152 139
200 2 2 1 1 8 129 7
201 2 2 1 1 7 129 53
202 2 2 1 1 51 137 113
203 2 2 1 1 20 130 19
204 2 2 1 1 32 128 56
205 2 2 1 1 51 130 20
206 2 2 1 1 35 124 122
207 2 2 1 1 43 145 28
208 2 2 1 1 17 147 16
209 2 2 1 1 48 129 8
210 2 2 1 1 16 147 114
211 2 2 1 1 91 136 90
212 2 2 1 1 128 141 97
213 2 2 1 1 114 147 96
214 2 2 1 1 85 131 86
215 2 2 1 1 25 133 24
216 2 2 1 1 120 148 52
217 2 2 1 1 49 133 25
218 2 2 1 1 76 134 74
219 2 2 1 1 97 141 87
220 2 2 1 1 117 145 43
221 2 2 1 1 39 140 38
222 2 2 1 1 50 140 39
223 2 2 1 1 119 145 117
224 2 2 1 1 141 149 109
225 2 2 1 1 105 138 77
226 2 2 1 1 143 148 120
227 2 2 1 1 92 139 98
228 2 2 1 1 50 132 118
229 2 2 1 1 118 132 89
230 2 2 1 1 125 142 47
231 2 2 1 1 19 130 125
232 2 2 1 1 6 144 5
233 2 2 1 1 44 143 120
234 2 2 1 1 5 144 55
235 2 2 1 1 24 146 23
236 2 2 1 1 23 146 54
237 2 2 1 1 118 140 50
238 2 2 1 1 104 142 91
239 2 2 1 1 134 154 88
240 2 2 1 1 135 152 92
241 2 2 1 1 53 144 6
242 2 2 1 1 28 145 27
243 2 2 1 1 47 147 17
244 2 2 1 1 93 155 131
245 2 2 1 1 1 156 40
246 2 2 1 1 132 135 89
247 2 2 1 1 55 156 1
248 2 2 1 1 133 155 151
249 2 2 1 1 51 136 130
250 2 2 1 1 40 156 50
251 2 2 1 1 133 151 146
252 2 2 1 1 38 140 127
253 2 2 1 1 94 153 114
254 2 2 1 1 116 143 95
255 2 2 1 1 107 148 116
256 2 2 1 1 122 149 45
257 2 2 1 1 52 150 121
258 2 2 1 1 116 148 143
259 2 2 1 1 45 149 141
260 2 2 1 1 133 146 24
261 2 2 1 1 131 155 49
262 2 2 1 1 49 155 133
263 2 2 1 1 127 154 46
264 2 2 1 1 46 154 134
265 2 2 1 1 53 152 135
266 2 2 1 1 129 152 53
267 2 2 1 1 151 155 93
268 2 2 1 1 107 150 148
269 2 2 1 1 148 150 52
270 2 2 1 1 146 151 54
$EndElements
