$MeshFormat
2.2 0 8
$EndMeshFormat
$Nodes
554
1 0.75 0.5 0
2 0.5 0.625 0
3 0.25 0.5 0
4 0.5 0.375 0
5 0.7481948387537333 0.5149943490689688 0
6 0.7430776431236643 0.5292115534225948 0
7 0.7353273746481137 0.5421930881224234 0
8 0.7256456960646953 0.5538145422898847 0
9 0.7145832271636077 0.5641366482988696 0
10 0.7025281819964935 0.5732842675770101 0
11 0.6897463478731489 0.5813884565967464 0
12 0.6764208998947738 0.5885658880160954 0
13 0.6626805278072458 0.5949144955635807 0
14 0.6486179741626186 0.6005145483944977 0
15 0.6343018647180223 0.6054312680532464 0
16 0.6197842934579333 0.6097175043472824 0
17 0.605105825319603 0.6134160102056639 0
18 0.5902988268633074 0.6165612734435311 0
19 0.5753897750713557 0.6191809357811584 0
20 0.5604008755207726 0.6212968819017251 0
21 0.5453512411658548 0.6229260600164958 0
22 0.5302577796601712 0.6240810891816684 0
23 0.515135884022959 0.6247706946911449 0
24 0.4848641159770413 0.6247706946911449 0
25 0.4697422203398289 0.6240810891816684 0
26 0.4546487588341455 0.6229260600164958 0
27 0.4395991244792274 0.6212968819017251 0
28 0.4246102249286443 0.6191809357811584 0
29 0.4097011731366926 0.6165612734435311 0
30 0.3948941746803972 0.6134160102056641 0
31 0.3802157065420666 0.6097175043472823 0
32 0.3656981352819776 0.6054312680532464 0
33 0.3513820258373814 0.6005145483944976 0
34 0.337319472192754 0.5949144955635807 0
35 0.3235791001052263 0.5885658880160954 0
36 0.3102536521268511 0.5813884565967464 0
37 0.2974718180035066 0.5732842675770101 0
38 0.2854167728363924 0.5641366482988697 0
39 0.2743543039353047 0.5538145422898847 0
40 0.2646726253518861 0.5421930881224231 0
41 0.2569223568763357 0.529211553422595 0
42 0.2518051612462666 0.5149943490689683 0
43 0.2518051612462667 0.4850056509310312 0
44 0.2569223568763356 0.4707884465774052 0
45 0.2646726253518862 0.4578069118775767 0
46 0.2743543039353046 0.4461854577101154 0
47 0.2854167728363923 0.4358633517011305 0
48 0.2974718180035066 0.4267157324229899 0
49 0.310253652126851 0.4186115434032536 0
50 0.3235791001052262 0.4114341119839046 0
51 0.337319472192754 0.4050855044364193 0
52 0.3513820258373813 0.3994854516055024 0
53 0.3656981352819775 0.3945687319467536 0
54 0.3802157065420664 0.3902824956527177 0
55 0.3948941746803971 0.386583989794336 0
56 0.4097011731366924 0.383438726556469 0
57 0.4246102249286443 0.3808190642188416 0
58 0.4395991244792273 0.3787031180982749 0
59 0.4546487588341453 0.3770739399835042 0
60 0.4697422203398287 0.3759189108183317 0
61 0.4848641159770411 0.3752293053088551 0
62 0.5151358840229586 0.3752293053088551 0
63 0.5302577796601712 0.3759189108183317 0
64 0.5453512411658544 0.3770739399835042 0
65 0.5604008755207727 0.3787031180982749 0
66 0.5753897750713557 0.3808190642188416 0
67 0.5902988268633073 0.3834387265564689 0
68 0.605105825319603 0.3865839897943361 0
69 0.6197842934579335 0.3902824956527177 0
70 0.6343018647180224 0.3945687319467536 0
71 0.6486179741626188 0.3994854516055024 0
72 0.6626805278072461 0.4050855044364194 0
73 0.6764208998947738 0.4114341119839046 0
74 0.6897463478731489 0.4186115434032535 0
75 0.7025281819964936 0.42671573242299 0
76 0.7145832271636079 0.4358633517011306 0
77 0.7256456960646955 0.4461854577101155 0
78 0.7353273746481139 0.4578069118775769 0
79 0.7430776431236644 0.4707884465774053 0
80 0.7481948387537334 0.4850056509310317 0
81 0.4923412159577902 0.3882582806842937 0
82 0.5515349045181143 0.6093535927152646 0
83 0.4337705559669298 0.6077085680973719 0
84 0.566128420422525 0.392234211805768 0
85 0.4218505240883754 0.393363497624267 0
86 0.6236633815996653 0.5962047017742154 0
87 0.492630642149972 0.6117772913152425 0
88 0.3623697906224341 0.5911683219259083 0
89 0.6233311162001751 0.4049981091177066 0
90 0.3650431460009801 0.4099249496138755 0
91 0.676960603170671 0.4250815241460957 0
92 0.3112717720040732 0.5662257311571932 0
93 0.6759429034859901 0.5735588282327675 0
94 0.3113151039830714 0.4332178351538691 0
95 0.7286723486799072 0.4707196357328899 0
96 0.2639265982093428 0.5160907994165704 0
97 0.7202659648252702 0.5389744824682746 0
98 0.2795756710979534 0.4603788748881592 0
99 0.5220996163497603 0.3886700451115023 0
100 0.4614959947117387 0.3889252391258438 0
101 0.5226572486014958 0.6117467442907033 0
102 0.4626437735645697 0.6107460454482055 0
103 0.5805756131997883 0.6049595232454484 0
104 0.4050215413379951 0.6021654541379685 0
105 0.5951225390469448 0.3971233370973262 0
106 0.388729399870354 0.4023299966225545 0
107 0.7365320535136419 0.5063818947648929 0
108 0.6515250036221232 0.4128491136811666 0
109 0.6504338349192421 0.5859650888414367 0
110 0.3361392826040961 0.5800257011533909 0
111 0.3359472242262221 0.4201590655402642 0
112 0.7011947516405675 0.44313804767216 0
113 0.2884922016014931 0.5497054580924914 0
114 0.7000431652534154 0.558706437170235 0
115 0.2667099060246218 0.4819180160029743 0
116 0.5077327913073107 0.6117700859606697 0
117 0.5004378156321798 0.5986862215251596 0
118 0.4852904655248179 0.5985657196743126 0
119 0.493137720217527 0.5855902497486664 0
120 0.4780032558222347 0.5851879955380894 0
121 0.4858492604632533 0.5723317754814555 0
122 0.5009834871894426 0.5726704597576735 0
123 0.4936973481259491 0.5594061602679308 0
124 0.4785627744176483 0.559082144612613 0
125 0.4864109622158563 0.5461436992720328 0
126 0.5015458340549929 0.5464659789873521 0
127 0.4712770375412877 0.545817672413713 0
128 0.4791254468098079 0.5328746345838924 0
129 0.4639915062525006 0.5325495634389572 0
130 0.4718399298953307 0.5196058830903508 0
131 0.4567060219895969 0.5192808419392506 0
132 0.464554438677878 0.5063370837206345 0
133 0.4796883557161185 0.5066620619525017 0
134 0.4494205404737169 0.5060120692594418 0
135 0.4415721660931323 0.5189558256126048 0
136 0.4342867240209554 0.5056871214888284 0
137 0.4724028439571811 0.4933932393840896 0
138 0.4875367715912965 0.4937181948722232 0
139 0.4264383884321544 0.5186308686993253 0
140 0.4191530208510735 0.5053621781038742 0
141 0.4270013153534133 0.4924184880908432 0
142 0.411867747521303 0.4920934754511229 0
143 0.4040194203118487 0.5050370343983626 0
144 0.3967343773025857 0.4917682637697131 0
145 0.3888862183486805 0.5047118155406762 0
146 0.4802512409471018 0.4804493206199714 0
147 0.4953852105030514 0.4807743068089473 0
148 0.3816011958905282 0.4914434136829832 0
149 0.3737532351330228 0.5043865245239477 0
150 0.4197159853046648 0.4791498245135354 0
151 0.3664685178344335 0.4911183911354846 0
152 0.3586208751428436 0.5040610256861142 0
153 0.4880996560362505 0.4675054152015642 0
154 0.5032336232434359 0.4678304050189232 0
155 0.5105191730311692 0.481099286195682 0
156 0.5183675750025977 0.4681554029615525 0
157 0.5256531003291152 0.4814242613735964 0
158 0.5335014985212809 0.4684804092562706 0
159 0.5407870000915771 0.4817492202748152 0
160 0.5486353804912375 0.4688055298284812 0
161 0.5559208683256686 0.4820742097088209 0
162 0.5637692197932067 0.4691304317567774 0
163 0.5710546142358465 0.4823991574305048 0
164 0.5632063260788516 0.4953428443604365 0
165 0.5783400047538013 0.4956676519055324 0
166 0.58618821633308 0.4827242097571141 0
167 0.5934735722342825 0.4959926958525311 0
168 0.5704920096400569 0.5086108810780186 0
169 0.6013216648625774 0.4830492991728815 0
170 0.6086069131636553 0.4963174175768728 0
171 0.6164548308577793 0.4833742520228249 0
172 0.6237397972956565 0.4966423194857039 0
173 0.6158920564291761 0.5095852847826964 0
174 0.6310246375058218 0.5099098620282952 0
175 0.6388721231761634 0.4969678821283365 0
176 0.3810380001491996 0.517655796108303 0
177 0.3513366442048165 0.4907937937363178 0
178 0.6461566339070456 0.5102345829842576 0
179 0.6540036447867786 0.4972934711437045 0
180 0.3434896340708644 0.503733122311813 0
181 0.6231770039206158 0.5228526751621477 0
182 0.3743160091403385 0.4781753702505636 0
183 0.5413500123460429 0.4555368645697078 0
184 0.6091697430441055 0.4701061611394584 0
185 0.4959480868181764 0.4545615110166702 0
186 0.4808141025429218 0.4542365174408802 0
187 0.6243026660538206 0.4704312377667765 0
188 0.4561430124521695 0.5454931332473054 0
189 0.5329390171600107 0.4946926640673051 0
190 0.3507734534967247 0.517001507379001 0
191 0.3362059520797147 0.4904686226178805 0
192 0.6612881069994887 0.510558434297079 0
193 0.6691342204829012 0.4976179630019421 0
194 0.3283565031132236 0.5034002848653771 0
195 0.6618503474498396 0.4843534944320581 0
196 0.6534411744456803 0.5235004573906961 0
197 0.3440520909199019 0.4775279788147629 0
198 0.6769793903945671 0.4846787666287795 0
199 0.6842619547688913 0.4979410193355502 0
200 0.4886625416130623 0.4412925976109793 0
201 0.473528551505823 0.4409677627742566 0
202 0.3289224545189928 0.4772034725371387 0
203 0.6170177743883115 0.4571630838273654 0
204 0.6321511058437745 0.4574895952184007 0
205 0.4656801179312358 0.4539115452190022 0
206 0.4583944394718129 0.4406431609432427 0
207 0.601884728444487 0.4568379488165661 0
208 0.5037965310006098 0.4416175936918046 0
209 0.4948222877325961 0.5069870624433369 0
210 0.6080443259127226 0.5225282050342702 0
211 0.6153293688801341 0.5357960438826891 0
212 0.6001964069475551 0.5354713129193598 0
213 0.6074816720798426 0.5487394243616516 0
214 0.5923484146426204 0.5484146343440908 0
215 0.6685718935802952 0.5238251342140928 0
216 0.6226145656590378 0.549063913252772 0
217 0.66969657689469 0.4714140039858098 0
218 0.5996337928557675 0.5616829081103393 0
219 0.5845003653192058 0.5613581259890625 0
220 0.5772149283518903 0.5480897450124409 0
221 0.5693668017569199 0.561033333409666 0
222 0.5620813188991229 0.5477647932621025 0
223 0.5542331349868183 0.5607085211967987 0
224 0.5469476052167377 0.5474398887319283 0
225 0.3367681160359983 0.4642639740619676 0
226 0.6097329069475723 0.4438948125359669 0
227 0.5945997010494923 0.4435696279913148 0
228 0.4813770044043791 0.4280238613021095 0
229 0.6607268699299333 0.5367670767634649 0
230 0.5390993617108439 0.5603836874893744 0
231 0.4348496177854592 0.4794748200991223 0
232 0.4275641700488825 0.4662061848749117 0
233 0.4124305047810303 0.4658812040128024 0
234 0.4202787537336869 0.4529376110748983 0
235 0.4051451447356684 0.4526125301655888 0
236 0.4129933442810365 0.439669036569228 0
237 0.3978597682522155 0.4393441292268215 0
238 0.6921049890817985 0.4850048701230657 0
239 0.6993856448635245 0.4982650411657459 0
240 0.5615187006616362 0.5739771192248854 0
241 0.3216394693686641 0.463939964677099 0
242 0.3137944854491315 0.4768775169551132 0
243 0.6024479774350011 0.4306264183209226 0
244 0.5873145732756169 0.4303011591560757 0
245 0.5917858146065378 0.5746265122227915 0
246 0.6758582243914554 0.5370878146708897 0
247 0.6915430646763501 0.5112015301830982 0
248 0.70666572978696 0.5115239077133445 0
249 0.5318138085630219 0.5471149944883054 0
250 0.5396620592209733 0.5341714498969861 0
251 0.5245282426598779 0.5338463191289632 0
252 0.3900116431409051 0.4522874674725895 0
253 0.3827263812835734 0.439019275737619 0
254 0.3748786214080001 0.4519627171649049 0
255 0.3675937624493025 0.4386951060048086 0
256 0.4337237830762467 0.53189953341732 0
257 0.4185900816654046 0.531574559991186 0
258 0.4258754339184693 0.5448431611075021 0
259 0.410741800677902 0.5445182448336873 0
260 0.4180271339814926 0.5577867560729757 0
261 0.4028935331662775 0.5574618422513892 0
262 0.4101788586611182 0.5707303501441955 0
263 0.4253125148183143 0.5710553751488457 0
264 0.3950453097301948 0.5704052551923203 0
265 0.3877600424256084 0.5571368943618633 0
266 0.465117304929875 0.4801244637960205 0
267 0.4281269456471953 0.4399939133351822 0
268 0.5794662600351594 0.4432444033159676 0
269 0.572180945133599 0.4299757842304754 0
270 0.5553583260346791 0.5082862262505492 0
271 0.4208415589380251 0.4267253474100482 0
272 0.43597530497548 0.4270502608759529 0
273 0.6987699246276344 0.524428641672914 0
274 0.6175773925318959 0.4311288900173019 0
275 0.3296458502499229 0.4512358504944874 0
276 0.3067456191007052 0.4637569354980451 0
277 0.2989417643494622 0.4767169678632098 0
278 0.3059947964897996 0.4898389405131336 0
279 0.2911742809346529 0.4896959078113098 0
280 0.2981711286601032 0.5027823783008383 0
281 0.3799822115411355 0.5697880711287467 0
282 0.372638741983376 0.556763200432723 0
283 0.3862532240935769 0.5830713280888361 0
284 0.6067242070878944 0.574695928375049 0
285 0.5999884515266928 0.5876094251586915 0
286 0.6545671470941647 0.4710869651340588 0
287 0.6624145844873297 0.4581479138623786 0
288 0.6775444306581784 0.4584744485521299 0
289 0.3446414846284727 0.451359520443891 0
290 0.3804768062018024 0.5438608415735249 0
291 0.3653444532162064 0.5435337267227595 0
292 0.3574969008885637 0.5564768212171798 0
293 0.3502107552936899 0.5432151553335152 0
294 0.3423715985797911 0.555768183941634 0
295 0.3350786011708488 0.5428127405947336 0
296 0.5239657417061437 0.5600589670306485 0
297 0.5312510607883245 0.5733279362437939 0
298 0.6455944072043566 0.5364423181765149 0
299 0.6528811369689296 0.5497107906658769 0
300 0.4034564219077567 0.5312497616694379 0
301 0.4426978971801174 0.4665311373042382 0
302 0.5929110802093673 0.5222034579089714 0
303 0.564332522611694 0.4429190762852451 0
304 0.5570471050873773 0.429650049322867 0
305 0.5699295487302208 0.5348213842134737 0
306 0.5323766112160522 0.5209029536441731 0
307 0.517242817961207 0.5205781110048001 0
308 0.5795133980735138 0.4175523583128929 0
309 0.7070260970587834 0.4847663182311316 0
310 0.699908453462456 0.4716281341725644 0
311 0.3914486404697746 0.4265532953312948 0
312 0.4187525475533108 0.5834975656277405 0
313 0.4336572628834321 0.5838705633082517 0
314 0.4406227933599013 0.571304809725298 0
315 0.4481062376844205 0.5844472395092514 0
316 0.4556718543162716 0.5716592491496569 0
317 0.2839319020899886 0.5022945346779586 0
318 0.2909434525002246 0.5153794709219983 0
319 0.3055072291354469 0.5159582507526864 0
320 0.2976898002125015 0.5281853324103493 0
321 0.3127082068235228 0.5291280755230183 0
322 0.4286709805284424 0.4146591301703184 0
323 0.4438204358886767 0.4142526515362018 0
324 0.4134850829305764 0.4145236069637375 0
325 0.2840346173019868 0.5277289063014418 0
326 0.4361861697310955 0.4008894890693943 0
327 0.6702239091085156 0.4460829321258717 0
328 0.6551058364087077 0.4450338664231649 0
329 0.3254478080786967 0.5573575190484992 0
330 0.6105510835872281 0.415903644288437 0
331 0.3027823899313476 0.5428188529316369 0
332 0.5835211290246601 0.5899241698231302 0
333 0.3365404476955258 0.4360843097083375 0
334 0.3489933679301779 0.5706678543685022 0
335 0.2824217417895898 0.4761099108172084 0
336 0.4525845633404996 0.4016639659897648 0
337 0.4591034992009658 0.4147860701934901 0
338 0.713681782259596 0.5248747074563264 0
339 0.6850598308715901 0.4459153591773455 0
340 0.7241224456086048 0.5111082989455842 0
341 0.5082751810688472 0.5857751693980376 0
342 0.3429253218310618 0.529924331348314 0
343 0.6927175900209679 0.4585351121370567 0
344 0.7074398077507364 0.457997222059582 0
345 0.715184323101814 0.4975893128302018 0
346 0.7219155548957819 0.4830799974388302 0
347 0.3193256635458687 0.5424748151283975 0
348 0.3276968231331804 0.5295549753179681 0
349 0.3210830738684582 0.4901429499559938 0
350 0.3731901992574768 0.5305986105808811 0
351 0.5093943766629084 0.5335222737386003 0
352 0.6764162746387983 0.5108811954522646 0
353 0.3821638352177605 0.4652309334212244 0
354 0.3670308154504667 0.464907388580204 0
355 0.3894492121372643 0.4784994344243118 0
356 0.3659052016595241 0.5173287514405026 0
357 0.313089809467565 0.4485823696648563 0
358 0.2998102235559346 0.4529317846306561 0
359 0.631587427518813 0.4837000450020391 0
360 0.6394357807918395 0.4707595295568682 0
361 0.5161184578176137 0.5729733865753687 0
362 0.5234083342173889 0.5860527035879931 0
363 0.5381901032849237 0.5862895227536462 0
364 0.3580582307924473 0.5302670138008289 0
365 0.4629464295887619 0.5847904769664075 0
366 0.3883234919694025 0.5309231885654262 0
367 0.4505461589991335 0.4535871007124368 0
368 0.4113046554594089 0.5183061004926554 0
369 0.3762180328634281 0.4236418235895438 0
370 0.3600408929695259 0.4253316799155669 0
371 0.3783130403341774 0.4104686832891566 0
372 0.5789030000969482 0.4694557321544232 0
373 0.3961713488660686 0.5179804041729852 0
374 0.4410091390680566 0.5451681543898059 0
375 0.4499833421536982 0.4797998445594722 0
376 0.5178050199266608 0.4943675779787519 0
377 0.4028657984374889 0.5863365736147048 0
378 0.4059153197555134 0.4267024928393918 0
379 0.502670923347772 0.494042832453317 0
380 0.4729657016406794 0.4671804665007684 0
381 0.3591833215739638 0.4778518489782708 0
382 0.6147345510297781 0.5619649864601725 0
383 0.6298946779865219 0.5623248064209618 0
384 0.6216141085242504 0.5743435460458962 0
385 0.6378371010188508 0.5763213102937732 0
386 0.6451521265970135 0.562281628575396 0
387 0.4942594162630956 0.5331997857215189 0
388 0.511082057111283 0.4548864965799319 0
389 0.5189305152686619 0.4419425946238569 0
390 0.5116449847948545 0.428673682712402 0
391 0.5267789706704302 0.4289986800558823 0
392 0.5194932868277737 0.4157371565028541 0
393 0.5346272328192679 0.4160634137754923 0
394 0.504358373282065 0.4154549541307276 0
395 0.5124804995754486 0.4023473873685525 0
396 0.5419130162582682 0.4293255575092595 0
397 0.5496381129903016 0.4164497626109965 0
398 0.5427103228649917 0.4031218404675432 0
399 0.5645330738939094 0.4170849067886274 0
400 0.5340645722492344 0.4422681807537335 0
401 0.4578317538057899 0.4668557596819897 0
402 0.5262160384165168 0.4552116581241755 0
403 0.4869742340124324 0.5199304602816874 0
404 0.5547958240461515 0.5344964398093828 0
405 0.4965108127642693 0.428357070689258 0
406 0.489224204216729 0.4151385295230682 0
407 0.5480728922606802 0.4950176872711288 0
408 0.6248653587349831 0.444249840633919 0
409 0.6326323638700218 0.4319476918014527 0
410 0.6399813362769191 0.4446908924808848 0
411 0.6477471584763812 0.432704468386057 0
412 0.6848247307042987 0.4716562125061299 0
413 0.5166801530163405 0.5467905415908466 0
414 0.5463271493116778 0.5736012966561485 0
415 0.4488576048219505 0.5322245086742073 0
416 0.3650379776779674 0.5691068452549528 0
417 0.5527431436103405 0.5863685631592274 0
418 0.6304619992397538 0.5361197676837941 0
419 0.3956086827247915 0.5441917955425548 0
420 0.594329072045499 0.4179768888645475 0
421 0.4354123647997783 0.453262435596947 0
422 0.4421350812269866 0.4927434618851512 0
423 0.4741100821461336 0.4150715652191615 0
424 0.4828969703393394 0.4019632648846719 0
425 0.5765828240555657 0.5746941503216737 0
426 0.4572689475746767 0.4930684278131993 0
427 0.4331902206523952 0.5580991686371473 0
428 0.4045825619837721 0.4788246846899369 0
429 0.5940364786457695 0.4697810628089747 0
430 0.5850630677065756 0.5351465363307291 0
431 0.5673350200178537 0.586924335017484 0
432 0.5867513473633973 0.4565126949179615 0
433 0.6377664856092689 0.549323870795886 0
434 0.6620133140354022 0.5642539989615935 0
435 0.6836908493149787 0.5241383864024329 0
436 0.6909269386371397 0.5367001303331388 0
437 0.6854484678167921 0.5510062789588832 0
438 0.6687157530777798 0.5499095137865609 0
439 0.3972971503327334 0.465556042364409 0
440 0.4483442572977127 0.5584144127805567 0
441 0.600758900584631 0.5092604438867091 0
442 0.3597465898987016 0.4516386032883357 0
443 0.5856254555585816 0.5089356021649125 0
444 0.4634453541069288 0.5587530832715339 0
445 0.5564839321029371 0.4558622247744386 0
446 0.4707464881191831 0.5719674541699593 0
447 0.4432604489686003 0.4403186445405162 0
448 0.5491985267759256 0.4425936588692086 0
449 0.5716177714504533 0.456187417835008 0
450 0.4511085500049318 0.4273748705598227 0
451 0.4662703544556744 0.4278112151653472 0
452 0.6383093093705456 0.523176610570951 0
453 0.5777775467509341 0.52187863820637 0
454 0.3524619532626551 0.438372394174907 0
455 0.6467194118029331 0.4840268978995109 0
456 0.5021083683223495 0.5202547099351508 0
457 0.5626439844455524 0.5215538194939123 0
458 0.5088318369850804 0.5597275823683033 0
459 0.5475104061057047 0.5212287415566464 0
460 0.5402250186852861 0.5079607222286426 0
461 0.52509094608337 0.5076354924151659 0
462 0.5099567272289925 0.5073109643717538 0
463 0.3132689076597877 0.5030751473065864 0
464 0.3519037364179175 0.4645915523612387 0
465 0.6472837081629326 0.4578334700663563 0
466 0.3205300167668745 0.5162964239379154 0
467 0.3356286254019882 0.5166517741933981 0
468 0.5278414436462959 0.4026008589615007 0
469 0.455676120027148 0.597400527759064 0
470 0.6640572110395337 0.4327138370945703 0
471 0.7289275056948131 0.5272631515629902 0
472 0.4974484996192798 0.4022085599155661 0
473 0.5300772793804854 0.598807837284502 0
474 0.7056721759913849 0.5370406008979735 0
475 0.5071694036369615 0.3879949594157004 0
476 0.4775558740728724 0.6112585929205229 0
477 0.5366282994749216 0.3896404054198322 0
478 0.5513942523407716 0.390680010198002 0
479 0.566121885837223 0.6077362576656885 0
480 0.4193484032980992 0.6054552349136522 0
481 0.5807443406347379 0.394098025635538 0
482 0.3988635236614523 0.4133995415352207 0
483 0.4069735873253909 0.3999168270747211 0
484 0.5948086623172399 0.6019788015371487 0
485 0.3910505564063004 0.5981013949381795 0
486 0.6093614885124765 0.4005982255531438 0
487 0.6093621279693879 0.599402407346427 0
488 0.3765475220284544 0.5945386216265673 0
489 0.4703526531000675 0.597991559717767 0
490 0.6372136417510155 0.4086767133867639 0
491 0.6373866698923367 0.5912015365007992 0
492 0.3489690455444171 0.5862174914905194 0
493 0.3491563022928196 0.4140177768218241 0
494 0.4763522421217109 0.3888775896765773 0
495 0.5155005085483345 0.5986212340117197 0
496 0.6633129449227684 0.5800380394225411 0
497 0.557725507994607 0.4041016762435071 0
498 0.3235428724866869 0.573386862367218 0
499 0.3227557123479515 0.4257300524255891 0
500 0.7143400146846419 0.4705584805712213 0
501 0.6261690611182631 0.4190131909388922 0
502 0.6881792619583342 0.5664292318723833 0
503 0.4480214900756759 0.6094358521515078 0
504 0.2995971233759098 0.5582198340360127 0
505 0.5372680114483956 0.6109139854381649 0
506 0.4677572253100647 0.4018812825149182 0
507 0.6889144773934541 0.4328197009255103 0
508 0.7107541426312334 0.5498922028733383 0
509 0.292786408290808 0.4641399946667186 0
510 0.5723703929947408 0.4051674445551752 0
511 0.6648054143223966 0.4185301203537667 0
512 0.3714704236044208 0.5812245510434924 0
513 0.3231664020081171 0.4391514274395463 0
514 0.276496891213115 0.4904800249130203 0
515 0.2703377559485979 0.5036133440252216 0
516 0.7346836765170965 0.4807617889215791 0
517 0.4414843033406765 0.5965153075386102 0
518 0.2785077487512099 0.5402572424619475 0
519 0.6149105303929225 0.5861739291191509 0
520 0.3120273062629998 0.5532186688945768 0
521 0.2700604602280774 0.4694004320326648 0
522 0.3348328816391923 0.5670069110099785 0
523 0.7210257056079006 0.4583439767343493 0
524 0.4463236099612055 0.3893973752325291 0
525 0.5441824138448532 0.5984709000611457 0
526 0.3469251192482037 0.4267327058628935 0
527 0.6755470120793444 0.5607353625111782 0
528 0.2700550157464164 0.5298128328133447 0
529 0.2865420897667964 0.449759014222715 0
530 0.4271645561982657 0.5955707803900306 0
531 0.6520615337330884 0.573379159521393 0
532 0.7315579971323957 0.4942152139277384 0
533 0.6418079393032692 0.4215498546150254 0
534 0.5866709293364147 0.4063931775639334 0
535 0.5586436327010084 0.59802101786697 0
536 0.2772048902994262 0.5158199813594225 0
537 0.4336319643613716 0.3887756489285846 0
538 0.2994044250560496 0.4398276187259919 0
539 0.6983146264890268 0.5466805061147922 0
540 0.2623270520681582 0.4945976676260717 0
541 0.2903013515597078 0.5377391584395733 0
542 0.3589001485393875 0.5796751731123031 0
543 0.4145034297407473 0.5947458801502368 0
544 0.7368506196311759 0.5173664745557897 0
545 0.6278431663316417 0.5848035590207021 0
546 0.6002150452268553 0.4075585268792221 0
547 0.5716209200403564 0.59791229970416 0
548 0.3877343711231871 0.4153721351138974 0
549 0.6773157613143246 0.4367893358474039 0
550 0.7141924531237321 0.4478743372552512 0
551 0.3753398494604425 0.4005467812182307 0
552 0.4213429953045267 0.4053746694038771 0
553 0.2596793134944732 0.5058592320273664 0
554 0.6555604069818106 0.4241079494958195 0
$EndNodes
$Elements
1026
1 2 2 1 1 1 532 80
2 2 2 1 1 345 532 340
3 2 2 1 1 369 370 90
4 2 2 1 1 90 371 369
5 2 2 1 1 104 485 377
6 2 2 1 1 329 498 92
7 2 2 1 1 93 496 434
8 2 2 1 1 114 502 437
9 2 2 1 1 340 532 107
10 2 2 1 1 377 485 283
11 2 2 1 1 333 499 111
12 2 2 1 1 309 500 346
13 2 2 1 1 332 484 103
14 2 2 1 1 112 344 343
15 2 2 1 1 434 527 93
16 2 2 1 1 97 471 7
17 2 2 1 1 112 343 339
18 2 2 1 1 92 520 329
19 2 2 1 1 331 504 113
20 2 2 1 1 330 486 89
21 2 2 1 1 107 532 1
22 2 2 1 1 357 538 94
23 2 2 1 1 343 344 310
24 2 2 1 1 285 484 332
25 2 2 1 1 437 539 114
26 2 2 1 1 56 483 55
27 2 2 1 1 346 500 95
28 2 2 1 1 424 506 494
29 2 2 1 1 333 513 499
30 2 2 1 1 80 532 516
31 2 2 1 1 7 471 6
32 2 2 1 1 358 538 357
33 2 2 1 1 329 522 498
34 2 2 1 1 528 536 325
35 2 2 1 1 494 506 100
36 2 2 1 1 377 543 104
37 2 2 1 1 96 536 528
38 2 2 1 1 472 475 395
39 2 2 1 1 334 492 110
40 2 2 1 1 89 501 330
41 2 2 1 1 344 500 310
42 2 2 1 1 81 475 472
43 2 2 1 1 338 471 97
44 2 2 1 1 502 527 437
45 2 2 1 1 331 520 504
46 2 2 1 1 335 514 115
47 2 2 1 1 310 500 309
48 2 2 1 1 81 472 424
49 2 2 1 1 55 483 106
50 2 2 1 1 85 483 56
51 2 2 1 1 32 488 31
52 2 2 1 1 111 526 333
53 2 2 1 1 99 468 395
54 2 2 1 1 395 475 99
55 2 2 1 1 115 521 335
56 2 2 1 1 326 552 85
57 2 2 1 1 85 537 326
58 2 2 1 1 109 491 385
59 2 2 1 1 496 531 434
60 2 2 1 1 370 493 90
61 2 2 1 1 424 494 81
62 2 2 1 1 468 477 398
63 2 2 1 1 47 538 529
64 2 2 1 1 103 547 332
65 2 2 1 1 99 477 468
66 2 2 1 1 346 532 345
67 2 2 1 1 113 541 331
68 2 2 1 1 110 522 334
69 2 2 1 1 476 489 118
70 2 2 1 1 117 495 116
71 2 2 1 1 97 474 338
72 2 2 1 1 94 513 357
73 2 2 1 1 88 488 32
74 2 2 1 1 326 524 336
75 2 2 1 1 485 488 283
76 2 2 1 1 385 531 109
77 2 2 1 1 100 506 336
78 2 2 1 1 98 509 335
79 2 2 1 1 102 489 476
80 2 2 1 1 31 488 485
81 2 2 1 1 529 538 358
82 2 2 1 1 329 347 295
83 2 2 1 1 295 348 342
84 2 2 1 1 347 348 295
85 2 2 1 1 342 467 190
86 2 2 1 1 348 467 342
87 2 2 1 1 310 412 343
88 2 2 1 1 229 438 299
89 2 2 1 1 192 352 215
90 2 2 1 1 248 345 340
91 2 2 1 1 410 465 204
92 2 2 1 1 194 463 349
93 2 2 1 1 285 487 484
94 2 2 1 1 190 364 342
95 2 2 1 1 273 436 435
96 2 2 1 1 410 411 328
97 2 2 1 1 293 364 291
98 2 2 1 1 435 436 246
99 2 2 1 1 354 464 442
100 2 2 1 1 194 349 191
101 2 2 1 1 299 438 434
102 2 2 1 1 239 345 248
103 2 2 1 1 350 356 176
104 2 2 1 1 343 412 288
105 2 2 1 1 242 277 276
106 2 2 1 1 289 454 442
107 2 2 1 1 248 340 338
108 2 2 1 1 238 239 199
109 2 2 1 1 333 454 289
110 2 2 1 1 342 364 293
111 2 2 1 1 352 435 215
112 2 2 1 1 328 465 410
113 2 2 1 1 299 434 386
114 2 2 1 1 246 438 229
115 2 2 1 1 386 433 299
116 2 2 1 1 361 362 341
117 2 2 1 1 177 381 151
118 2 2 1 1 278 279 277
119 2 2 1 1 123 458 122
120 2 2 1 1 309 345 239
121 2 2 1 1 119 341 117
122 2 2 1 1 176 366 350
123 2 2 1 1 198 199 193
124 2 2 1 1 242 349 278
125 2 2 1 1 360 455 359
126 2 2 1 1 273 435 247
127 2 2 1 1 193 352 192
128 2 2 1 1 291 364 350
129 2 2 1 1 238 309 239
130 2 2 1 1 202 242 241
131 2 2 1 1 122 361 341
132 2 2 1 1 176 373 366
133 2 2 1 1 403 456 387
134 2 2 1 1 198 238 199
135 2 2 1 1 215 435 246
136 2 2 1 1 350 364 356
137 2 2 1 1 279 335 277
138 2 2 1 1 39 113 38
139 2 2 1 1 247 435 352
140 2 2 1 1 280 317 279
141 2 2 1 1 442 464 289
142 2 2 1 1 286 455 360
143 2 2 1 1 242 278 277
144 2 2 1 1 339 343 288
145 2 2 1 1 309 346 345
146 2 2 1 1 46 98 45
147 2 2 1 1 182 354 353
148 2 2 1 1 126 387 351
149 2 2 1 1 242 276 241
150 2 2 1 1 366 373 300
151 2 2 1 1 351 413 126
152 2 2 1 1 198 412 238
153 2 2 1 1 202 349 242
154 2 2 1 1 238 412 310
155 2 2 1 1 239 248 247
156 2 2 1 1 191 349 202
157 2 2 1 1 356 364 190
158 2 2 1 1 180 194 191
159 2 2 1 1 76 112 75
160 2 2 1 1 197 381 177
161 2 2 1 1 122 458 361
162 2 2 1 1 383 433 386
163 2 2 1 1 179 193 192
164 2 2 1 1 148 355 144
165 2 2 1 1 180 191 177
166 2 2 1 1 387 456 351
167 2 2 1 1 116 495 101
168 2 2 1 1 172 359 175
169 2 2 1 1 320 325 318
170 2 2 1 1 298 433 418
171 2 2 1 1 10 114 9
172 2 2 1 1 195 198 193
173 2 2 1 1 396 397 304
174 2 2 1 1 297 362 361
175 2 2 1 1 397 399 304
176 2 2 1 1 152 180 177
177 2 2 1 1 191 202 197
178 2 2 1 1 239 247 199
179 2 2 1 1 365 446 120
180 2 2 1 1 353 355 182
181 2 2 1 1 299 433 298
182 2 2 1 1 297 363 362
183 2 2 1 1 151 381 182
184 2 2 1 1 182 381 354
185 2 2 1 1 175 179 178
186 2 2 1 1 120 446 121
187 2 2 1 1 182 355 148
188 2 2 1 1 396 448 400
189 2 2 1 1 179 192 178
190 2 2 1 1 355 428 144
191 2 2 1 1 300 419 366
192 2 2 1 1 149 152 151
193 2 2 1 1 181 452 418
194 2 2 1 1 294 295 293
195 2 2 1 1 171 359 172
196 2 2 1 1 152 177 151
197 2 2 1 1 204 360 187
198 2 2 1 1 175 178 174
199 2 2 1 1 8 97 7
200 2 2 1 1 278 280 279
201 2 2 1 1 327 339 288
202 2 2 1 1 187 360 359
203 2 2 1 1 304 448 396
204 2 2 1 1 204 465 360
205 2 2 1 1 294 329 295
206 2 2 1 1 172 175 174
207 2 2 1 1 295 342 293
208 2 2 1 1 37 92 36
209 2 2 1 1 187 359 171
210 2 2 1 1 292 293 291
211 2 2 1 1 418 452 298
212 2 2 1 1 202 241 225
213 2 2 1 1 140 368 143
214 2 2 1 1 259 419 300
215 2 2 1 1 152 356 190
216 2 2 1 1 215 246 229
217 2 2 1 1 436 437 246
218 2 2 1 1 192 215 196
219 2 2 1 1 126 458 123
220 2 2 1 1 35 110 34
221 2 2 1 1 171 172 170
222 2 2 1 1 149 356 152
223 2 2 1 1 282 291 290
224 2 2 1 1 282 292 291
225 2 2 1 1 287 288 217
226 2 2 1 1 428 439 233
227 2 2 1 1 292 294 293
228 2 2 1 1 304 399 269
229 2 2 1 1 367 401 301
230 2 2 1 1 152 190 180
231 2 2 1 1 269 399 308
232 2 2 1 1 408 410 204
233 2 2 1 1 179 195 193
234 2 2 1 1 255 454 370
235 2 2 1 1 209 456 403
236 2 2 1 1 144 428 142
237 2 2 1 1 281 282 265
238 2 2 1 1 300 373 368
239 2 2 1 1 353 354 254
240 2 2 1 1 383 386 385
241 2 2 1 1 297 414 363
242 2 2 1 1 282 416 292
243 2 2 1 1 74 91 73
244 2 2 1 1 149 151 148
245 2 2 1 1 248 338 273
246 2 2 1 1 139 368 140
247 2 2 1 1 409 411 410
248 2 2 1 1 355 439 428
249 2 2 1 1 252 254 253
250 2 2 1 1 359 455 175
251 2 2 1 1 145 149 148
252 2 2 1 1 72 108 71
253 2 2 1 1 409 410 408
254 2 2 1 1 51 111 50
255 2 2 1 1 228 451 423
256 2 2 1 1 368 373 143
257 2 2 1 1 254 255 253
258 2 2 1 1 184 187 171
259 2 2 1 1 292 416 334
260 2 2 1 1 203 408 204
261 2 2 1 1 172 174 173
262 2 2 1 1 143 373 145
263 2 2 1 1 375 401 266
264 2 2 1 1 143 145 144
265 2 2 1 1 203 204 187
266 2 2 1 1 216 433 383
267 2 2 1 1 264 265 261
268 2 2 1 1 145 148 144
269 2 2 1 1 276 358 357
270 2 2 1 1 169 171 170
271 2 2 1 1 145 373 176
272 2 2 1 1 282 290 265
273 2 2 1 1 291 350 290
274 2 2 1 1 49 94 48
275 2 2 1 1 301 401 375
276 2 2 1 1 216 383 382
277 2 2 1 1 280 318 317
278 2 2 1 1 191 197 177
279 2 2 1 1 14 109 13
280 2 2 1 1 254 442 255
281 2 2 1 1 143 144 142
282 2 2 1 1 264 281 265
283 2 2 1 1 252 353 254
284 2 2 1 1 301 421 367
285 2 2 1 1 163 372 166
286 2 2 1 1 169 170 167
287 2 2 1 1 140 143 142
288 2 2 1 1 205 401 367
289 2 2 1 1 259 300 257
290 2 2 1 1 172 173 170
291 2 2 1 1 166 169 167
292 2 2 1 1 216 382 213
293 2 2 1 1 235 252 237
294 2 2 1 1 12 93 11
295 2 2 1 1 188 415 129
296 2 2 1 1 166 167 165
297 2 2 1 1 374 415 188
298 2 2 1 1 176 356 149
299 2 2 1 1 290 419 265
300 2 2 1 1 252 253 237
301 2 2 1 1 353 439 355
302 2 2 1 1 163 166 165
303 2 2 1 1 414 417 363
304 2 2 1 1 139 140 136
305 2 2 1 1 79 95 78
306 2 2 1 1 183 402 400
307 2 2 1 1 162 372 163
308 2 2 1 1 400 402 389
309 2 2 1 1 255 370 369
310 2 2 1 1 256 257 139
311 2 2 1 1 137 426 266
312 2 2 1 1 257 368 139
313 2 2 1 1 162 163 161
314 2 2 1 1 366 419 290
315 2 2 1 1 383 385 384
316 2 2 1 1 163 165 164
317 2 2 1 1 150 233 232
318 2 2 1 1 266 426 375
319 2 2 1 1 30 104 29
320 2 2 1 1 145 176 149
321 2 2 1 1 288 412 217
322 2 2 1 1 33 88 32
323 2 2 1 1 70 89 69
324 2 2 1 1 271 378 324
325 2 2 1 1 140 142 141
326 2 2 1 1 55 106 54
327 2 2 1 1 258 259 257
328 2 2 1 1 300 368 257
329 2 2 1 1 160 162 161
330 2 2 1 1 147 379 138
331 2 2 1 1 68 105 67
332 2 2 1 1 184 203 187
333 2 2 1 1 160 161 159
334 2 2 1 1 233 235 234
335 2 2 1 1 135 139 136
336 2 2 1 1 53 90 52
337 2 2 1 1 19 103 18
338 2 2 1 1 138 379 209
339 2 2 1 1 16 86 15
340 2 2 1 1 135 136 134
341 2 2 1 1 131 135 134
342 2 2 1 1 266 380 146
343 2 2 1 1 260 261 259
344 2 2 1 1 205 367 206
345 2 2 1 1 274 409 408
346 2 2 1 1 163 164 161
347 2 2 1 1 127 188 129
348 2 2 1 1 226 408 203
349 2 2 1 1 393 396 391
350 2 2 1 1 262 264 261
351 2 2 1 1 372 429 166
352 2 2 1 1 129 131 130
353 2 2 1 1 380 401 205
354 2 2 1 1 127 129 128
355 2 2 1 1 211 418 216
356 2 2 1 1 235 237 236
357 2 2 1 1 169 184 171
358 2 2 1 1 131 134 132
359 2 2 1 1 211 216 213
360 2 2 1 1 24 87 2
361 2 2 1 1 124 127 125
362 2 2 1 1 26 102 25
363 2 2 1 1 140 141 136
364 2 2 1 1 186 205 201
365 2 2 1 1 146 380 153
366 2 2 1 1 23 101 22
367 2 2 1 1 164 407 161
368 2 2 1 1 205 206 201
369 2 2 1 1 158 159 157
370 2 2 1 1 158 160 159
371 2 2 1 1 125 387 126
372 2 2 1 1 159 189 157
373 2 2 1 1 256 258 257
374 2 2 1 1 213 382 218
375 2 2 1 1 202 225 197
376 2 2 1 1 393 397 396
377 2 2 1 1 155 379 147
378 2 2 1 1 391 400 389
379 2 2 1 1 60 100 59
380 2 2 1 1 186 380 205
381 2 2 1 1 396 400 391
382 2 2 1 1 233 234 232
383 2 2 1 1 57 85 56
384 2 2 1 1 389 402 388
385 2 2 1 1 135 256 139
386 2 2 1 1 156 157 155
387 2 2 1 1 63 99 62
388 2 2 1 1 165 168 164
389 2 2 1 1 28 83 27
390 2 2 1 1 129 415 131
391 2 2 1 1 270 407 164
392 2 2 1 1 151 182 148
393 2 2 1 1 156 158 157
394 2 2 1 1 243 274 226
395 2 2 1 1 137 266 146
396 2 2 1 1 66 84 65
397 2 2 1 1 125 126 123
398 2 2 1 1 153 380 186
399 2 2 1 1 400 448 183
400 2 2 1 1 21 82 20
401 2 2 1 1 154 155 147
402 2 2 1 1 222 404 305
403 2 2 1 1 127 128 125
404 2 2 1 1 390 391 389
405 2 2 1 1 261 419 259
406 2 2 1 1 124 125 123
407 2 2 1 1 208 389 388
408 2 2 1 1 154 156 155
409 2 2 1 1 154 388 156
410 2 2 1 1 129 130 128
411 2 2 1 1 157 376 155
412 2 2 1 1 131 132 130
413 2 2 1 1 266 401 380
414 2 2 1 1 159 407 189
415 2 2 1 1 121 124 123
416 2 2 1 1 392 393 391
417 2 2 1 1 4 81 61
418 2 2 1 1 376 379 155
419 2 2 1 1 128 387 125
420 2 2 1 1 271 324 322
421 2 2 1 1 189 376 157
422 2 2 1 1 186 201 200
423 2 2 1 1 138 209 133
424 2 2 1 1 142 150 141
425 2 2 1 1 153 154 147
426 2 2 1 1 224 404 222
427 2 2 1 1 208 388 185
428 2 2 1 1 158 183 160
429 2 2 1 1 132 137 133
430 2 2 1 1 185 388 154
431 2 2 1 1 195 217 198
432 2 2 1 1 200 208 185
433 2 2 1 1 146 147 138
434 2 2 1 1 137 138 133
435 2 2 1 1 153 186 185
436 2 2 1 1 208 390 389
437 2 2 1 1 388 402 156
438 2 2 1 1 209 403 133
439 2 2 1 1 156 402 158
440 2 2 1 1 135 415 256
441 2 2 1 1 258 260 259
442 2 2 1 1 249 250 224
443 2 2 1 1 251 306 250
444 2 2 1 1 133 403 130
445 2 2 1 1 137 146 138
446 2 2 1 1 390 392 391
447 2 2 1 1 186 200 185
448 2 2 1 1 128 403 387
449 2 2 1 1 201 228 200
450 2 2 1 1 218 382 284
451 2 2 1 1 146 153 147
452 2 2 1 1 153 185 154
453 2 2 1 1 208 405 390
454 2 2 1 1 262 377 264
455 2 2 1 1 260 262 261
456 2 2 1 1 132 133 130
457 2 2 1 1 158 402 183
458 2 2 1 1 121 446 124
459 2 2 1 1 218 284 245
460 2 2 1 1 161 407 159
461 2 2 1 1 253 311 237
462 2 2 1 1 200 405 208
463 2 2 1 1 235 236 234
464 2 2 1 1 251 307 306
465 2 2 1 1 383 384 382
466 2 2 1 1 422 426 134
467 2 2 1 1 390 405 394
468 2 2 1 1 393 398 397
469 2 2 1 1 250 404 224
470 2 2 1 1 142 428 150
471 2 2 1 1 222 305 220
472 2 2 1 1 423 451 337
473 2 2 1 1 379 462 209
474 2 2 1 1 249 251 250
475 2 2 1 1 256 415 374
476 2 2 1 1 130 403 128
477 2 2 1 1 336 337 323
478 2 2 1 1 131 415 135
479 2 2 1 1 394 395 392
480 2 2 1 1 251 351 307
481 2 2 1 1 192 196 178
482 2 2 1 1 174 181 173
483 2 2 1 1 255 369 253
484 2 2 1 1 228 405 200
485 2 2 1 1 150 232 231
486 2 2 1 1 390 394 392
487 2 2 1 1 314 316 315
488 2 2 1 1 230 297 296
489 2 2 1 1 316 365 315
490 2 2 1 1 228 406 405
491 2 2 1 1 122 341 119
492 2 2 1 1 264 377 283
493 2 2 1 1 230 249 224
494 2 2 1 1 405 406 394
495 2 2 1 1 236 378 271
496 2 2 1 1 274 408 226
497 2 2 1 1 281 416 282
498 2 2 1 1 121 123 122
499 2 2 1 1 301 375 231
500 2 2 1 1 230 296 249
501 2 2 1 1 168 270 164
502 2 2 1 1 264 283 281
503 2 2 1 1 223 230 224
504 2 2 1 1 326 336 323
505 2 2 1 1 297 361 296
506 2 2 1 1 322 326 323
507 2 2 1 1 223 224 222
508 2 2 1 1 232 301 231
509 2 2 1 1 375 426 422
510 2 2 1 1 252 439 353
511 2 2 1 1 249 413 251
512 2 2 1 1 243 330 274
513 2 2 1 1 221 240 223
514 2 2 1 1 284 285 245
515 2 2 1 1 265 419 261
516 2 2 1 1 136 422 134
517 2 2 1 1 314 315 313
518 2 2 1 1 466 467 348
519 2 2 1 1 236 271 267
520 2 2 1 1 263 312 262
521 2 2 1 1 263 314 313
522 2 2 1 1 251 413 351
523 2 2 1 1 150 231 141
524 2 2 1 1 322 323 272
525 2 2 1 1 296 413 249
526 2 2 1 1 237 378 236
527 2 2 1 1 256 374 258
528 2 2 1 1 367 447 206
529 2 2 1 1 169 429 184
530 2 2 1 1 223 414 230
531 2 2 1 1 382 384 284
532 2 2 1 1 292 334 294
533 2 2 1 1 271 322 272
534 2 2 1 1 312 377 262
535 2 2 1 1 230 414 297
536 2 2 1 1 234 421 232
537 2 2 1 1 240 414 223
538 2 2 1 1 267 421 234
539 2 2 1 1 132 426 137
540 2 2 1 1 236 267 234
541 2 2 1 1 141 422 136
542 2 2 1 1 221 223 222
543 2 2 1 1 271 272 267
544 2 2 1 1 231 422 141
545 2 2 1 1 253 369 311
546 2 2 1 1 240 417 414
547 2 2 1 1 263 313 312
548 2 2 1 1 233 439 235
549 2 2 1 1 260 263 262
550 2 2 1 1 219 220 214
551 2 2 1 1 332 431 425
552 2 2 1 1 303 304 269
553 2 2 1 1 218 245 219
554 2 2 1 1 184 429 207
555 2 2 1 1 285 332 245
556 2 2 1 1 425 431 240
557 2 2 1 1 423 424 406
558 2 2 1 1 221 222 220
559 2 2 1 1 440 444 316
560 2 2 1 1 166 429 169
561 2 2 1 1 269 308 244
562 2 2 1 1 207 226 203
563 2 2 1 1 311 378 237
564 2 2 1 1 213 218 214
565 2 2 1 1 218 219 214
566 2 2 1 1 134 426 132
567 2 2 1 1 150 428 233
568 2 2 1 1 227 243 226
569 2 2 1 1 375 422 231
570 2 2 1 1 227 268 244
571 2 2 1 1 268 303 269
572 2 2 1 1 214 430 212
573 2 2 1 1 232 421 301
574 2 2 1 1 441 443 167
575 2 2 1 1 219 221 220
576 2 2 1 1 228 423 406
577 2 2 1 1 305 430 220
578 2 2 1 1 227 244 243
579 2 2 1 1 212 430 302
580 2 2 1 1 263 427 314
581 2 2 1 1 337 451 450
582 2 2 1 1 181 211 210
583 2 2 1 1 258 427 260
584 2 2 1 1 268 269 244
585 2 2 1 1 207 227 226
586 2 2 1 1 374 427 258
587 2 2 1 1 447 450 206
588 2 2 1 1 213 214 212
589 2 2 1 1 221 425 240
590 2 2 1 1 245 425 219
591 2 2 1 1 260 427 263
592 2 2 1 1 211 213 212
593 2 2 1 1 332 425 245
594 2 2 1 1 243 420 330
595 2 2 1 1 124 444 127
596 2 2 1 1 212 302 210
597 2 2 1 1 413 458 126
598 2 2 1 1 350 366 290
599 2 2 1 1 165 443 168
600 2 2 1 1 244 420 243
601 2 2 1 1 219 425 221
602 2 2 1 1 308 420 244
603 2 2 1 1 238 310 309
604 2 2 1 1 184 207 203
605 2 2 1 1 181 418 211
606 2 2 1 1 445 449 162
607 2 2 1 1 220 430 214
608 2 2 1 1 314 440 316
609 2 2 1 1 211 212 210
610 2 2 1 1 181 210 173
611 2 2 1 1 460 461 189
612 2 2 1 1 121 122 119
613 2 2 1 1 240 431 417
614 2 2 1 1 302 443 441
615 2 2 1 1 188 444 440
616 2 2 1 1 183 445 160
617 2 2 1 1 170 441 167
618 2 2 1 1 199 352 193
619 2 2 1 1 215 229 196
620 2 2 1 1 432 449 268
621 2 2 1 1 287 327 288
622 2 2 1 1 227 432 268
623 2 2 1 1 372 432 429
624 2 2 1 1 418 433 216
625 2 2 1 1 235 439 252
626 2 2 1 1 188 440 374
627 2 2 1 1 210 441 173
628 2 2 1 1 337 450 323
629 2 2 1 1 201 451 228
630 2 2 1 1 173 441 170
631 2 2 1 1 303 448 304
632 2 2 1 1 427 440 314
633 2 2 1 1 372 449 432
634 2 2 1 1 374 440 427
635 2 2 1 1 429 432 207
636 2 2 1 1 207 432 227
637 2 2 1 1 267 447 421
638 2 2 1 1 303 449 445
639 2 2 1 1 354 442 254
640 2 2 1 1 421 447 367
641 2 2 1 1 162 449 372
642 2 2 1 1 167 443 165
643 2 2 1 1 127 444 188
644 2 2 1 1 450 451 206
645 2 2 1 1 124 446 444
646 2 2 1 1 302 441 210
647 2 2 1 1 174 452 181
648 2 2 1 1 217 412 198
649 2 2 1 1 229 299 298
650 2 2 1 1 160 445 162
651 2 2 1 1 196 452 178
652 2 2 1 1 316 446 365
653 2 2 1 1 430 453 302
654 2 2 1 1 183 448 445
655 2 2 1 1 272 447 267
656 2 2 1 1 445 448 303
657 2 2 1 1 179 455 195
658 2 2 1 1 442 454 255
659 2 2 1 1 272 450 447
660 2 2 1 1 323 450 272
661 2 2 1 1 306 459 250
662 2 2 1 1 407 460 189
663 2 2 1 1 381 464 354
664 2 2 1 1 268 449 303
665 2 2 1 1 443 453 168
666 2 2 1 1 298 452 196
667 2 2 1 1 296 458 413
668 2 2 1 1 302 453 443
669 2 2 1 1 206 451 201
670 2 2 1 1 444 446 316
671 2 2 1 1 241 275 225
672 2 2 1 1 178 452 174
673 2 2 1 1 195 455 286
674 2 2 1 1 286 287 217
675 2 2 1 1 248 273 247
676 2 2 1 1 276 357 241
677 2 2 1 1 305 453 430
678 2 2 1 1 453 457 168
679 2 2 1 1 229 298 196
680 2 2 1 1 275 333 289
681 2 2 1 1 44 115 43
682 2 2 1 1 305 457 453
683 2 2 1 1 175 455 179
684 2 2 1 1 209 462 456
685 2 2 1 1 306 461 460
686 2 2 1 1 457 459 270
687 2 2 1 1 168 457 270
688 2 2 1 1 287 328 327
689 2 2 1 1 120 121 119
690 2 2 1 1 275 289 225
691 2 2 1 1 351 456 307
692 2 2 1 1 195 286 217
693 2 2 1 1 42 96 41
694 2 2 1 1 189 461 376
695 2 2 1 1 376 462 379
696 2 2 1 1 461 462 376
697 2 2 1 1 404 457 305
698 2 2 1 1 306 460 459
699 2 2 1 1 404 459 457
700 2 2 1 1 241 357 275
701 2 2 1 1 361 458 296
702 2 2 1 1 437 438 246
703 2 2 1 1 250 459 404
704 2 2 1 1 270 460 407
705 2 2 1 1 349 463 278
706 2 2 1 1 360 465 286
707 2 2 1 1 307 461 306
708 2 2 1 1 307 462 461
709 2 2 1 1 319 320 318
710 2 2 1 1 321 331 320
711 2 2 1 1 459 460 270
712 2 2 1 1 321 348 347
713 2 2 1 1 247 352 199
714 2 2 1 1 456 462 307
715 2 2 1 1 194 466 463
716 2 2 1 1 286 465 287
717 2 2 1 1 197 464 381
718 2 2 1 1 321 347 331
719 2 2 1 1 280 319 318
720 2 2 1 1 319 321 320
721 2 2 1 1 225 464 197
722 2 2 1 1 194 467 466
723 2 2 1 1 289 464 225
724 2 2 1 1 287 465 328
725 2 2 1 1 118 120 119
726 2 2 1 1 278 463 280
727 2 2 1 1 280 463 319
728 2 2 1 1 190 467 180
729 2 2 1 1 5 107 1
730 2 2 1 1 477 478 398
731 2 2 1 1 321 466 348
732 2 2 1 1 463 466 319
733 2 2 1 1 319 466 321
734 2 2 1 1 180 467 194
735 2 2 1 1 118 119 117
736 2 2 1 1 393 468 398
737 2 2 1 1 395 468 392
738 2 2 1 1 392 468 393
739 2 2 1 1 328 470 327
740 2 2 1 1 326 537 524
741 2 2 1 1 87 118 117
742 2 2 1 1 365 469 315
743 2 2 1 1 411 470 328
744 2 2 1 1 424 472 406
745 2 2 1 1 394 472 395
746 2 2 1 1 338 474 273
747 2 2 1 1 482 483 324
748 2 2 1 1 87 476 118
749 2 2 1 1 311 482 378
750 2 2 1 1 336 524 100
751 2 2 1 1 340 471 338
752 2 2 1 1 406 472 394
753 2 2 1 1 118 489 120
754 2 2 1 1 335 521 98
755 2 2 1 1 363 473 362
756 2 2 1 1 87 117 116
757 2 2 1 1 341 495 117
758 2 2 1 1 365 489 469
759 2 2 1 1 469 489 102
760 2 2 1 1 273 474 436
761 2 2 1 1 397 497 399
762 2 2 1 1 490 501 89
763 2 2 1 1 483 552 324
764 2 2 1 1 515 540 514
765 2 2 1 1 330 546 486
766 2 2 1 1 23 116 101
767 2 2 1 1 2 116 23
768 2 2 1 1 99 475 62
769 2 2 1 1 62 475 4
770 2 2 1 1 87 116 2
771 2 2 1 1 4 475 81
772 2 2 1 1 102 476 25
773 2 2 1 1 25 476 24
774 2 2 1 1 24 476 87
775 2 2 1 1 63 477 99
776 2 2 1 1 64 477 63
777 2 2 1 1 65 478 64
778 2 2 1 1 84 478 65
779 2 2 1 1 19 479 103
780 2 2 1 1 20 479 19
781 2 2 1 1 330 501 274
782 2 2 1 1 82 479 20
783 2 2 1 1 104 480 29
784 2 2 1 1 105 481 67
785 2 2 1 1 29 480 28
786 2 2 1 1 67 481 66
787 2 2 1 1 28 480 83
788 2 2 1 1 66 481 84
789 2 2 1 1 515 536 96
790 2 2 1 1 378 482 324
791 2 2 1 1 18 484 17
792 2 2 1 1 103 484 18
793 2 2 1 1 473 495 362
794 2 2 1 1 101 495 473
795 2 2 1 1 31 485 30
796 2 2 1 1 30 485 104
797 2 2 1 1 478 497 398
798 2 2 1 1 89 486 69
799 2 2 1 1 69 486 68
800 2 2 1 1 17 487 16
801 2 2 1 1 16 487 86
802 2 2 1 1 68 486 105
803 2 2 1 1 81 494 61
804 2 2 1 1 60 494 100
805 2 2 1 1 120 489 365
806 2 2 1 1 313 530 312
807 2 2 1 1 312 543 377
808 2 2 1 1 423 506 424
809 2 2 1 1 336 506 337
810 2 2 1 1 108 490 71
811 2 2 1 1 106 483 482
812 2 2 1 1 14 491 109
813 2 2 1 1 71 490 70
814 2 2 1 1 15 491 14
815 2 2 1 1 70 490 89
816 2 2 1 1 86 491 15
817 2 2 1 1 107 544 340
818 2 2 1 1 335 509 277
819 2 2 1 1 276 509 358
820 2 2 1 1 64 478 477
821 2 2 1 1 371 548 369
822 2 2 1 1 110 492 34
823 2 2 1 1 34 492 33
824 2 2 1 1 51 493 111
825 2 2 1 1 52 493 51
826 2 2 1 1 85 552 483
827 2 2 1 1 33 492 88
828 2 2 1 1 90 493 52
829 2 2 1 1 61 494 60
830 2 2 1 1 26 503 102
831 2 2 1 1 362 495 341
832 2 2 1 1 83 503 27
833 2 2 1 1 509 529 358
834 2 2 1 1 13 496 12
835 2 2 1 1 12 496 93
836 2 2 1 1 497 510 399
837 2 2 1 1 109 496 13
838 2 2 1 1 101 505 22
839 2 2 1 1 279 514 335
840 2 2 1 1 21 505 82
841 2 2 1 1 398 497 397
842 2 2 1 1 334 542 492
843 2 2 1 1 102 503 469
844 2 2 1 1 484 487 17
845 2 2 1 1 514 540 115
846 2 2 1 1 339 507 112
847 2 2 1 1 329 520 347
848 2 2 1 1 315 517 313
849 2 2 1 1 36 498 35
850 2 2 1 1 92 498 36
851 2 2 1 1 50 499 49
852 2 2 1 1 49 499 94
853 2 2 1 1 334 522 294
854 2 2 1 1 35 498 110
855 2 2 1 1 111 499 50
856 2 2 1 1 369 548 311
857 2 2 1 1 417 525 363
858 2 2 1 1 438 527 434
859 2 2 1 1 431 535 417
860 2 2 1 1 473 505 101
861 2 2 1 1 490 533 501
862 2 2 1 1 10 502 114
863 2 2 1 1 11 502 10
864 2 2 1 1 340 544 471
865 2 2 1 1 274 501 409
866 2 2 1 1 386 531 385
867 2 2 1 1 283 512 281
868 2 2 1 1 93 502 11
869 2 2 1 1 84 497 478
870 2 2 1 1 332 547 431
871 2 2 1 1 83 517 503
872 2 2 1 1 325 536 318
873 2 2 1 1 333 526 454
874 2 2 1 1 72 511 108
875 2 2 1 1 470 549 327
876 2 2 1 1 27 503 26
877 2 2 1 1 100 524 59
878 2 2 1 1 74 507 91
879 2 2 1 1 113 504 38
880 2 2 1 1 38 504 37
881 2 2 1 1 112 550 344
882 2 2 1 1 91 511 73
883 2 2 1 1 399 510 308
884 2 2 1 1 370 526 493
885 2 2 1 1 331 541 320
886 2 2 1 1 91 549 470
887 2 2 1 1 322 552 326
888 2 2 1 1 436 539 437
889 2 2 1 1 84 510 497
890 2 2 1 1 37 504 92
891 2 2 1 1 112 507 75
892 2 2 1 1 470 511 91
893 2 2 1 1 22 505 21
894 2 2 1 1 357 513 275
895 2 2 1 1 371 551 106
896 2 2 1 1 93 527 502
897 2 2 1 1 90 551 371
898 2 2 1 1 97 508 474
899 2 2 1 1 384 519 284
900 2 2 1 1 317 536 515
901 2 2 1 1 488 512 283
902 2 2 1 1 9 508 8
903 2 2 1 1 8 508 97
904 2 2 1 1 337 506 423
905 2 2 1 1 57 537 85
906 2 2 1 1 285 519 487
907 2 2 1 1 75 507 74
908 2 2 1 1 317 515 514
909 2 2 1 1 275 513 333
910 2 2 1 1 505 525 82
911 2 2 1 1 308 534 420
912 2 2 1 1 114 508 9
913 2 2 1 1 503 517 469
914 2 2 1 1 95 516 346
915 2 2 1 1 277 509 276
916 2 2 1 1 106 551 54
917 2 2 1 1 53 551 90
918 2 2 1 1 98 529 509
919 2 2 1 1 281 512 416
920 2 2 1 1 284 519 285
921 2 2 1 1 80 516 79
922 2 2 1 1 73 511 72
923 2 2 1 1 79 516 95
924 2 2 1 1 530 543 312
925 2 2 1 1 39 518 113
926 2 2 1 1 48 538 47
927 2 2 1 1 96 553 515
928 2 2 1 1 417 535 525
929 2 2 1 1 517 530 313
930 2 2 1 1 317 514 279
931 2 2 1 1 504 520 92
932 2 2 1 1 47 529 46
933 2 2 1 1 473 525 505
934 2 2 1 1 106 548 371
935 2 2 1 1 481 510 84
936 2 2 1 1 45 521 44
937 2 2 1 1 44 521 115
938 2 2 1 1 95 523 78
939 2 2 1 1 534 546 420
940 2 2 1 1 76 550 112
941 2 2 1 1 40 518 39
942 2 2 1 1 431 547 535
943 2 2 1 1 501 533 409
944 2 2 1 1 469 517 315
945 2 2 1 1 347 520 331
946 2 2 1 1 384 545 519
947 2 2 1 1 98 521 45
948 2 2 1 1 294 522 329
949 2 2 1 1 78 523 77
950 2 2 1 1 59 524 58
951 2 2 1 1 454 526 370
952 2 2 1 1 88 512 488
953 2 2 1 1 498 522 110
954 2 2 1 1 344 523 500
955 2 2 1 1 96 528 41
956 2 2 1 1 109 531 496
957 2 2 1 1 437 527 438
958 2 2 1 1 41 528 40
959 2 2 1 1 533 554 411
960 2 2 1 1 409 533 411
961 2 2 1 1 487 519 86
962 2 2 1 1 499 513 94
963 2 2 1 1 363 525 473
964 2 2 1 1 420 546 330
965 2 2 1 1 491 545 385
966 2 2 1 1 108 554 533
967 2 2 1 1 416 542 334
968 2 2 1 1 46 529 98
969 2 2 1 1 508 539 474
970 2 2 1 1 434 531 386
971 2 2 1 1 482 548 106
972 2 2 1 1 500 523 95
973 2 2 1 1 43 540 3
974 2 2 1 1 6 544 5
975 2 2 1 1 510 534 308
976 2 2 1 1 42 553 96
977 2 2 1 1 519 545 86
978 2 2 1 1 524 537 58
979 2 2 1 1 493 526 111
980 2 2 1 1 318 536 317
981 2 2 1 1 480 530 83
982 2 2 1 1 471 544 6
983 2 2 1 1 385 545 384
984 2 2 1 1 58 537 57
985 2 2 1 1 114 539 508
986 2 2 1 1 94 538 48
987 2 2 1 1 108 533 490
988 2 2 1 1 105 534 481
989 2 2 1 1 115 540 43
990 2 2 1 1 82 535 479
991 2 2 1 1 83 530 517
992 2 2 1 1 320 541 325
993 2 2 1 1 105 546 534
994 2 2 1 1 344 550 523
995 2 2 1 1 481 534 510
996 2 2 1 1 512 542 416
997 2 2 1 1 525 535 82
998 2 2 1 1 40 528 518
999 2 2 1 1 518 528 325
1000 2 2 1 1 5 544 107
1001 2 2 1 1 474 539 436
1002 2 2 1 1 311 548 482
1003 2 2 1 1 77 550 76
1004 2 2 1 1 327 549 339
1005 2 2 1 1 54 551 53
1006 2 2 1 1 324 552 322
1007 2 2 1 1 88 542 512
1008 2 2 1 1 3 553 42
1009 2 2 1 1 411 554 470
1010 2 2 1 1 523 550 77
1011 2 2 1 1 104 543 480
1012 2 2 1 1 507 549 91
1013 2 2 1 1 540 553 3
1014 2 2 1 1 492 542 88
1015 2 2 1 1 479 547 103
1016 2 2 1 1 516 532 346
1017 2 2 1 1 486 546 105
1018 2 2 1 1 86 545 491
1019 2 2 1 1 480 543 530
1020 2 2 1 1 339 549 507
1021 2 2 1 1 518 541 113
1022 2 2 1 1 511 554 108
1023 2 2 1 1 535 547 479
1024 2 2 1 1 515 553 540
1025 2 2 1 1 325 541 518
1026 2 2 1 1 470 554 511
$EndElements
