$MeshFormat
2.2 0 8
$EndMeshFormat
$Nodes
143
1 -1 -1 0
2 1 -1 0
3 1 1 0
4 -1 1 0
5 -0.8000000000005548 -1 0
6 -0.6000000000011096 -1 0
7 -0.4000000000016644 -1 0
8 -0.2000000000022192 -1 0
9 -2.752242878045763e-12 -1 0
10 0.1999999999977808 -1 0
11 0.3999999999983355 -1 0
12 0.5999999999988903 -1 0
13 0.7999999999994454 -1 0
14 1 -0.8000000000005548 0
15 1 -0.6000000000011096 0
16 1 -0.4000000000016644 0
17 1 -0.2000000000022192 0
18 1 -2.752242878045763e-12 0
19 1 0.1999999999977808 0
20 1 0.3999999999983355 0
21 1 0.5999999999988903 0
22 1 0.7999999999994454 0
23 0.8000000000005548 1 0
24 0.6000000000011096 1 0
25 0.4000000000016644 1 0
26 0.2000000000022192 1 0
27 2.752242878045763e-12 1 0
28 -0.1999999999977808 1 0
29 -0.3999999999983355 1 0
30 -0.5999999999988903 1 0
31 -0.7999999999994454 1 0
32 -1 0.8000000000005548 0
33 -1 0.6000000000011096 0
34 -1 0.4000000000016644 0
35 -1 0.2000000000022192 0
36 -1 2.752242878045763e-12 0
37 -1 -0.1999999999977808 0
38 -1 -0.3999999999983355 0
39 -1 -0.5999999999988903 0
40 -1 -0.7999999999994454 0
41 0.07217941180824101 -0.8099998272210049 0
42 0.8267949191519447 0.0999999990360329 0
43 -0.09368058124176804 0.8304434379173411 0
44 -0.826794919537321 -0.1000000009118791 0
45 0.3000000000019418 0.8267949201139067 0
46 -0.8267949190296353 0.2999999994607749 0
47 -0.3025517822355466 -0.822840100323655 0
48 0.8267949192435928 -0.3000000000019418 0
49 0.8408154857862019 0.4919576035063335 0
50 -0.5173451302869825 0.820740774281993 0
51 -0.8287759327160068 -0.5041730375132906 0
52 0.4959169337947741 -0.8225498072450563 0
53 -0.8306455915488856 0.6991525252498558 0
54 0.6988135363043142 0.8341005186424555 0
55 -0.6746526962169774 -0.8248236957459503 0
56 0.8090094352007173 -0.6891118910950824 0
57 -0.8271250883410963 -0.3006955066514065 0
58 -0.6544891206840269 -0.1986536273260663 0
59 -0.6537397177839237 0.0002243945337142006 0
60 -0.4814038725997467 -0.09827591549789982 0
61 -0.4805795883379039 0.1003247448098829 0
62 -0.3073820002246185 0.000341468855390159 0
63 -0.3117937019851324 -0.1983096326733267 0
64 -0.1347773209619821 -0.09966136445864437 0
65 -0.1341421023366838 0.1001133463406701 0
66 0.03906877927220107 7.532471137941532e-05 0
67 0.03919129476984912 0.2000224541982261 0
68 0.03923048259371581 -0.2000000070368244 0
69 0.2124086124845755 -0.09998745237575871 0
70 0.212431070747471 -0.2999979149738172 0
71 -0.1339745928610591 0.2999999932478098 0
72 0.03268554143410762 0.4089353765910375 0
73 0.2113382106105646 0.3014929646473876 0
74 0.03922973290719362 -0.3999996577189897 0
75 0.3856354031443694 -0.1999975668616131 0
76 0.3856398162436947 -0.3999996231403915 0
77 0.3856352784960007 2.490718901598798e-06 0
78 0.5588457230876511 -0.1000000085782041 0
79 -0.1402572726682418 0.5032318111892071 0
80 -0.3082267864181998 0.4005386312912895 0
81 0.2025508414586031 0.5070798533444831 0
82 0.3856406482342521 0.399999988670336 0
83 -0.3071796710834951 0.5999999940281253 0
84 -0.4772099092629258 0.494288499403156 0
85 0.558845723024481 0.09999999136512082 0
86 0.390492962347895 0.6219629414341667 0
87 0.5568744946741129 0.4975475136622625 0
88 -0.6536308740597427 0.2000653728480204 0
89 0.2103619573839519 -0.4964096977127525 0
90 0.3929190021978743 -0.6286087992262226 0
91 0.5570016657276973 -0.4979558184670461 0
92 0.03923048032505028 -0.6000000069774578 0
93 -0.1375409211574169 -0.5001161286474201 0
94 -0.1258811354458463 -0.6997260666875106 0
95 -0.3104410206896734 -0.6099804759311618 0
96 -0.4831348501732399 -0.7162515330777248 0
97 -0.4888075864904607 -0.5128001942991705 0
98 -0.3113346861219748 -0.402072114444238 0
99 -0.6582318510254102 -0.6227809809015192 0
100 -0.136164402347032 -0.3000264842861693 0
101 0.5588457261611819 -0.3000000105231364 0
102 0.8267949195712456 0.2999999986905353 0
103 -0.6545157045708445 -0.4013158420592141 0
104 0.3000000001956216 -0.8267949197630644 0
105 -0.3057967764324143 0.7988367904380695 0
106 -0.8268267386422262 0.1000482949007473 0
107 -0.6530675352696703 0.3990589780605123 0
108 0.1010532367497929 0.8315481935077766 0
109 0.02003832579493031 0.6335972263636065 0
110 0.8267949203538083 -0.100000000963967 0
111 0.8369075010173505 -0.4918002312138098 0
112 0.498217749892635 0.826494101395697 0
113 -0.8273496469632133 0.4997019167830712 0
114 -0.6365855365147253 0.6300846320700382 0
115 -0.3074483040903999 0.2002196971782977 0
116 -0.480027166502746 0.2990826541067784 0
117 0.5588457285592321 0.2999999896623855 0
118 0.2122138034485044 0.1002676285651176 0
119 0.3854198986165922 0.2002938422565119 0
120 -0.4845695857125449 -0.2966743646508851 0
121 0.6930307983260184 -0.8402163498037027 0
122 -0.701741405453769 0.8335077871494873 0
123 0.8122913117011631 0.6881867776241217 0
124 -0.8354769421350519 -0.6941866367699416 0
125 0.59999999899583 0.6761062281407708 0
126 0.5996685816372029 -0.6760465624684038 0
127 0.2014423844890648 0.6813873224727347 0
128 0.2000000010570635 -0.6784609736350465 0
129 -0.1029286498341735 -0.8652037100003716 0
130 0.6928203209960684 -5.360014668220892e-09 0
131 0.6928203225341762 -0.2000000042753979 0
132 0.6928203260738397 -0.4000000004407707 0
133 0.6928203208897621 0.1999999919280673 0
134 0.6928203212509993 0.3999999897287547 0
135 -0.4602885639515251 0.6651923787866927 0
136 -0.1653751948680501 0.6732218521592062 0
137 -0.5000000000013871 -0.8762599156717061 0
138 -0.8535898386409095 0.8535898381259506 0
139 -0.8535898376943144 -0.8535898371787604 0
140 0.8535898384519478 -0.8535898373031658 0
141 0.8535898387298581 0.8535898387295613 0
142 0.6972925936866136 -0.5540419276060852 0
143 0.7005603225973337 0.550759622870429 0
$EndNodes
$Elements
284
1 1 2 10 1 1 5
2 1 2 10 1 5 6
3 1 2 10 1 6 7
4 1 2 10 1 7 8
5 1 2 10 1 8 9
6 1 2 10 1 9 10
7 1 2 10 1 10 11
8 1 2 10 1 11 12
9 1 2 10 1 12 13
10 1 2 10 1 13 2
11 1 2 10 2 2 14
12 1 2 10 2 14 15
13 1 2 10 2 15 16
14 1 2 10 2 16 17
15 1 2 10 2 17 18
16 1 2 10 2 18 19
17 1 2 10 2 19 20
18 1 2 10 2 20 21
19 1 2 10 2 21 22
20 1 2 10 2 22 3
21 1 2 10 3 3 23
22 1 2 10 3 23 24
23 1 2 10 3 24 25
24 1 2 10 3 25 26
25 1 2 10 3 26 27
26 1 2 10 3 27 28
27 1 2 10 3 28 29
28 1 2 10 3 29 30
29 1 2 10 3 30 31
30 1 2 10 3 31 4
31 1 2 10 4 4 32
32 1 2 10 4 32 33
33 1 2 10 4 33 34
34 1 2 10 4 34 35
35 1 2 10 4 35 36
36 1 2 10 4 36 37
37 1 2 10 4 37 38
38 1 2 10 4 38 39
39 1 2 10 4 39 40
40 1 2 10 4 40 1
41 2 2 1 1 81 109 72
42 2 2 1 1 50 122 114
43 2 2 1 1 92 94 41
44 2 2 1 1 114 135 50
45 2 2 1 1 86 112 45
46 2 2 1 1 90 104 52
47 2 2 1 1 94 129 41
48 2 2 1 1 81 127 109
49 2 2 1 1 86 125 112
50 2 2 1 1 52 126 90
51 2 2 1 1 72 109 79
52 2 2 1 1 96 99 55
53 2 2 1 1 99 103 51
54 2 2 1 1 55 137 96
55 2 2 1 1 95 96 47
56 2 2 1 1 45 127 86
57 2 2 1 1 90 128 104
58 2 2 1 1 93 100 98
59 2 2 1 1 94 95 47
60 2 2 1 1 97 103 99
61 2 2 1 1 114 122 53
62 2 2 1 1 105 135 83
63 2 2 1 1 97 120 103
64 2 2 1 1 98 120 97
65 2 2 1 1 98 100 63
66 2 2 1 1 93 98 95
67 2 2 1 1 54 125 123
68 2 2 1 1 87 125 86
69 2 2 1 1 90 126 91
70 2 2 1 1 41 128 92
71 2 2 1 1 56 126 121
72 2 2 1 1 95 97 96
73 2 2 1 1 83 136 105
74 2 2 1 1 50 135 105
75 2 2 1 1 125 143 123
76 2 2 1 1 95 98 97
77 2 2 1 1 97 99 96
78 2 2 1 1 51 124 99
79 2 2 1 1 46 106 88
80 2 2 1 1 88 106 59
81 2 2 1 1 107 116 84
82 2 2 1 1 84 114 107
83 2 2 1 1 88 107 46
84 2 2 1 1 88 116 107
85 2 2 1 1 37 57 44
86 2 2 1 1 59 106 44
87 2 2 1 1 75 101 78
88 2 2 1 1 89 90 76
89 2 2 1 1 113 114 53
90 2 2 1 1 76 101 75
91 2 2 1 1 57 58 44
92 2 2 1 1 70 89 76
93 2 2 1 1 82 119 117
94 2 2 1 1 24 112 54
95 2 2 1 1 10 41 9
96 2 2 1 1 37 44 36
97 2 2 1 1 12 52 11
98 2 2 1 1 49 102 20
99 2 2 1 1 74 100 93
100 2 2 1 1 28 105 43
101 2 2 1 1 70 76 75
102 2 2 1 1 10 104 41
103 2 2 1 1 57 103 58
104 2 2 1 1 58 59 44
105 2 2 1 1 64 100 68
106 2 2 1 1 15 111 56
107 2 2 1 1 52 104 11
108 2 2 1 1 19 42 18
109 2 2 1 1 38 57 37
110 2 2 1 1 74 93 92
111 2 2 1 1 44 106 36
112 2 2 1 1 79 83 80
113 2 2 1 1 83 84 80
114 2 2 1 1 28 43 27
115 2 2 1 1 26 108 45
116 2 2 1 1 21 49 20
117 2 2 1 1 17 48 16
118 2 2 1 1 24 54 23
119 2 2 1 1 74 92 89
120 2 2 1 1 74 89 70
121 2 2 1 1 107 113 46
122 2 2 1 1 34 113 33
123 2 2 1 1 68 100 74
124 2 2 1 1 115 116 61
125 2 2 1 1 107 114 113
126 2 2 1 1 68 74 70
127 2 2 1 1 70 75 69
128 2 2 1 1 90 91 76
129 2 2 1 1 58 60 59
130 2 2 1 1 75 77 69
131 2 2 1 1 20 102 19
132 2 2 1 1 25 112 24
133 2 2 1 1 19 102 42
134 2 2 1 1 27 108 26
135 2 2 1 1 60 63 62
136 2 2 1 1 63 100 64
137 2 2 1 1 65 115 62
138 2 2 1 1 91 101 76
139 2 2 1 1 42 110 18
140 2 2 1 1 11 104 10
141 2 2 1 1 79 80 71
142 2 2 1 1 93 94 92
143 2 2 1 1 60 62 61
144 2 2 1 1 29 105 28
145 2 2 1 1 61 116 88
146 2 2 1 1 117 119 85
147 2 2 1 1 78 85 77
148 2 2 1 1 67 72 71
149 2 2 1 1 46 113 34
150 2 2 1 1 75 78 77
151 2 2 1 1 61 88 59
152 2 2 1 1 60 61 59
153 2 2 1 1 51 103 57
154 2 2 1 1 71 115 65
155 2 2 1 1 68 70 69
156 2 2 1 1 43 108 27
157 2 2 1 1 30 50 29
158 2 2 1 1 39 51 38
159 2 2 1 1 8 47 7
160 2 2 1 1 26 45 25
161 2 2 1 1 35 46 34
162 2 2 1 1 6 55 5
163 2 2 1 1 15 56 14
164 2 2 1 1 33 53 32
165 2 2 1 1 35 106 46
166 2 2 1 1 36 106 35
167 2 2 1 1 63 64 62
168 2 2 1 1 64 68 66
169 2 2 1 1 72 79 71
170 2 2 1 1 80 115 71
171 2 2 1 1 93 95 94
172 2 2 1 1 51 57 38
173 2 2 1 1 18 110 17
174 2 2 1 1 62 115 61
175 2 2 1 1 64 65 62
176 2 2 1 1 67 71 65
177 2 2 1 1 33 113 53
178 2 2 1 1 73 82 81
179 2 2 1 1 17 110 48
180 2 2 1 1 67 118 73
181 2 2 1 1 80 116 115
182 2 2 1 1 82 86 81
183 2 2 1 1 43 109 108
184 2 2 1 1 16 111 15
185 2 2 1 1 82 87 86
186 2 2 1 1 68 69 66
187 2 2 1 1 50 105 29
188 2 2 1 1 84 116 80
189 2 2 1 1 45 112 25
190 2 2 1 1 67 73 72
191 2 2 1 1 66 67 65
192 2 2 1 1 82 117 87
193 2 2 1 1 64 66 65
194 2 2 1 1 73 119 82
195 2 2 1 1 66 118 67
196 2 2 1 1 73 81 72
197 2 2 1 1 118 119 73
198 2 2 1 1 69 118 66
199 2 2 1 1 48 111 16
200 2 2 1 1 77 118 69
201 2 2 1 1 85 119 77
202 2 2 1 1 77 119 118
203 2 2 1 1 56 142 126
204 2 2 1 1 63 120 98
205 2 2 1 1 60 120 63
206 2 2 1 1 103 120 58
207 2 2 1 1 22 123 21
208 2 2 1 1 13 121 12
209 2 2 1 1 31 122 30
210 2 2 1 1 47 129 94
211 2 2 1 1 40 124 39
212 2 2 1 1 39 124 51
213 2 2 1 1 58 120 60
214 2 2 1 1 86 127 81
215 2 2 1 1 109 127 108
216 2 2 1 1 89 128 90
217 2 2 1 1 96 137 47
218 2 2 1 1 12 121 52
219 2 2 1 1 30 122 50
220 2 2 1 1 21 123 49
221 2 2 1 1 99 124 55
222 2 2 1 1 41 129 9
223 2 2 1 1 8 129 47
224 2 2 1 1 84 135 114
225 2 2 1 1 105 136 43
226 2 2 1 1 47 137 7
227 2 2 1 1 6 137 55
228 2 2 1 1 5 139 1
229 2 2 1 1 1 139 40
230 2 2 1 1 2 140 13
231 2 2 1 1 14 140 2
232 2 2 1 1 4 138 31
233 2 2 1 1 32 138 4
234 2 2 1 1 3 141 22
235 2 2 1 1 23 141 3
236 2 2 1 1 112 125 54
237 2 2 1 1 108 127 45
238 2 2 1 1 92 128 89
239 2 2 1 1 104 128 41
240 2 2 1 1 109 136 79
241 2 2 1 1 121 126 52
242 2 2 1 1 111 142 56
243 2 2 1 1 79 136 83
244 2 2 1 1 9 129 8
245 2 2 1 1 102 134 133
246 2 2 1 1 101 131 78
247 2 2 1 1 91 132 101
248 2 2 1 1 78 130 85
249 2 2 1 1 102 133 42
250 2 2 1 1 49 134 102
251 2 2 1 1 78 131 130
252 2 2 1 1 101 132 131
253 2 2 1 1 133 134 117
254 2 2 1 1 42 130 110
255 2 2 1 1 130 131 110
256 2 2 1 1 110 131 48
257 2 2 1 1 131 132 48
258 2 2 1 1 117 134 87
259 2 2 1 1 85 133 117
260 2 2 1 1 48 132 111
261 2 2 1 1 130 133 85
262 2 2 1 1 42 133 130
263 2 2 1 1 83 135 84
264 2 2 1 1 43 136 109
265 2 2 1 1 123 143 49
266 2 2 1 1 22 141 123
267 2 2 1 1 13 140 121
268 2 2 1 1 31 138 122
269 2 2 1 1 7 137 6
270 2 2 1 1 54 141 23
271 2 2 1 1 55 139 5
272 2 2 1 1 53 138 32
273 2 2 1 1 56 140 14
274 2 2 1 1 40 139 124
275 2 2 1 1 122 138 53
276 2 2 1 1 123 141 54
277 2 2 1 1 121 140 56
278 2 2 1 1 124 139 55
279 2 2 1 1 87 143 125
280 2 2 1 1 126 142 91
281 2 2 1 1 91 142 132
282 2 2 1 1 132 142 111
283 2 2 1 1 49 143 134
284 2 2 1 1 134 143 87
$EndElements
